<svg xmlns="http://www.w3.org/2000/svg" width="120" height="42" version="1.0"><path d="m443.28857 75.3667 114.06348.20264c1.59375 0 3.01758-.23633 3.01758 3.18066l-.13965 37.56689H440.40967V78.61035c0-1.68506.16308-3.24365 2.8789-3.24365z" style="fill:#aab2ab" transform="matrix(.99378 0 0 .99367 -437.12334 -74.436914)"/><path d="M117.7532952-.0000014H2.2476335c-1.2393142 0-2.247654 1.0082268-2.247654 2.2469155v39.246064c0 .2799564.2270989.5070199.5075637.5070199h118.9848684c.2804747 0 .5075636-.2270734.5075636-.50702V2.246914c0-1.2386886-1.0083397-2.2469154-2.24668-2.2469154zM2.2476335 1.015022h115.5056716c.6793386 0 1.2315528.5526294 1.2315528 1.231902v27.2206247h-82.556591c-3.025983 5.4710057-8.8566837 9.1856209-15.5472335 9.1856209-6.6924975 0-12.5212505-3.7112168-15.5452956-9.1856209h-4.320621V2.246924c-.00001-.6792725.5531681-1.2319019 1.2325167-1.2319019z"/><path d="M486.26599-55.7066c.00555 8.68079-7.02789 15.7215-15.70813 15.72708-8.68018.00562-15.7215-7.02786-15.72705-15.7081v-.01898c-.00562-8.68079 7.02783-15.7215 15.70807-15.72711 8.68134-.005 15.7226 7.02783 15.72711 15.70807v.01904z" style="fill:#fff" transform="matrix(.8675 0 0 .8674 -387.3097196 67.8708816)"/><path d="M31.971738 8.4466868c3.0230887 3.0232274 4.535058 6.7252262 4.535058 11.1045564 0 4.3798073-1.4858144 8.042513-4.4574434 10.9881086-3.15408 3.101822-6.8807394 4.6524816-11.1819822 4.6524816-4.248829 0-7.9114155-1.5375792-10.9858683-4.6141514-3.0764654-3.075141-4.6137396-6.75045-4.6137396-11.0264388 0-4.2750346 1.5372742-7.9765476 4.6137396-11.1045564 2.9968296-3.0241815 6.6594248-4.5360338 10.9858683-4.5360338 4.3798203 0 8.0803248 1.5118523 11.1043677 4.5360338zm-20.0551428 2.0339113c-2.5563084 2.5816973-3.8344626 5.6058789-3.8344626 9.074505s1.2655495 6.4671328 3.7946448 8.995945c2.530995 2.5297577 5.5424419 3.7946452 9.037186 3.7946452 3.494744 0 6.5323458-1.2775081 9.1148092-3.8329754 2.451472-2.3735832 3.6772037-5.3584804 3.6772037-8.9576148 0-3.5714905-1.2460657-6.6034092-3.7373556-9.0939346-2.4902316-2.489953-5.508445-3.7354542-9.0546573-3.7354542-3.5462124 0-6.5469545 1.2518072-8.9973682 3.7548838zm6.726456 7.549104c-.39012-.851513-.9743412-1.2775341-1.754685-1.2775341-1.3781154 0-2.067173.9281734-2.067173 2.7835662 0 1.8558177.6890576 2.783037 2.067173 2.783037.9103809 0 1.560575-.451696 1.9506948-1.357109l1.910877 1.0174805c-.9112311 1.6181081-2.277696 2.4278474-4.0992994 2.4278474-1.4053373 0-2.5310991-.4308351-3.3763574-1.292037-.846204-.8616789-1.2693666-2.0499494-1.2693666-3.56371 0-1.4876085.436713-2.6685755 1.3082302-3.543326.8714132-.8748027 1.9584242-1.3119958 3.2598706-1.3119958 1.9263357 0 3.304451.7588666 4.1391173 2.2750558l-2.0690816 1.058725zm8.990593 0c-.3910742-.851513-.9647033-1.2775341-1.7197338-1.2775341-1.4061787 0-2.1098536.9281734-2.1098536 2.7835662 0 1.8558177.7036749 2.783037 2.1098536 2.783037.9122894 0 1.550833-.451696 1.914798-1.357109l1.953549 1.0174805c-.9093227 1.6181081-2.273775 2.4278474-4.0925243 2.4278474-1.4033247 0-2.5261284-.4308351-3.3714821-1.292037-.8433499-.8616789-1.2665039-2.0499494-1.2665039-3.56371 0-1.4876085.4289836-2.6685755 1.286942-3.543326.8569-.8748027 1.947728-1.3119958 3.2734295-1.3119958 1.9225274 0 3.2996885.7588666 4.1304336 2.2750558l-2.108908 1.058725z"/><g transform="matrix(.99378 0 0 .99367 -437.12334 -74.436914)"><circle cx="491.94629" cy="90.231934" r="10.80615" style="fill:#fff"/><path d="M495.07373 87.10498c0-.4165-.33789-.75391-.75391-.75391h-4.77246c-.41602 0-.75391.3374-.75391.75391v4.77295h1.33105v5.65186h3.61719v-5.65186h1.33203v-4.77295h.00001z"/><circle cx="491.93359" cy="84.090332" r="1.63232"/><path clip-rule="evenodd" d="M491.91846 78.3252c-3.23145 0-5.96777 1.12793-8.20703 3.38379-2.29785 2.3335-3.44629 5.0957-3.44629 8.28467 0 3.18897 1.14844 5.93164 3.44629 8.22705 2.29785 2.29395 5.03418 3.44189 8.20703 3.44189 3.21289 0 5.99805-1.15674 8.35449-3.47168 2.21973-2.19727 3.3291-4.92969 3.3291-8.19727 0-3.26758-1.12891-6.02881-3.3877-8.28467-2.25879-2.25586-5.02343-3.38378-8.29589-3.38378zm.03027 2.0996c2.64844 0 4.89648.93408 6.74609 2.80127 1.87012 1.84717 2.80469 4.10352 2.80469 6.76758 0 2.68359-.91504 4.91064-2.74609 6.68066-1.92773 1.90576-4.19629 2.8584-6.80469 2.8584-2.61035 0-4.85938-.94287-6.74805-2.82959-1.88867-1.88623-2.83301-4.12256-2.83301-6.70947 0-2.58691.9541-4.84229 2.8623-6.76758 1.83107-1.86718 4.07032-2.80127 6.71876-2.80127z" style="fill-rule:evenodd"/></g><path d="M488.56299 107.86719c.31738 0 .60742.02832.86914.08398.26172.05566.48633.14746.67383.27539.18652.12695.33105.29688.43457.50781.10254.21191.1543.47266.1543.78418 0 .33594-.07617.61523-.22949.83887-.15234.22461-.37891.40723-.67773.55078.41211.11816.71973.3252.92285.62109.20312.29589.30469.65234.30469 1.06934 0 .33594-.06543.62695-.19629.87305-.13086.24512-.30762.44629-.5293.60156-.2207.15625-.47363.27148-.75684.3457-.28418.0752-.5752.1123-.875.1123h-3.23633v-6.66406h3.1416v.00001zm-.1875 2.69531c.26172 0 .47656-.0625.64453-.18652.16895-.12402.25293-.3252.25293-.60449 0-.15527-.02832-.2832-.08398-.38184-.05664-.09961-.13086-.17676-.22461-.2334-.09375-.05566-.20117-.09473-.32227-.11621-.12207-.02148-.24805-.03223-.37891-.03223h-1.37305v1.55469h1.48536zm.08594 2.82812c.14355 0 .28027-.01367.41113-.04199.13086-.02832.24609-.0752.34668-.13965.09961-.06543.17871-.1543.23828-.2666.05859-.11133.08887-.25488.08887-.42871 0-.3418-.09668-.58594-.29004-.73242-.19336-.14551-.44922-.21875-.7666-.21875h-1.59961v1.82812h1.57129zM491.27393 107.86719h1.64258l1.56055 2.63184 1.55176-2.63184h1.63379l-2.47461 4.10645v2.55762h-1.46875v-2.59473l-2.44532-4.06934zM538.91553 112.88379c.08105.15527.1875.28125.32129.37793.13379.09668.29004.16797.4707.21484.17969.04688.36523.07031.55859.07031.12988 0 .26953-.01074.41895-.0332.14844-.02148.28809-.06348.41895-.12598.12988-.06152.23828-.14746.32617-.25684.08594-.1084.12988-.24707.12988-.41504 0-.18066-.05762-.32617-.17285-.43848-.11426-.1123-.26562-.20508-.45117-.28027-.18652-.07422-.39844-.13965-.63379-.19629-.23633-.05566-.47559-.11816-.71777-.18652-.24902-.0625-.49121-.13867-.72754-.22852-.23535-.08984-.44727-.20703-.63379-.35059-.18555-.14258-.33691-.32129-.45117-.53613-.11523-.21484-.17285-.47461-.17285-.7793 0-.34277.07324-.63965.21875-.8916.14648-.25195.33789-.46191.57324-.63086.23633-.16797.50391-.29199.80273-.37305.29785-.08105.59668-.12109.89453-.12109.34863 0 .68262.03906 1.00293.11719.31934.07715.60449.2041.85254.37793.24902.1748.44629.39746.59277.66797.14551.27148.21875.59961.21875.98535h-1.42188c-.0127-.19922-.05371-.36426-.125-.49414-.07129-.13086-.16602-.2334-.28418-.30859-.11719-.07422-.25195-.12793-.40332-.1582-.15137-.03125-.31738-.04688-.49707-.04688-.11719 0-.23535.0127-.35254.03711-.11816.02539-.22461.06836-.32031.13086-.09668.0625-.1748.13965-.2373.2334-.06152.09375-.09277.21191-.09277.35449 0 .13086.02441.2373.07422.31738.0498.08105.14746.15625.29395.22461.14649.06836.34766.13672.60547.20508.25781.06836.5957.15625 1.01172.26172.12402.02441.29688.07031.5166.13574.2207.06543.44043.16895.65723.3125.21777.14355.40527.33496.56445.57422.1582.23926.2373.5459.2373.91992 0 .30469-.05957.58789-.17773.84961-.11816.26172-.29395.4873-.52734.67676-.2334.19043-.52246.33789-.86816.44336-.34473.10645-.74414.15918-1.19922.15918-.36719 0-.72266-.0459-1.06836-.13574-.3457-.09082-.65039-.23242-.91406-.42578-.26465-.19336-.47461-.44043-.63086-.73926-.15527-.29883-.23047-.65332-.22363-1.06445h1.42188c-.00003.22364.04001.41407.12107.56934zM547.17236 107.86719l2.49219 6.66406h-1.52148l-.50391-1.48438h-2.49219l-.52344 1.48438h-1.47461l2.52051-6.66406h1.50293zm.08399 4.08593-.83984-2.44336h-.01953l-.86719 2.44336h1.72656z" style="fill:#fff" transform="matrix(.99378 0 0 .99367 -437.12334 -74.436914)"/><g><path d="m512.83057 107.86719 2.78418 4.4707h.01562v-4.4707h1.375v6.66406h-1.46582l-2.77344-4.46191h-.01855v4.46191h-1.375v-6.66406h1.45801zM522.56885 109.64258c-.08691-.14062-.19629-.26367-.32715-.36914-.13086-.10547-.27832-.18848-.44336-.24707-.16504-.05957-.33789-.08887-.51758-.08887-.33008 0-.61035.06348-.84082.19141-.23047.12695-.41699.29785-.55957.5127-.14355.21484-.24805.45898-.31348.73242-.06543.27344-.09766.55664-.09766.84863 0 .28027.03223.55273.09766.81641.06543.26465.16992.50293.31348.71387.14258.21191.3291.38086.55957.50879s.51074.19141.84082.19141c.44727 0 .79785-.13672 1.0498-.41113.25195-.27344.40625-.63477.46191-1.08301h1.41895c-.03711.41699-.13379.79395-.28906 1.12988-.15527.33691-.36133.62305-.61621.86035-.25488.2373-.55371.41797-.89648.54297-.3418.125-.71875.1875-1.12891.1875-.51074 0-.96973-.08887-1.37793-.2666-.40723-.17676-.75195-.42188-1.03223-.73242-.28027-.31152-.49609-.67773-.64551-1.09766-.14941-.4209-.22461-.87305-.22461-1.35938 0-.49805.0752-.95996.22461-1.38672.14941-.42676.36523-.79883.64551-1.11621.28028-.31738.625-.56641 1.03223-.74707.4082-.18066.86719-.27051 1.37793-.27051.36719 0 .71387.05273 1.04004.15918.32715.10547.62012.25977.87793.46289.25879.20215.47168.45312.63965.75195.16797.29883.27344.6416.31738 1.02734h-1.41895c-.02538-.16797-.08105-.32226-.16796-.46191z" style="fill:#fff" transform="matrix(.99378 0 0 .99367 -437.12334 -74.436914)"/></g><g><path d="M644.57642-363.11569c.00781 9.4118-7.61731 17.04779-17.02979 17.05481-9.4126.00549-17.047-7.61725-17.05493-17.03137v-.02344c-.00623-9.4118 7.6189-17.04779 17.02991-17.05481 9.4126-.00702 17.047 7.61804 17.05481 17.02905v.02576z" style="fill:#fff" transform="matrix(.6211 0 0 .62104 -285.771816 240.4895746)"/><path d="M103.9189153 3.3856522c-3.2122962 0-5.9316127 1.1212726-8.155987 3.3618865-2.2835098 2.3192311-3.4257958 5.063942-3.4257958 8.2331948 0 3.1692527 1.142286 5.8936121 3.4257959 8.1744817 2.282603 2.2804163 5.0019196 3.4205995 8.155987 3.4205995 3.192961 0 5.9598172-1.150387 8.301556-3.4492231 2.205952-2.184323 3.3094188-4.8994724 3.3094188-8.1458644 0-3.2464292-1.1218888-5.99114-3.3676477-8.2331947-2.2446907-2.2406077-4.9921434-3.3618803-8.2433272-3.3618803zm.0291113 2.0872856c2.6319764 0 4.8660523.9271982 6.7051159 2.7830724 1.8575602 1.8354422 2.7862658 4.076056 2.7862658 6.7247233 0 2.6665904-.909296 4.8790774-2.7290245 6.6388646-1.914727 1.8932111-4.1701876 2.8398167-6.7623572 2.8398167-2.593157 0-4.828146-.9373956-6.7051158-2.8116899-1.8768953-1.8747538-2.8153833-4.0964509-2.8153833-6.6669914 0-2.5705406.9472021-4.8120985 2.8444946-6.7247233 1.8187472-1.8558742 4.0440282-2.7830724 6.6760045-2.7830724z"/><path d="M98.7792277 13.3446695c.4619615-2.9179433 2.5155186-4.4773214 5.0902474-4.4773214 3.7014002 0 5.9577676 2.685998 5.9577676 6.2676575 0 3.4953105-2.4009552 6.2094786-6.0160772 6.2094786-2.487314 0-4.7145702-1.5298166-5.1192904-4.534103h2.9211456c.0873402 1.5594216 1.0996034 2.1086246 2.5456175 2.1086246 1.6479238 0 2.7183352-1.5307606 2.7183352-3.8703494 0-2.4560273-.9248361-3.7548859-2.6610877-3.7548859-1.272315 0-2.3709309.4623694-2.6028588 2.050899l.8491727-.0058377-2.2990562 2.2998237-2.2991308-2.2998237.9152151.0058377z"/></g><g><path d="M536.23669-66.41458c.00427 5.22845-4.23126 9.46783-9.45801 9.4725-5.2276.00342-9.46912-4.23129-9.47253-9.45886v-.01364c-.00421-5.2276 4.23132-9.46783 9.45807-9.4725 5.2276-.00342 9.46912 4.23172 9.47247 9.45889v.01361z" style="fill:#fff" transform="matrix(1.13969 0 0 1.13956 -522.5135975 90.664271)"/><path d="M77.827335 3.3856612c3.2511471 0 5.9986084 1.1212722 8.2433412 3.3618907 2.245713 2.2420543 3.3675893 4.9867696 3.3675893 8.2331656 0 3.2463961-1.1034475 5.961517-3.3083938 8.1458752-2.3427461 2.2997846-5.1096163 3.4491812-8.3025368 3.4491812-3.154114 0-5.8733908-1.140189-8.1559727-3.4205668-2.2835506-2.279432-3.425816-5.0052304-3.425816-8.174501 0-3.1692705 1.1422654-5.9139857 3.425816-8.2331656 2.225324-2.2406071 4.9436434-3.3618793 8.1559727-3.3618793zm-8.9721387 8.4801544c-.3464885.9781317-.5192085 2.0164552-.5192085 3.1149133 0 2.570556.9384547 4.7922236 2.8153527 6.666997 1.876898 1.8742835 4.1119662 2.8116987 6.7051363 2.8116987 2.5931018 0 4.8475789-.9466228 6.7632947-2.840803.640517-.61958 1.1694584-1.2954657 1.5838381-2.0281016l-4.371086-1.9465545c-.2959774 1.4710836-1.6070764 2.4637903-3.1918833 2.5807094v1.7879389h-1.3315337v-1.7879389c-1.3004429-.0150194-2.5581816-.5472861-3.5199316-1.388602l1.5974005-1.6098823c.7695527.7234282 1.538205 1.0485111 2.5883037 1.0485111.6812837 0 1.4353252-.2659054 1.4353252-1.1528152 0-.3134366-.1222888-.5322553-.3134375-.6962611l-1.1053964-.4924732-1.3770985-.6127995c-.6812837-.3032147-1.257807-.5594225-1.836211-.8175333l-5.9228647-2.6370038zm9.0012805-6.3928526c-2.631988 0-4.8563431.927182-6.6759945 2.7830387-.4950014.4992536-.925861 1.0213212-1.291747 1.5662028l4.433199 1.9732659c.4008062-1.2294622 1.5692958-1.9756931 2.987161-2.058676V7.9488897h1.3315336v1.7879047c.9170969.044648 1.9225311.2959898 2.9143347 1.063542l-1.5236626 1.5657128c-.5628927-.398334-1.2722697-.6792589-1.9827067-.6792589-.576455 0-1.3897604.176598-1.3897604.9000148 0 .1111073.0369373.2086197.10386.2945199l1.4829072.660342 1.0034853.4473352c.6424659.2862808 1.2548781.5579524 1.8623555.8286896l5.9423307 2.6452884c.1960266-.778264.2940399-1.605985.2940399-2.4822513 0-2.6486615-.9287103-4.8892572-2.785299-6.7247272-1.8390489-1.8558681-4.0741171-2.7830387-6.7060367-2.7830387z"/></g></svg>
