<svg xmlns="http://www.w3.org/2000/svg" width="120" height="42" version="1.0"><path d="M3.4083297.4526846L116.7624261.654042c1.5838382 0 2.9988131-.234834 2.9988131 3.1605251l-.1387815 37.3290766H.5473342V3.675801c0-1.6743929.1620658-3.2231164 2.8609955-3.2231164z" style="fill:#aab2ab"/><path d="M117.7532952-.0000014H2.2476335c-1.2393142 0-2.247654 1.0082268-2.247654 2.2469155v39.246064c0 .2799564.2270989.5070199.5075637.5070199h118.9848684c.2804747 0 .5075636-.2270734.5075636-.50702V2.246914c0-1.2386886-1.0083397-2.2469154-2.24668-2.2469154zM2.2476335 1.015022h115.5056716c.6793386 0 1.2315528.5526294 1.2315528 1.231902v27.2206247h-82.556591c-3.025983 5.4710057-8.8566837 9.1856209-15.5472335 9.1856209-6.6924975 0-12.5212505-3.7112168-15.5452956-9.1856209h-4.320621V2.246924c-.00001-.6792725.5531681-1.2319019 1.2325167-1.2319019z"/><path d="M34.5221996 19.5512519c.0048146 7.5296743-6.0966392 13.6367514-13.6266791 13.6415915-7.5299878.0048747-13.6382775-6.095931-13.6430921-13.6251284v-.0164631c-.0048753-7.5296744 6.0965872-13.6367515 13.626627-13.6416176 7.5309942-.004337 13.6392318 6.095905 13.6431442 13.6251024v.0165152z" style="fill:#fff"/><path d="M31.971738 8.4466868c3.0230887 3.0232274 4.535058 6.7252262 4.535058 11.1045564 0 4.3798073-1.4858144 8.042513-4.4574434 10.9881086-3.15408 3.101822-6.8807394 4.6524816-11.1819822 4.6524816-4.248829 0-7.9114155-1.5375792-10.9858683-4.6141514-3.0764654-3.075141-4.6137396-6.75045-4.6137396-11.0264388 0-4.2750346 1.5372742-7.9765476 4.6137396-11.1045564 2.9968296-3.0241815 6.6594248-4.5360338 10.9858683-4.5360338 4.3798203 0 8.0803248 1.5118523 11.1043677 4.5360338zm-20.0551428 2.0339113c-2.5563084 2.5816973-3.8344626 5.6058789-3.8344626 9.074505s1.2655495 6.4671328 3.7946448 8.995945c2.530995 2.5297577 5.5424419 3.7946452 9.037186 3.7946452 3.494744 0 6.5323458-1.2775081 9.1148092-3.8329754 2.451472-2.3735832 3.6772037-5.3584804 3.6772037-8.9576148 0-3.5714905-1.2460657-6.6034092-3.7373556-9.0939346-2.4902316-2.489953-5.508445-3.7354542-9.0546573-3.7354542-3.5462124 0-6.5469545 1.2518072-8.9973682 3.7548838zm6.726456 7.549104c-.39012-.851513-.9743412-1.2775341-1.754685-1.2775341-1.3781154 0-2.067173.9281734-2.067173 2.7835662 0 1.8558177.6890576 2.783037 2.067173 2.783037.9103809 0 1.560575-.451696 1.9506948-1.357109l1.910877 1.0174805c-.9112311 1.6181081-2.277696 2.4278474-4.0992994 2.4278474-1.4053373 0-2.5310991-.4308351-3.3763574-1.292037-.846204-.8616789-1.2693666-2.0499494-1.2693666-3.56371 0-1.4876085.436713-2.6685755 1.3082302-3.543326.8714132-.8748027 1.9584242-1.3119958 3.2598706-1.3119958 1.9263357 0 3.304451.7588666 4.1391173 2.2750558l-2.0690816 1.058725zm8.990593 0c-.3910742-.851513-.9647033-1.2775341-1.7197338-1.2775341-1.4061787 0-2.1098536.9281734-2.1098536 2.7835662 0 1.8558177.7036749 2.783037 2.1098536 2.783037.9122894 0 1.550833-.451696 1.914798-1.357109l1.953549 1.0174805c-.9093227 1.6181081-2.273775 2.4278474-4.0925243 2.4278474-1.4033247 0-2.5261284-.4308351-3.3714821-1.292037-.8433499-.8616789-1.2665039-2.0499494-1.2665039-3.56371 0-1.4876085.4289836-2.6685755 1.286942-3.543326.8569-.8748027 1.947728-1.3119958 3.2734295-1.3119958 1.9225274 0 3.2996885.7588666 4.1304336 2.2750558l-2.108908 1.058725z"/><g transform="matrix(.99378 0 0 .99367 -437.12334 -74.436914)"><circle cx="491.94629" cy="90.231934" r="10.80615" style="fill:#fff"/><path d="M495.07373 87.10498c0-.4165-.33789-.75391-.75391-.75391h-4.77246c-.41602 0-.75391.3374-.75391.75391v4.77295h1.33105v5.65186h3.61719v-5.65186h1.33203v-4.77295h.00001z"/><circle cx="491.93359" cy="84.090332" r="1.63232"/><path clip-rule="evenodd" d="M491.91846 78.3252c-3.23145 0-5.96777 1.12793-8.20703 3.38379-2.29785 2.3335-3.44629 5.0957-3.44629 8.28467 0 3.18897 1.14844 5.93164 3.44629 8.22705 2.29785 2.29395 5.03418 3.44189 8.20703 3.44189 3.21289 0 5.99805-1.15674 8.35449-3.47168 2.21973-2.19727 3.3291-4.92969 3.3291-8.19727 0-3.26758-1.12891-6.02881-3.3877-8.28467-2.25879-2.25586-5.02343-3.38378-8.29589-3.38378zm.03027 2.0996c2.64844 0 4.89648.93408 6.74609 2.80127 1.87012 1.84717 2.80469 4.10352 2.80469 6.76758 0 2.68359-.91504 4.91064-2.74609 6.68066-1.92773 1.90576-4.19629 2.8584-6.80469 2.8584-2.61035 0-4.85938-.94287-6.74805-2.82959-1.88867-1.88623-2.83301-4.12256-2.83301-6.70947 0-2.58691.9541-4.84229 2.8623-6.76758 1.83107-1.86718 4.07032-2.80127 6.71876-2.80127z" style="fill-rule:evenodd"/></g><path d="M48.401179 32.7474335c.3154062 0 .6036424.0281408.8637347.0834484.2600923.0553077.4833054.1465265.6696393.2736467.18536.1261463.3289911.2950006.4318673.5045953.1019023.2105686.1533404.469668.1533404.7792159 0 .3338133-.0756963.6113353-.2280627.8335596-.1513926.2231881-.3765535.404652-.6735151.5472933.409547.117412.7152539.3231414.9171106.6171583.2018568.2940169.302795.6482104.302795 1.0625706 0 .3338134-.065023.6229812-.1950692.8675233-.1300461.2435683-.3057068.4434648-.5260081.5977519-.2193275.1552608-.4706844.2697614-.752133.3435115-.2824127.074724-.5716228.1115891-.8695583.1115891h-3.2162026v-6.6218738h3.1220618v.00001zm-.1863338 2.6782477c.2600923 0 .4735961-.0621044.6405215-.1853393.1678993-.123235.251357-.3231414.251357-.6006633 0-.1542871-.0281439-.2814073-.0834577-.3794228-.0562878-.0989795-.1300462-.175641-.2232131-.2319225-.093167-.0553077-.199919-.0941303-.3202658-.1154744-.1213108-.021344-.2465073-.032026-.3765535-.032026H46.738723v1.5448482h1.4761223zm.0854055 2.8102168c.1426572 0 .278527-.0135834.408573-.0417242.1300462-.0281407.2445596-.074724.344524-.138766.0989905-.0650157.1775986-.1533231.236798-.2649122.0582257-.1106253.0883174-.2532665.0883174-.4259961 0-.3396363-.0960787-.5822308-.2882362-.7277835-.1921574-.1445889-.4464262-.2173652-.7618324-.2173652h-1.5896617v1.8165472h1.5615179zM51.0952592 32.7474335h1.6323644l1.5508447 2.6151794 1.5421093-2.6151794h1.6236291l-2.45922 4.0804546v2.5414292h-1.4596155V36.791013l-2.430112-4.0435795zM98.4405665 37.7322765c.080546.154287.186334.2794695.3192919.3755375.1329579.096068.2882362.1669067.4677726.21348.1785725.0465832.3629586.0698649.555116.0698649.1290723 0 .2678537-.010672.4163445-.0329898.1475168-.021344.2862983-.0630782.4163444-.1251825.1290723-.0611306.2367981-.1465266.3241415-.2552141.0854055-.1077138.1290723-.245506.1290723-.4124127 0-.1795163-.0572617-.3241052-.171775-.4357042-.1135494-.1115891-.263968-.2037818-.4483641-.2784958-.18536-.0737501-.395962-.138766-.6298484-.1950474-.2348602-.0553076-.4726322-.117412-.713306-.1853392-.2474713-.0621044-.488155-.1377922-.7230153-.2270734-.2338863-.0892713-.4444883-.2057194-.6298483-.3483707-.184396-.1416774-.3348147-.319256-.4483641-.532736-.1145134-.21348-.171775-.4716056-.171775-.7743668 0-.3406.0727845-.6356007.2173895-.8859558.145569-.250355.3357886-.4589859.569675-.6268664.2348602-.1669067.500776-.2901416.7977376-.3706884.2959976-.080537.5929691-.1203235.8889667-.1203235.3464618 0 .6783747.0388128.9966926.1164482.317354.0766616.6007306.202808.847238.3755375.2474712.1736935.4435143.394944.5890834.6637415.144605.2697614.2173895.5958142.2173895.9791123h-1.413037c-.012621-.1979588-.053376-.361954-.1242226-.4910118-.0708467-.1300317-.1649875-.2319225-.2824127-.3066366-.1164611-.0737501-.250383-.1271201-.4008116-.1571985-.1504286-.0310522-.3154062-.0465832-.4939787-.0465832-.1164611 0-.2338863.0126196-.3503474.036875-.1174252.0252293-.2232132.0679273-.318318.1300317-.0960787.0621043-.1737129.138766-.2358242.2319225-.0611374.0931565-.092193.2105685-.092193.3522459 0 .1300316.0242582.2357978.0737584.3153708.0494903.080537.146543.155261.2921219.2231882.145579.0679272.3454978.1358545.6017044.2037817.2562067.0679273.5919953.155261 1.005428.2600632.1232486.0242555.2950336.069865.5133871.1348808.2193274.0650158.4376909.1678804.6531426.3105217.2164156.1426413.4027495.3328396.5609395.570585.1572162.2377454.2358242.5424442.2358242.9140965 0 .3027612-.0591995.5841684-.1766246.8442316-.1174252.2600632-.292122.4842152-.5240604.6724759-.2319484.1892245-.5192107.335751-.8627607.4405533-.3425861.1057762-.739512.1581724-1.1917619.1581724-.3649063 0-.7181656-.0456095-1.0617156-.1348808-.34355-.090245-.6463451-.2309486-.9083753-.4230846-.263004-.192136-.4716583-.4376419-.6269365-.7345802-.1543044-.2969383-.2290367-.6491842-.2222392-1.0577116h1.413037c-.0000298.2222243.0397612.4114488.120317.5657359zM106.6460457 32.7474335l2.4766905 6.6218739h-1.5120176l-.500776-1.4749833h-2.4766906l-.5201847 1.4749833h-1.465439l2.5048344-6.6218739h1.493583zm.0834676 4.0600645l-.8346169-2.4278926h-.0194085l-.8617968 2.4278926h1.7158222z" style="fill:#fff"/><g><path d="M72.5178341 32.7474335l2.7668646 4.4423987h.0155229v-4.4423987h1.3664486v6.6218739h-1.4567038L72.453775 34.935643h-.0184346v4.4336643h-1.3664486v-6.6218739h1.4489423zM82.1955498 34.5115846c-.0863695-.1397298-.1950692-.2620009-.3251154-.3668032-.1300461-.1048023-.276589-.1872868-.4406026-.245506-.1640136-.0591928-.3357886-.0883074-.5143611-.0883074-.3280272 0-.6065541.0630782-.8355908.1901983-.2290366.1261464-.4143966.2959645-.5560899.5094545-.1426572.21348-.2465073.4560744-.3115304.7277834-.065023.271709-.0970526.5531163-.0970526.8432579 0 .2784958.0320295.549231.0970526.8112418.065023.2629746.1688632.4997462.3115304.7093509.1416933.2105685.3270533.378449.55609.5055691.2290366.1271202.5075635.1901983.8355907.1901983.4444883 0 .792888-.1358545 1.043271-.4085273.2503832-.271709.4037235-.6307517.4590374-1.0761542h1.4101252c-.0368792.4143503-.1329579.788924-.2872622 1.1227275-.1543044.3347772-.3590829.6191058-.6123777.8549036-.2532949.2357978-.5502664.415324-.8909046.5395328-.3396743.1242087-.71428.186313-1.1218891.186313-.5075636 0-.963699-.0883074-1.3693604-.2649123-.4046973-.175641-.7472735-.4192093-1.0258103-.7277835-.278527-.309548-.4930048-.6734397-.6414955-1.0907113-.1484808-.4182356-.223213-.8675233-.223213-1.3507746 0-.4948972.0747322-.9538831.223213-1.3779415.1484808-.4240585.3629586-.7937731.6414955-1.109144.2785368-.3153708.621113-.5628244 1.0258103-.7423407.4056613-.1795164.8617968-.2687976 1.3693604-.2687976.3649064 0 .7094303.0523962 1.0335718.1581723.3251154.1048024.6162633.2581256.87247.4599598.2571805.2008703.4687465.4502515.6356718.7471898.1669254.2969383.2717395.6375384.3154062 1.0208365h-1.4101253c-.0252221-.1669066-.0805459-.32022-.1669154-.4589859z" style="fill:#fff"/></g><g><path d="M114.579775 14.9807397c.0048509 5.8450904-4.7311724 10.5873344-10.5773393 10.5916941-5.8462414.0034095-10.5880286-4.7306057-10.592954-10.577137v-.0145571c-.0038695-5.8450905 4.73216-10.5873345 10.5774139-10.5916942 5.8462414-.0043597 10.5880286 4.7310964 10.5928794 10.5756962v.015998z" style="fill:#fff"/><path d="M103.9189153 3.3856522c-3.2122962 0-5.9316127 1.1212726-8.155987 3.3618865-2.2835098 2.3192311-3.4257958 5.063942-3.4257958 8.2331948 0 3.1692527 1.142286 5.8936121 3.4257959 8.1744817 2.282603 2.2804163 5.0019196 3.4205995 8.155987 3.4205995 3.192961 0 5.9598172-1.150387 8.301556-3.4492231 2.205952-2.184323 3.3094188-4.8994724 3.3094188-8.1458644 0-3.2464292-1.1218888-5.99114-3.3676477-8.2331947-2.2446907-2.2406077-4.9921434-3.3618803-8.2433272-3.3618803zm.0291113 2.0872856c2.6319764 0 4.8660523.9271982 6.7051159 2.7830724 1.8575602 1.8354422 2.7862658 4.076056 2.7862658 6.7247233 0 2.6665904-.909296 4.8790774-2.7290245 6.6388646-1.914727 1.8932111-4.1701876 2.8398167-6.7623572 2.8398167-2.593157 0-4.828146-.9373956-6.7051158-2.8116899-1.8768953-1.8747538-2.8153833-4.0964509-2.8153833-6.6669914 0-2.5705406.9472021-4.8120985 2.8444946-6.7247233 1.8187472-1.8558742 4.0440282-2.7830724 6.6760045-2.7830724z"/><path d="M98.7792277 13.3446695c.4619615-2.9179433 2.5155186-4.4773214 5.0902474-4.4773214 3.7014002 0 5.9577676 2.685998 5.9577676 6.2676575 0 3.4953105-2.4009552 6.2094786-6.0160772 6.2094786-2.487314 0-4.7145702-1.5298166-5.1192904-4.534103h2.9211456c.0873402 1.5594216 1.0996034 2.1086246 2.5456175 2.1086246 1.6479238 0 2.7183352-1.5307606 2.7183352-3.8703494 0-2.4560273-.9248361-3.7548859-2.6610877-3.7548859-1.272315 0-2.3709309.4623694-2.6028588 2.050899l.8491727-.0058377-2.2990562 2.2998237-2.2991308-2.2998237.9152151.0058377z"/></g><g><path d="M88.6298266 14.980729c.0048665 5.9581437-4.8223233 10.7891807-10.7791964 10.7945025-5.9578418.0038973-10.7918584-4.821818-10.7957447-10.778959v-.0155436c-.0047981-5.9571751 4.8223917-10.7891807 10.7792648-10.7945025 5.9578418-.0038973 10.7918584 4.822308 10.7956763 10.7789931v.0155094z" style="fill:#fff"/><path d="M77.827335 3.3856612c3.2511471 0 5.9986084 1.1212722 8.2433412 3.3618907 2.245713 2.2420543 3.3675893 4.9867696 3.3675893 8.2331656 0 3.2463961-1.1034475 5.961517-3.3083938 8.1458752-2.3427461 2.2997846-5.1096163 3.4491812-8.3025368 3.4491812-3.154114 0-5.8733908-1.140189-8.1559727-3.4205668-2.2835506-2.279432-3.425816-5.0052304-3.425816-8.174501 0-3.1692705 1.1422654-5.9139857 3.425816-8.2331656 2.225324-2.2406071 4.9436434-3.3618793 8.1559727-3.3618793zm-8.9721387 8.4801544c-.3464885.9781317-.5192085 2.0164552-.5192085 3.1149133 0 2.570556.9384547 4.7922236 2.8153527 6.666997 1.876898 1.8742835 4.1119662 2.8116987 6.7051363 2.8116987 2.5931018 0 4.8475789-.9466228 6.7632947-2.840803.640517-.61958 1.1694584-1.2954657 1.5838381-2.0281016l-4.371086-1.9465545c-.2959774 1.4710836-1.6070764 2.4637903-3.1918833 2.5807094v1.7879389h-1.3315337v-1.7879389c-1.3004429-.0150194-2.5581816-.5472861-3.5199316-1.388602l1.5974005-1.6098823c.7695527.7234282 1.538205 1.0485111 2.5883037 1.0485111.6812837 0 1.4353252-.2659054 1.4353252-1.1528152 0-.3134366-.1222888-.5322553-.3134375-.6962611l-1.1053964-.4924732-1.3770985-.6127995c-.6812837-.3032147-1.257807-.5594225-1.836211-.8175333l-5.9228647-2.6370038zm9.0012805-6.3928526c-2.631988 0-4.8563431.927182-6.6759945 2.7830387-.4950014.4992536-.925861 1.0213212-1.291747 1.5662028l4.433199 1.9732659c.4008062-1.2294622 1.5692958-1.9756931 2.987161-2.058676V7.9488897h1.3315336v1.7879047c.9170969.044648 1.9225311.2959898 2.9143347 1.063542l-1.5236626 1.5657128c-.5628927-.398334-1.2722697-.6792589-1.9827067-.6792589-.576455 0-1.3897604.176598-1.3897604.9000148 0 .1111073.0369373.2086197.10386.2945199l1.4829072.660342 1.0034853.4473352c.6424659.2862808 1.2548781.5579524 1.8623555.8286896l5.9423307 2.6452884c.1960266-.778264.2940399-1.605985.2940399-2.4822513 0-2.6486615-.9287103-4.8892572-2.785299-6.7247272-1.8390489-1.8558681-4.0741171-2.7830387-6.7060367-2.7830387z"/></g></svg>
