<?xml version="1.0" encoding="utf-8"?>
<!-- Generator: Adobe Illustrator 19.1.0, SVG Export Plug-In . SVG Version: 6.00 Build 0)  -->
<svg version="1.1" id="Layer_1" xmlns="http://www.w3.org/2000/svg" xmlns:xlink="http://www.w3.org/1999/xlink" x="0px" y="0px"
	 viewBox="0 0 143 56" style="enable-background:new 0 0 143 56;" xml:space="preserve">
<style type="text/css">
	.st0{fill:#349334;}
	.st1{fill:url(#SVGID_1_);}
	.st2{fill:#FFFFFF;}
	.st3{fill:#118011;}
	.st4{fill:url(#SVGID_2_);}
	.st5{fill:#3CCE33;}
	.st6{fill:url(#SVGID_3_);}
	.st7{fill:#333333;}
	.st8{opacity:0.1;}
	.st9{fill:url(#SVGID_4_);}
</style>
<g>
	<g>
		<g>
			<g>
				<path class="st0" d="M89.5,10.8c2.2-1.1,4.9-1,7.1,0.4c3.3,2.2,4.2,6.6,2,9.8l-0.4,0.7l0.7,0.5c0.8,0.5,1,1.5,0.5,2.3l-3.6,5.4
					c-0.2,0.4-0.4,0.6-0.7,0.7c-0.3,0.1-0.6,0-0.9-0.2L93,29.6l-2.1,2.7c0,0,0,0,0,0c-0.1,0.1-0.2,0.2-0.4,0.3
					c-0.2,0.1-0.5,0.1-0.8-0.1l-0.2-0.1V10.8z"/>
				
					<radialGradient id="SVGID_1_" cx="113.9385" cy="-394.6157" r="10.0419" gradientTransform="matrix(-0.8325 -0.554 -0.554 0.8325 -33.1233 411.902)" gradientUnits="userSpaceOnUse">
					<stop  offset="0" style="stop-color:#23FF16"/>
					<stop  offset="0.3605" style="stop-color:#23FC16"/>
					<stop  offset="0.581" style="stop-color:#21F415"/>
					<stop  offset="0.7638" style="stop-color:#1FE613"/>
					<stop  offset="0.9251" style="stop-color:#1CD110"/>
					<stop  offset="1" style="stop-color:#1AC50F"/>
				</radialGradient>
				<path class="st1" d="M89.5,11c2.1-1.1,4.8-1.1,7,0.4c3.2,2.1,4,6.4,1.9,9.5l-0.6,0.8l0.9,0.6c0.7,0.4,0.8,1.3,0.4,2l-3.6,5.4
					c-0.2,0.4-0.4,0.6-0.6,0.6c-0.2,0.1-0.4,0-0.7-0.2l-1.3-0.9l-2.2,2.9l0,0c0,0,0,0,0,0c0,0.1-0.1,0.2-0.3,0.3
					c-0.2,0.1-0.3,0.1-0.6-0.1l-0.3-0.2V11z"/>
				<polygon class="st2" points="89.5,26.8 92.8,29 92.6,29.3 89.5,27.3 				"/>
				<polygon class="st3" points="92.9,29.2 97.6,22.3 97.4,22.1 92.7,29.1 92.9,29.2 				"/>
				
					<linearGradient id="SVGID_2_" gradientUnits="userSpaceOnUse" x1="112.5666" y1="-394.1043" x2="112.5666" y2="-395.7022" gradientTransform="matrix(-0.8325 -0.554 -0.554 0.8325 -33.1233 411.902)">
					<stop  offset="0" style="stop-color:#23FF16"/>
					<stop  offset="1" style="stop-color:#91FF8A"/>
				</linearGradient>
				<path class="st4" d="M89.5,18.1c0.6,0.3,1.2,0.7,1.9,1.1c2.2,1.5,3.8,3,3.5,3.4c-0.3,0.4-2.3-0.5-4.5-1.9
					c-0.3-0.2-0.6-0.4-0.9-0.6V18.1z"/>
				<path class="st2" d="M89.5,14.1c1.4-1.6,3.9-2,5.7-0.7c2,1.3,2.6,4,1.2,6.1l-0.7,1.1l-6.2-4.1V14.1z"/>
				<circle cx="95.1" cy="16.2" r="0.8"/>
				<circle cx="92.7" cy="14.6" r="0.8"/>
				<polygon class="st2" points="89.5,22.2 90.7,23 89.5,24.8 				"/>
				<path class="st2" d="M89.5,20.8c0.2,0,0.5,0.1,0.7,0.2c0.6,0.4,0.8,1.1,0.5,1.7l-0.3-0.2c0.1-0.5,0-1-0.4-1.2
					c-0.2-0.1-0.3-0.2-0.5-0.2V20.8z"/>
				<path class="st5" d="M93,29.6l1.2,0.8c0.2,0.1,0.3,0.2,0.5,0.2l-0.2,0.2c-0.1,0-0.2-0.1-0.3-0.1l-1.2-0.8l-0.9,1.2L92,30.9
					L93,29.6z"/>
				
					<linearGradient id="SVGID_3_" gradientUnits="userSpaceOnUse" x1="107.9767" y1="-389.6863" x2="105.2768" y2="-386.6913" gradientTransform="matrix(-0.8325 -0.554 -0.554 0.8325 -33.1233 411.902)">
					<stop  offset="0" style="stop-color:#23FF16"/>
					<stop  offset="1" style="stop-color:#189A33"/>
				</linearGradient>
				<path class="st6" d="M94.3,30.7c0.1,0.1,0.2,0.1,0.3,0.1l-0.1,0.1c-0.4,0.6-1.3,0.8-1.9,0.4l-0.4-0.2l0.9-1.2L94.3,30.7z"/>
				<path d="M94.4,18.1c-1.4,0-2.8-0.9-3.4-2.2c0.1-0.1,0.3-0.1,0.4-0.2c0.6,1.2,1.7,1.9,3,2C94.4,17.8,94.4,18,94.4,18.1z"/>
			</g>
		</g>
		<path class="st7" d="M49.3,35.6V3.9h16.9c7.4,0,11.4,4.9,11.4,10.9c0,5.9-4,10.8-11.4,10.8h-7.3v10H49.3z M67.8,14.8
			c0-1.7-1.3-2.5-2.9-2.5h-6.1v5h6.1C66.6,17.3,67.8,16.5,67.8,14.8z"/>
		<path class="st7" d="M81.5,35.6V3.9h9.6v31.7H81.5z"/>
		<path class="st7" d="M122.2,35.6l-1.1-3.7h-11.4l-1.1,3.7H97.6l11.7-31.7h12.1l11.7,31.7H122.2z M115.3,13.3l-3.1,10.2h6.3
			L115.3,13.3z"/>
	</g>
	<g>
		<g class="st8">
			<circle cx="21" cy="21.6" r="17.2"/>
		</g>
		<g>
			<linearGradient id="SVGID_4_" gradientUnits="userSpaceOnUse" x1="19.5942" y1="2.7389" x2="19.5942" y2="37.2364">
				<stop  offset="0" style="stop-color:#A0CE71"/>
				<stop  offset="0.1827" style="stop-color:#7DC142"/>
				<stop  offset="0.5169" style="stop-color:#45B549"/>
				<stop  offset="1" style="stop-color:#0E733A"/>
			</linearGradient>
			<circle class="st9" cx="19.6" cy="20" r="17.2"/>
			<path class="st2" d="M19.6,37.9c-2.4,0-4.8-0.5-7-1.4c-2.1-0.9-4-2.2-5.7-3.8C5.3,31,4,29.1,3.1,26.9c-0.9-2.2-1.4-4.5-1.4-7
				c0-2.4,0.5-4.8,1.4-7C4,10.9,5.3,9,7,7.4c1.6-1.6,3.6-2.9,5.7-3.8c2.2-0.9,4.5-1.4,7-1.4s4.8,0.5,7,1.4c2.1,0.9,4,2.2,5.7,3.8
				c1.6,1.6,2.9,3.6,3.8,5.7c0.9,2.2,1.4,4.5,1.4,7c0,2.4-0.5,4.8-1.4,7c-0.9,2.1-2.2,4-3.8,5.7c-1.6,1.6-3.6,2.9-5.7,3.8
				C24.3,37.4,22,37.9,19.6,37.9z M19.6,3.4c-2.2,0-4.4,0.4-6.5,1.3c-2,0.8-3.8,2-5.3,3.6c-1.5,1.5-2.7,3.3-3.6,5.3
				C3.4,15.6,3,17.7,3,20s0.4,4.4,1.3,6.5c0.8,2,2,3.8,3.6,5.3c1.5,1.5,3.3,2.7,5.3,3.6c2.1,0.9,4.2,1.3,6.5,1.3s4.4-0.4,6.5-1.3
				c2-0.8,3.8-2,5.3-3.6c1.5-1.5,2.7-3.3,3.6-5.3c0.9-2.1,1.3-4.2,1.3-6.5s-0.4-4.4-1.3-6.5c-0.8-2-2-3.8-3.6-5.3
				c-1.5-1.5-3.3-2.7-5.3-3.6C24,3.8,21.8,3.4,19.6,3.4z"/>
		</g>
		<path class="st2" d="M26,16.9h-1.1v-1.7c0-2.9-2.4-5.2-5.3-5.2c-2.9,0-5.3,2.3-5.3,5.2v1.7h-1.2c-0.2,0-0.5,0.4-0.5,0.6v9.4
			c0,0.2,0.3,0.4,0.5,0.4H26c0.2,0,0.6-0.2,0.6-0.4v-9.4C26.6,17.3,26.2,16.9,26,16.9z M21.9,16.9h-4.5v-1.7c0-1.2,1-2.2,2.3-2.2
			c1.2,0,2.3,1,2.3,2.2V16.9z"/>
	</g>
	<g>
		<g>
			<path class="st7" d="M3.1,50.4v3.7H2.3v-9.4h0.7v1.1c0.5-0.7,1.4-1.2,2.4-1.2c1.8,0,3,1.4,3,3.6c0,2.2-1.2,3.6-3,3.6
				C4.5,51.7,3.6,51.2,3.1,50.4z M7.7,48.1c0-1.7-0.9-2.9-2.4-2.9c-0.9,0-1.8,0.6-2.2,1.2v3.4C3.5,50.4,4.4,51,5.3,51
				C6.8,51,7.7,49.7,7.7,48.1z"/>
			<path class="st7" d="M10.4,51.5v-6.8h0.7v1.2c0.6-0.8,1.4-1.3,2.3-1.3v0.8c-0.1,0-0.2,0-0.4,0c-0.7,0-1.6,0.6-1.9,1.2v5H10.4z"/>
			<path class="st7" d="M14.6,43c0-0.3,0.3-0.6,0.6-0.6c0.3,0,0.6,0.2,0.6,0.6s-0.3,0.6-0.6,0.6C14.9,43.6,14.6,43.3,14.6,43z
				 M14.8,51.5v-6.8h0.7v6.8H14.8z"/>
			<path class="st7" d="M19.7,51.5l-2.9-6.8h0.8l2.5,6l2.5-6h0.8l-2.9,6.8H19.7z"/>
			<path class="st7" d="M29,51.5v-0.8c-0.6,0.7-1.4,1-2.3,1c-1.2,0-2.4-0.8-2.4-2.3c0-1.5,1.2-2.3,2.4-2.3c0.9,0,1.7,0.3,2.3,1v-1.4
				c0-1-0.8-1.6-1.8-1.6c-0.9,0-1.5,0.3-2.1,1l-0.4-0.5c0.7-0.8,1.5-1.1,2.6-1.1c1.4,0,2.5,0.7,2.5,2.2v4.8H29z M29,50.2v-1.5
				c-0.5-0.6-1.2-0.9-2.1-0.9c-1.1,0-1.9,0.7-1.9,1.7c0,1,0.7,1.7,1.9,1.7C27.7,51.1,28.5,50.8,29,50.2z"/>
			<path class="st7" d="M32.1,50.2v-4.9H31v-0.6h1.1v-1.9h0.7v1.9h1.4v0.6h-1.4v4.7c0,0.6,0.2,0.9,0.7,0.9c0.3,0,0.6-0.2,0.8-0.3
				l0.3,0.6c-0.3,0.3-0.6,0.4-1.2,0.4C32.6,51.7,32.1,51.1,32.1,50.2z"/>
			<path class="st7" d="M35.5,48.1c0-2,1.4-3.6,3.3-3.6c2.1,0,3.2,1.6,3.2,3.6v0.2h-5.7c0.1,1.5,1.1,2.7,2.7,2.7
				c0.9,0,1.7-0.3,2.2-0.9l0.4,0.5c-0.7,0.7-1.5,1.1-2.7,1.1C36.9,51.7,35.5,50.2,35.5,48.1z M38.8,45.1c-1.6,0-2.4,1.4-2.5,2.6h5
				C41.2,46.6,40.5,45.1,38.8,45.1z"/>
			<path class="st7" d="M43.5,42.9c0-0.6,0.5-1.1,1.1-1.1c0.6,0,1.1,0.5,1.1,1.1c0,0.6-0.5,1.1-1.1,1.1
				C43.9,43.9,43.5,43.5,43.5,42.9z M43.6,51.5v-6.8h1.8v6.8H43.6z"/>
			<path class="st7" d="M51.8,51.5v-4.1c0-0.9-0.5-1.3-1.3-1.3c-0.7,0-1.2,0.4-1.6,0.8v4.6h-1.8v-6.8H49v0.9c0.4-0.5,1.3-1,2.4-1
				c1.5,0,2.2,0.8,2.2,2.2v4.8H51.8z"/>
			<path class="st7" d="M55.7,49.8v-3.5h-1.1v-1.6h1.1v-1.9h1.8v1.9h1.4v1.6h-1.4v3.1c0,0.4,0.2,0.8,0.6,0.8c0.3,0,0.5-0.1,0.6-0.2
				l0.4,1.4c-0.3,0.2-0.7,0.4-1.5,0.4C56.4,51.7,55.7,51,55.7,49.8z"/>
			<path class="st7" d="M59.7,48.1c0-2,1.5-3.6,3.5-3.6c2,0,3.4,1.5,3.4,3.7v0.4h-5.1c0.1,0.8,0.8,1.5,2,1.5c0.6,0,1.4-0.2,1.8-0.7
				l0.8,1.2c-0.7,0.6-1.8,0.9-2.8,0.9C61.3,51.7,59.7,50.3,59.7,48.1z M63.2,46c-1.1,0-1.6,0.8-1.7,1.5h3.4
				C64.9,46.8,64.4,46,63.2,46z"/>
			<path class="st7" d="M68,51.5v-6.8h1.8v0.9c0.5-0.6,1.3-1.1,2.2-1.1v1.8c-0.1,0-0.3,0-0.5,0c-0.6,0-1.4,0.3-1.7,0.8v4.5H68z"/>
			<path class="st7" d="M77.6,51.5v-4.1c0-0.9-0.5-1.3-1.3-1.3c-0.7,0-1.2,0.4-1.6,0.8v4.6H73v-6.8h1.8v0.9c0.4-0.5,1.3-1,2.4-1
				c1.5,0,2.2,0.8,2.2,2.2v4.8H77.6z"/>
			<path class="st7" d="M80.8,48.1c0-2,1.5-3.6,3.5-3.6c2,0,3.4,1.5,3.4,3.7v0.4h-5.1c0.1,0.8,0.8,1.5,2,1.5c0.6,0,1.4-0.2,1.8-0.7
				l0.8,1.2c-0.7,0.6-1.8,0.9-2.8,0.9C82.3,51.7,80.8,50.3,80.8,48.1z M84.3,46c-1.1,0-1.6,0.8-1.7,1.5H86
				C85.9,46.8,85.5,46,84.3,46z"/>
			<path class="st7" d="M89.4,49.8v-3.5h-1.1v-1.6h1.1v-1.9h1.8v1.9h1.4v1.6h-1.4v3.1c0,0.4,0.2,0.8,0.6,0.8c0.3,0,0.5-0.1,0.6-0.2
				l0.4,1.4c-0.3,0.2-0.7,0.4-1.5,0.4C90,51.7,89.4,51,89.4,49.8z"/>
			<path class="st7" d="M98.4,51.5v-0.8c-0.6,0.7-1.4,1-2.3,1c-1.2,0-2.4-0.8-2.4-2.3c0-1.5,1.2-2.3,2.4-2.3c0.9,0,1.7,0.3,2.3,1
				v-1.4c0-1-0.8-1.6-1.8-1.6c-0.9,0-1.5,0.3-2.1,1L94,45.6c0.7-0.8,1.5-1.1,2.6-1.1c1.4,0,2.5,0.7,2.5,2.2v4.8H98.4z M98.4,50.2
				v-1.5c-0.5-0.6-1.2-0.9-2.1-0.9c-1.1,0-1.9,0.7-1.9,1.7c0,1,0.7,1.7,1.9,1.7C97.1,51.1,97.9,50.8,98.4,50.2z"/>
			<path class="st7" d="M101,48.1c0-2,1.3-3.6,3.3-3.6c1.2,0,1.9,0.5,2.4,1.2l-0.5,0.5c-0.5-0.7-1.1-0.9-1.9-0.9
				c-1.6,0-2.6,1.3-2.6,2.9c0,1.6,1,2.9,2.6,2.9c0.7,0,1.4-0.3,1.9-1l0.5,0.5c-0.6,0.7-1.2,1.2-2.4,1.2
				C102.3,51.7,101,50.1,101,48.1z"/>
			<path class="st7" d="M108,48.1c0-2,1.3-3.6,3.3-3.6c1.2,0,1.9,0.5,2.4,1.2l-0.5,0.5c-0.5-0.7-1.1-0.9-1.9-0.9
				c-1.6,0-2.6,1.3-2.6,2.9c0,1.6,1,2.9,2.6,2.9c0.7,0,1.4-0.3,1.9-1l0.5,0.5c-0.6,0.7-1.2,1.2-2.4,1.2
				C109.3,51.7,108,50.1,108,48.1z"/>
			<path class="st7" d="M115,48.1c0-2,1.4-3.6,3.3-3.6c2.1,0,3.2,1.6,3.2,3.6v0.2h-5.7c0.1,1.5,1.1,2.7,2.7,2.7
				c0.9,0,1.7-0.3,2.2-0.9l0.4,0.5c-0.7,0.7-1.5,1.1-2.7,1.1C116.4,51.7,115,50.2,115,48.1z M118.2,45.1c-1.6,0-2.4,1.4-2.5,2.6h5
				C120.7,46.6,119.9,45.1,118.2,45.1z"/>
			<path class="st7" d="M122.8,50.6l0.4-0.5c0.4,0.6,1.2,1,2.2,1c1.1,0,1.8-0.6,1.8-1.4c0-1.9-4.3-0.8-4.3-3.3c0-1,0.9-1.9,2.4-1.9
				c1.2,0,1.9,0.5,2.4,1l-0.4,0.5c-0.4-0.5-1.1-0.9-2-0.9c-1.1,0-1.7,0.5-1.7,1.2c0,1.7,4.3,0.7,4.3,3.3c0,1.1-0.8,2-2.6,2
				C124.3,51.7,123.4,51.3,122.8,50.6z"/>
			<path class="st7" d="M129.2,50.6l0.4-0.5c0.4,0.6,1.2,1,2.2,1c1.1,0,1.8-0.6,1.8-1.4c0-1.9-4.3-0.8-4.3-3.3c0-1,0.9-1.9,2.4-1.9
				c1.2,0,1.9,0.5,2.4,1l-0.4,0.5c-0.4-0.5-1.1-0.9-2-0.9c-1.1,0-1.7,0.5-1.7,1.2c0,1.7,4.3,0.7,4.3,3.3c0,1.1-0.8,2-2.6,2
				C130.8,51.7,129.9,51.3,129.2,50.6z"/>
		</g>
		<g>
			<g>
				<path class="st7" d="M136.9,43.6v2.7h-0.4v-2.7h-0.9v-0.4h2.1v0.4H136.9z M140.9,46.3v-2.5l-1,2.5h-0.1l-1-2.5v2.5h-0.4v-3.1
					h0.6l0.9,2.2l0.9-2.2h0.6v3.1H140.9z"/>
			</g>
		</g>
	</g>
</g>
</svg>
