<svg xmlns="http://www.w3.org/2000/svg" width="120" height="42" version="1"><path d="M3.4083297.4526846L116.7624261.654042c1.5838382 0 2.9988131-.234834 2.9988131 3.1605251l-.1387815 37.3290766H.5473342V3.675801c0-1.6743929.1620658-3.2231164 2.8609955-3.2231164z" fill="#aab2ab"/><path d="M117.7532952-.0000014H2.2476335c-1.2393142 0-2.247654 1.0082268-2.247654 2.2469155v39.246064c0 .2799564.2270989.5070199.5075637.5070199h118.9848684c.2804747 0 .5075636-.2270734.5075636-.50702V2.246914c0-1.2386886-1.0083397-2.2469154-2.24668-2.2469154zM2.2476335 1.015022h115.5056716c.6793386 0 1.2315528.5526294 1.2315528 1.231902v27.2206247h-82.556591c-3.025983 5.4710057-8.8566837 9.1856209-15.5472335 9.1856209-6.6924975 0-12.5212505-3.7112168-15.5452956-9.1856209h-4.320621V2.246924c-.00001-.6792725.5531681-1.2319019 1.2325167-1.2319019z"/><path d="M34.5221996 19.5512519c.0048146 7.5296743-6.0966392 13.6367514-13.6266791 13.6415915-7.5299878.0048747-13.6382775-6.095931-13.6430921-13.6251284v-.0164631c-.0048753-7.5296744 6.0965872-13.6367515 13.626627-13.6416176 7.5309942-.004337 13.6392318 6.095905 13.6431442 13.6251024v.0165152z" fill="#fff"/><path d="M31.971738 8.4466868c3.0230887 3.0232274 4.535058 6.7252262 4.535058 11.1045564 0 4.3798073-1.4858144 8.042513-4.4574434 10.9881086-3.15408 3.101822-6.8807394 4.6524816-11.1819822 4.6524816-4.248829 0-7.9114155-1.5375792-10.9858683-4.6141514-3.0764654-3.075141-4.6137396-6.75045-4.6137396-11.0264388 0-4.2750346 1.5372742-7.9765476 4.6137396-11.1045564 2.9968296-3.0241815 6.6594248-4.5360338 10.9858683-4.5360338 4.3798203 0 8.0803248 1.5118523 11.1043677 4.5360338zm-20.0551428 2.0339113c-2.5563084 2.5816973-3.8344626 5.6058789-3.8344626 9.074505s1.2655495 6.4671328 3.7946448 8.995945c2.530995 2.5297577 5.5424419 3.7946452 9.037186 3.7946452 3.494744 0 6.5323458-1.2775081 9.1148092-3.8329754 2.451472-2.3735832 3.6772037-5.3584804 3.6772037-8.9576148 0-3.5714905-1.2460657-6.6034092-3.7373556-9.0939346-2.4902316-2.489953-5.508445-3.7354542-9.0546573-3.7354542-3.5462124 0-6.5469545 1.2518072-8.9973682 3.7548838zm6.726456 7.549104c-.39012-.851513-.9743412-1.2775341-1.754685-1.2775341-1.3781154 0-2.067173.9281734-2.067173 2.7835662 0 1.8558177.6890576 2.783037 2.067173 2.783037.9103809 0 1.560575-.451696 1.9506948-1.357109l1.910877 1.0174805c-.9112311 1.6181081-2.277696 2.4278474-4.0992994 2.4278474-1.4053373 0-2.5310991-.4308351-3.3763574-1.292037-.846204-.8616789-1.2693666-2.0499494-1.2693666-3.56371 0-1.4876085.436713-2.6685755 1.3082302-3.543326.8714132-.8748027 1.9584242-1.3119958 3.2598706-1.3119958 1.9263357 0 3.304451.7588666 4.1391173 2.2750558l-2.0690816 1.058725zm8.990593 0c-.3910742-.851513-.9647033-1.2775341-1.7197338-1.2775341-1.4061787 0-2.1098536.9281734-2.1098536 2.7835662 0 1.8558177.7036749 2.783037 2.1098536 2.783037.9122894 0 1.550833-.451696 1.914798-1.357109l1.953549 1.0174805c-.9093227 1.6181081-2.273775 2.4278474-4.0925243 2.4278474-1.4033247 0-2.5261284-.4308351-3.3714821-1.292037-.8433499-.8616789-1.2665039-2.0499494-1.2665039-3.56371 0-1.4876085.4289836-2.6685755 1.286942-3.543326.8569-.8748027 1.947728-1.3119958 3.2734295-1.3119958 1.9225274 0 3.2996885.7588666 4.1304336 2.2750558l-2.108908 1.058725z"/><g transform="matrix(.99378 0 0 .99367 -437.12334 -74.436914)"><circle cx="491.94629" cy="90.231934" r="10.80615" fill="#fff"/><path d="M495.07373 87.10498c0-.4165-.33789-.75391-.75391-.75391h-4.77246c-.41602 0-.75391.3374-.75391.75391v4.77295h1.33105v5.65186h3.61719v-5.65186h1.33203v-4.77295h.00001z"/><circle cx="491.93359" cy="84.090332" r="1.63232"/><path clip-rule="evenodd" d="M491.91846 78.3252c-3.23145 0-5.96777 1.12793-8.20703 3.38379-2.29785 2.3335-3.44629 5.0957-3.44629 8.28467 0 3.18897 1.14844 5.93164 3.44629 8.22705 2.29785 2.29395 5.03418 3.44189 8.20703 3.44189 3.21289 0 5.99805-1.15674 8.35449-3.47168 2.21973-2.19727 3.3291-4.92969 3.3291-8.19727 0-3.26758-1.12891-6.02881-3.3877-8.28467-2.25879-2.25586-5.02343-3.38378-8.29589-3.38378zm.03027 2.0996c2.64844 0 4.89648.93408 6.74609 2.80127 1.87012 1.84717 2.80469 4.10352 2.80469 6.76758 0 2.68359-.91504 4.91064-2.74609 6.68066-1.92773 1.90576-4.19629 2.8584-6.80469 2.8584-2.61035 0-4.85938-.94287-6.74805-2.82959-1.88867-1.88623-2.83301-4.12256-2.83301-6.70947 0-2.58691.9541-4.84229 2.8623-6.76758 1.83107-1.86718 4.07032-2.80127 6.71876-2.80127z" fill-rule="evenodd"/></g><g fill="#fff"><path d="M48.4007882 32.7474767c.3154059 0 .6036418.0281407.863734.0834484.260092.0553077.483305.1465266.6696387.2736468.1853599.1261464.3289909.2950007.431867.5045955.1019022.2105686.1533403.4696681.1533403.7792162 0 .3338135-.0756963.6113356-.2280626.83356-.1513925.2231882-.3765532.4046522-.6735145.5472935.4095466.117412.7152532.3231415.9171098.6171585.2018566.294017.3027949.6482107.3027949 1.062571 0 .3338136-.065023.6229815-.1950691.8675237-.130046.2435684-.3057066.443465-.5260078.597752-.2193272.155261-.470684.2697616-.7521324.3435118-.2824124.074724-.5716223.1115892-.8695575.1115892h-3.2162v-6.6218765h3.1220592v.0000099zm-.1863337 2.6782487c.260092 0 .4735957-.0621044.640521-.1853394.1678991-.123235.2513568-.3231414.2513568-.6006635 0-.1542872-.0281439-.2814074-.0834577-.379423-.0562877-.0989795-.130046-.175641-.223213-.2319226-.0931668-.0553076-.1999186-.0941303-.3202654-.1154744-.1213107-.021344-.2465071-.032026-.3765532-.032026h-1.3645096v1.5448489h1.476121zm.0854054 2.810218c.1426571 0 .2785267-.0135835.4085728-.0417242.130046-.0281408.2445593-.074724.3445236-.138766.0989905-.0650159.1775985-.1533233.236798-.2649125.0582255-.1106252.0883172-.2532666.0883172-.4259962 0-.3396364-.0960787-.582231-.288236-.7277838-.1921573-.144589-.4464258-.2173653-.7618317-.2173653h-1.5896605v1.816548H48.29986zM51.0948662 32.7474767h1.6323631l1.5508434 2.6151804 1.542108-2.6151804h1.6236279l-2.459218 4.0804562v2.5414302h-1.4596143v-2.5783053l-2.4301101-4.0435811z"/></g><g fill="#fff"><path d="M98.4401354 37.7323216c.0805459.1542872.1863338.2794697.3192916.3755377.1329578.096068.288236.1669068.4677722.21348.1785724.0465833.3629583.069865.5551156.069865.1290721 0 .2678535-.010672.4163441-.0329898.1475167-.021344.2862981-.0630782.4163442-.1251826.1290721-.0611306.2367979-.1465266.3241412-.2552142.0854054-.1077138.1290721-.245506.1290721-.4124128 0-.1795164-.0572616-.3241053-.1717748-.4357044-.1135493-.1115891-.2639679-.2037818-.4483638-.2784959-.1853598-.0737502-.3959617-.138766-.6298478-.1950475-.23486-.0553076-.4726318-.117412-.7133055-.1853393-.247471-.0621044-.4881546-.1377922-.7230147-.2270735-.233886-.0892713-.444488-.2057195-.6298478-.3483707-.1843959-.1416775-.3348144-.3192563-.4483637-.5327363-.1145133-.2134801-.1717749-.4716058-.1717749-.774367 0-.3406003.0727845-.635601.2173894-.8859562.1455689-.2503552.3357883-.4589861.5696744-.6268667.23486-.1669067.5007757-.2901417.797737-.3706886.2959974-.080537.5929687-.1203235.888966-.1203235.3464616 0 .6783742.0388128.9966919.1164482.3173537.0766616.60073.202808.8472372.3755377.247471.1736935.443514.394944.589083.6637418.1446049.2697615.2173893.5958144.2173893.9791127h-1.413036c-.012621-.197959-.0533758-.3619542-.1242224-.4910121-.0708466-.1300317-.1649874-.2319226-.2824124-.3066366-.116461-.0737502-.2503829-.1271202-.4008114-.1571986-.1504284-.0310522-.3154059-.0465833-.4939782-.0465833-.116461 0-.2338861.0126196-.3503472.0368751-.117425.0252293-.223213.0679273-.3183177.1300317-.0960786.0621044-.1737127.138766-.235824.2319226-.0611373.0931565-.092193.2105686-.092193.352246 0 .1300317.0242582.235798.0737584.315371.0494903.080537.1465428.155261.2921217.2231882.1455788.0679273.3454975.1358546.601704.2037819.2562064.0679273.5919947.155261 1.005427.2600633.1232486.0242555.2950334.069865.5133868.1348808.2193272.0650158.4376905.1678805.653142.3105218.2164155.1426414.4027492.3328397.5609391.5705852.157216.2377455.235824.5424445.235824.914097 0 .3027612-.0591994.5841686-.1766245.8442319-.117425.2600633-.2921216.4842154-.52406.6724761-.2319482.1892246-.5192102.3357512-.86276.4405535-.3425858.1057762-.7395114.1581724-1.1917608.1581724-.3649061 0-.718165-.0456094-1.0617148-.1348807-.3435498-.0902451-.6463446-.2309488-.9083746-.4230849-.2630039-.192136-.4716579-.437642-.626936-.7345804-.1543042-.2969384-.2290365-.6491845-.222239-1.057712h1.4130359c-.0000299.2222243.0397611.4114489.1203169.565736zM106.645608 32.7474767l2.4766885 6.6218765h-1.5120164l-.5007757-1.4749839h-2.4766886l-.5201842 1.4749839h-1.4654379l2.5048324-6.6218765h1.4935818zm.0834675 4.060066l-.8346162-2.4278935h-.0194085l-.861796 2.4278936h1.7158207z"/></g><g fill="#fff"><path d="M72.5174239 32.7474767l2.7668624 4.4424005h.0155228v-4.4424005h1.3664475v6.6218765H75.209554l-2.7561892-4.4336661h-.0184346v4.433666h-1.3664475v-6.6218764h1.4489412zM82.1951318 34.5116285c-.0863695-.13973-.1950691-.262001-.3251152-.3668034-.130046-.1048024-.2765888-.1872869-.4406023-.245506-.1640134-.059193-.3357883-.0883075-.5143606-.0883075-.328027 0-.6065537.0630782-.8355901.1901984-.2290365.1261464-.4143963.2959646-.5560895.5094546-.1426571.21348-.2465071.4560747-.3115302.7277838-.065023.2717091-.0970525.5531165-.0970525.8432582 0 .2784959.0320295.5492312.0970525.811242.065023.2629749.1688631.4997465.3115302.7093513.1416932.2105686.327053.3784491.5560895.5055693.2290364.1271203.5075632.1901984.83559.1901984.444488 0 .7928874-.1358545 1.0432703-.4085275.2503829-.2717091.4037231-.630752.459037-1.0761546h1.410124c-.0368791.4143505-.1329578.7889243-.287262 1.1227279-.1543042.3347773-.3590825.619106-.6123772.854904-.2532946.2357979-.5502659.4153242-.8909038.539533-.339674.1242087-.7142794.1863131-1.1218882.1863131-.5075632 0-.9636983-.0883075-1.3693593-.2649124-.404697-.1756411-.7472729-.4192095-1.0258095-.7277838-.2785268-.309548-.4930044-.67344-.641495-1.0907118-.1484806-.4182357-.2232129-.8675236-.2232129-1.3507751 0-.4948974.0747323-.9538835.223213-1.3779421.1484806-.4240586.3629582-.7937734.6414949-1.1091444.2785366-.315371.6211125-.5628246 1.0258095-.742341.405661-.1795165.861796-.2687977 1.3693593-.2687977.364906 0 .7094297.0523962 1.033571.1581724.325115.1048024.6162628.2581256.8724692.4599599.2571803.2008704.4687461.4502517.6356714.7471901.1669252.2969384.2717392.6375387.3154059 1.020837H82.362047c-.025222-.1669068-.0805458-.3202201-.1669152-.4589861z"/></g><path d="M114.579775 14.9807397c.0048509 5.8450904-4.7311724 10.5873344-10.5773393 10.5916941-5.8462414.0034095-10.5880286-4.7306057-10.592954-10.577137v-.0145571c-.0038695-5.8450905 4.73216-10.5873345 10.5774139-10.5916942 5.8462414-.0043597 10.5880286 4.7310964 10.5928794 10.5756962v.015998z" fill="#fff"/><path d="M103.9189153 3.3856522c-3.2122962 0-5.9316127 1.1212726-8.155987 3.3618865-2.2835098 2.3192311-3.4257958 5.063942-3.4257958 8.2331948 0 3.1692527 1.142286 5.8936121 3.4257959 8.1744817 2.282603 2.2804163 5.0019196 3.4205995 8.155987 3.4205995 3.192961 0 5.9598172-1.150387 8.301556-3.4492231 2.205952-2.184323 3.3094188-4.8994724 3.3094188-8.1458644 0-3.2464292-1.1218888-5.99114-3.3676477-8.2331947-2.2446907-2.2406077-4.9921434-3.3618803-8.2433272-3.3618803zm.0291113 2.0872856c2.6319764 0 4.8660523.9271982 6.7051159 2.7830724 1.8575602 1.8354422 2.7862658 4.076056 2.7862658 6.7247233 0 2.6665904-.909296 4.8790774-2.7290245 6.6388646-1.914727 1.8932111-4.1701876 2.8398167-6.7623572 2.8398167-2.593157 0-4.828146-.9373956-6.7051158-2.8116899-1.8768953-1.8747538-2.8153833-4.0964509-2.8153833-6.6669914 0-2.5705406.9472021-4.8120985 2.8444946-6.7247233 1.8187472-1.8558742 4.0440282-2.7830724 6.6760045-2.7830724z"/><path d="M98.7792277 13.3446695c.4619615-2.9179433 2.5155186-4.4773214 5.0902474-4.4773214 3.7014002 0 5.9577676 2.685998 5.9577676 6.2676575 0 3.4953105-2.4009552 6.2094786-6.0160772 6.2094786-2.487314 0-4.7145702-1.5298166-5.1192904-4.534103h2.9211456c.0873402 1.5594216 1.0996034 2.1086246 2.5456175 2.1086246 1.6479238 0 2.7183352-1.5307606 2.7183352-3.8703494 0-2.4560273-.9248361-3.7548859-2.6610877-3.7548859-1.272315 0-2.3709309.4623694-2.6028588 2.050899l.8491727-.0058377-2.2990562 2.2998237-2.2991308-2.2998237.9152151.0058377z"/><g><path d="M88.6298266 14.980729c.0048665 5.9581437-4.8223233 10.7891807-10.7791964 10.7945025-5.9578418.0038973-10.7918584-4.821818-10.7957447-10.778959v-.0155436c-.0047981-5.9571751 4.8223917-10.7891807 10.7792648-10.7945025 5.9578418-.0038973 10.7918584 4.822308 10.7956763 10.7789931v.0155094z" fill="#fff"/><path d="M77.827335 3.3856612c3.2511471 0 5.9986084 1.1212722 8.2433412 3.3618907 2.245713 2.2420543 3.3675893 4.9867696 3.3675893 8.2331656 0 3.2463961-1.1034475 5.961517-3.3083938 8.1458752-2.3427461 2.2997846-5.1096163 3.4491812-8.3025368 3.4491812-3.154114 0-5.8733908-1.140189-8.1559727-3.4205668-2.2835506-2.279432-3.425816-5.0052304-3.425816-8.174501 0-3.1692705 1.1422654-5.9139857 3.425816-8.2331656 2.225324-2.2406071 4.9436434-3.3618793 8.1559727-3.3618793zm-8.9721387 8.4801544c-.3464885.9781317-.5192085 2.0164552-.5192085 3.1149133 0 2.570556.9384547 4.7922236 2.8153527 6.666997 1.876898 1.8742835 4.1119662 2.8116987 6.7051363 2.8116987 2.5931018 0 4.8475789-.9466228 6.7632947-2.840803.640517-.61958 1.1694584-1.2954657 1.5838381-2.0281016l-4.371086-1.9465545c-.2959774 1.4710836-1.6070764 2.4637903-3.1918833 2.5807094v1.7879389h-1.3315337v-1.7879389c-1.3004429-.0150194-2.5581816-.5472861-3.5199316-1.388602l1.5974005-1.6098823c.7695527.7234282 1.538205 1.0485111 2.5883037 1.0485111.6812837 0 1.4353252-.2659054 1.4353252-1.1528152 0-.3134366-.1222888-.5322553-.3134375-.6962611l-1.1053964-.4924732-1.3770985-.6127995c-.6812837-.3032147-1.257807-.5594225-1.836211-.8175333l-5.9228647-2.6370038zm9.0012805-6.3928526c-2.631988 0-4.8563431.927182-6.6759945 2.7830387-.4950014.4992536-.925861 1.0213212-1.291747 1.5662028l4.433199 1.9732659c.4008062-1.2294622 1.5692958-1.9756931 2.987161-2.058676V7.9488897h1.3315336v1.7879047c.9170969.044648 1.9225311.2959898 2.9143347 1.063542l-1.5236626 1.5657128c-.5628927-.398334-1.2722697-.6792589-1.9827067-.6792589-.576455 0-1.3897604.176598-1.3897604.9000148 0 .1111073.0369373.2086197.10386.2945199l1.4829072.660342 1.0034853.4473352c.6424659.2862808 1.2548781.5579524 1.8623555.8286896l5.9423307 2.6452884c.1960266-.778264.2940399-1.605985.2940399-2.4822513 0-2.6486615-.9287103-4.8892572-2.785299-6.7247272-1.8390489-1.8558681-4.0741171-2.7830387-6.7060367-2.7830387z"/></g></svg>
