<svg xmlns="http://www.w3.org/2000/svg" width="306" height="72"><g font-size="67.7603912" font-weight="700" font-family="URW Palladio L"><path d="M246.29701 7.84277c-4.28377 2.10201-8.48815.97939-13.0625 1.22687v2.46875l3.5625.1875c1.49073.0678 1.78125 2.43152 1.78125 6.42938v8.25l-1.375-.53125c-1.89729-.74537-3.71224-1.15625-5.40625-1.15625-.91283-.0291-1.79974.1677-2.6875.34375-2.10431.45216-4.01816 1.19631-5.6875 2.15625-.87297.50199-1.69027 1.07079-2.40625 1.6875-2.10673 1.69843-3.66355 3.67491-4.375 5.75-.91728 2.0025-1.375 4.40098-1.375 7.28125.00001 9.24181 4.57513 15.24393 11.875 15.78125.31228.023.61532.0598.9375.0625.0413.0005.0837-.00001.125 0 .28912 0 .55603-.0126.8125-.0312.31032-.0244.62786-.0718.9375-.125.12769-.0257.25805-.0302.375-.0625.80053-.16895 1.59052-.44131 2.375-.8125 2.35579-1.11468 4.34834-3.01367 5.875-5.46875-.008.12142-.34375 5.03125-.34375 5.03125l.34375.53125c4.06561-.13552 5.34839-.21875 6.09375-.21875.54208 0 1.75896.0885 3.65625.15625.47432.00001 1.76453-.005 3.1875.0625v-2.5l-2.25-.15625c-2.10056-.13552-2.4375-.65344-2.4375-4.3125v-41.625l-.53125-.40625zm-15.3125 21.21875c2.9137 0 5.35766 1.36756 7.59375 4.28125v12.4375c0 3.04921-3.17943 5.5625-6.90625 5.5625-4.81099 0-7.875-4.65064-7.875-11.96875 0-6.84379 2.37652-10.3125 7.1875-10.3125zM57.60951 24.71777c-4.05871 2.12534-8.08967 1.24761-12.40625 1.53125v2.4375l3.0625.21875c1.55849.13552 1.75 2.12714 1.75 6.125v14.84375c0 3.65905-.33693 4.17698-2.4375 4.3125l-2.375.15625v2.5l8.75-.21875c.88088 0 1.07111.0155 10.21875.21875v-2.5l-2.625-.15625c-2.9137-.13552-3.25-.51792-3.25-4.3125v-13.4375c0-2.10057 2.7636-4.34375 5.40625-4.34375.34005 0 .28882-.0621.5931.005.60246 1.87743 2.32577 3.27589 3.93815 3.27589 2.16484 0 3.9375-2.36122 3.9375-5.28125 0-2.8073-1.63844-5.0767-3.6875-5.25-.50772-.0614-.98072-.11733-1.46875-.125-1.89615-.0298-3.17511.81558-5.75 3.59375l-2.96875 3.25v-6.4375l-.6875-.40625zM87.95326 24.71777c-1.00083 0-1.883.1013-2.71875.28125-.27182.0585-.55113.10859-.8125.1875-4.56723 1.23429-8.2054 3.82557-9.9375 7.09375-1.44827 2.32471-2.125 5.27211-2.125 9.03125 0 10.77389 5.43496 16.46875 15.53125 16.46875 3.86233 0 6.34304-.71913 10.6875-2.90625 1.68148-.8465 2.28098-1.32187 2.28098-1.32187l-1.59348-2.95938c-3.18474 1.76176-5.22709 2.375-7.9375 2.375-3.52354 0-6.83724-1.89881-8.53125-4.8125-1.08417-1.89729-1.48948-3.44026-1.625-6.625h8.875c3.86234 0 6.92417-.39511 10.71875-1.34375v-3.53125c0-7.25035-5.08782-11.9375-12.8125-11.9375zm-1.4375 3.8125c3.86234 0 5.48948 2.69798 5.625 9.40625l-5.6875.1875h-.28125c-.40656-.00001-2.2336-.0572-3.25-.125l-2.15625-.0625c.20328-6.70827 1.8199-9.40625 5.75-9.40625zM151.57826 24.71777c-7.04707 2.30385-8.96068.89047-12.6875 1.09375v2.4375l3.0625.21875c1.55848.13552 1.75 2.56464 1.75 6.5625v14.84375c0 3.65905-.33693 4.17698-2.4375 4.3125l-2.375.15625v2.5l8.75-.21875c1.35521 0 4.61631.0832 9.15625.21875v-2.5l-2.375-.15625c-2.10058-.13552-2.4375-.65344-2.4375-4.3125V35.15527c0-2.37161 2.76855-4.59375 5.75-4.59375 4.47218 0 6.375 2.36042 6.375 7.78125v18.5c3.86234-.13552 5.00958-.21875 6.09375-.21875.94865 0 .9486.0155 6.84375.21875v-2.5l-2.21875-.15625c-2.10057-.13552-2.4375-.65344-2.4375-4.3125v-12.625c0-5.21755-.61323-7.79021-2.375-9.6875-1.76177-1.82952-4.55474-2.84375-7.875-2.84375-1.67848 0-3.07556.28397-4.125.875-.0627.0353-.12739.0562-.1875.0937-2.34944 1.14904-4.33004 2.66823-5.84375 4.375v-4.9375l-.40625-.40625zM196.14076 24.71777c-10.77389 0-16.71875 5.97611-16.71875 16.75 0 10.43509 5.54975 16.3125 15.375 16.3125 10.84165 0 16.9375-6.14783 16.9375-17.125 0-10.29957-5.56522-15.9375-15.59375-15.9375zm-.8125 3.25c4.87874 0 7.1875 4.82048 7.1875 14.78125 0 8.26676-1.8923 11.78125-6.5 11.78125-4.87874 0-7.375-4.93001-7.375-14.6875 0-8.199 2.01204-11.875 6.6875-11.875zM39.82826 7.84277c-.92778-.004-1.63557.17608-2.4375.375-6.37685 1.63384-11.19091 5.88703-12.21875 11.09375-.32019 1.19492-.40625 2.67048-.40625 4.875v2.90625c-1.76177 1.21969-3.10766 1.97833-5.34375 3.0625v1.625l5.34375-.34375v18.4375c0 3.72681-.33662 4.17698-2.84375 4.3125l-2.78125.15625v2.5c8.26676-.20328 8.27505-.21875 9.5625-.21875.94864 0 .956.0155 10.78125.21875v-2.5l-3.0625-.15625c-1.82953-.0678-2.98422-.53589-3.1875-1.28125-.13552-.60984-.1875-1.405-.1875-3.03125v-18.4375h8.40625l.71875-3.9375-.25-.53125c-4.40442.20328-6.09683.25-8.875.25v-7.3125c0-2.57489.18193-3.77537.65625-4.65625.49308-.92454 1.57459-1.44202 2.9375-1.53125.39044 1.05901.8072 1.95501 1.21875 2.4375 1.65201 1.9368 4.5632 2.15201 6.5.5 1.72357-1.47013 2.10038-3.92209 1-5.8125-.55488-1.16602-1.5142-2.1028-2.6875-2.59375-.91002-.37826-1.87776-.3779-2.84375-.40625zM121.95326 24.71777c-1.00083 0-1.883.1013-2.71875.28125-.27182.0585-.55113.10859-.8125.1875-4.56723 1.23429-8.2054 3.82557-9.9375 7.09375-1.44827 2.32471-2.125 5.27211-2.125 9.03125 0 10.77389 5.43496 16.46875 15.53125 16.46875 3.86234 0 6.34304-.71913 10.6875-2.90625 1.68148-.8465 2.28098-1.32187 2.28098-1.32187l-1.59348-2.95938c-3.18474 1.76176-5.22709 2.375-7.9375 2.375-3.52354 0-6.83724-1.89881-8.53125-4.8125-1.08417-1.89729-1.48948-3.44026-1.625-6.625h8.875c3.86234 0 6.92417-.39511 10.71875-1.34375v-3.53125c0-7.25035-5.08782-11.9375-12.8125-11.9375zm-1.4375 3.8125c3.86234 0 5.48948 2.69798 5.625 9.40625l-5.6875.1875h-.28125c-.40656-.00001-2.23359-.0572-3.25-.125l-2.15625-.0625c.20328-6.70827 1.8199-9.40625 5.75-9.40625zM271.95326 24.71777c-1.00083 0-1.883.1013-2.71875.28125-.27182.0585-.55113.10859-.8125.1875-4.56723 1.23429-8.2054 3.82557-9.9375 7.09375-1.44827 2.32471-2.125 5.27211-2.125 9.03125 0 10.77389 5.43496 16.46875 15.53125 16.46875 3.86234 0 6.34304-.71913 10.6875-2.90625 1.68148-.8465 2.28098-1.32187 2.28098-1.32187l-1.59348-2.95938c-3.18474 1.76176-5.22709 2.375-7.9375 2.375-3.52354 0-6.83724-1.89881-8.53125-4.8125-1.08417-1.89729-1.48948-3.44026-1.625-6.625h8.875c3.86234 0 6.92417-.39511 10.71875-1.34375v-3.53125c0-7.25035-5.08782-11.9375-12.8125-11.9375zm-1.4375 3.8125c3.86234 0 5.48948 2.69798 5.625 9.40625l-5.6875.1875h-.28125c-.40656-.00001-2.23359-.0572-3.25-.125l-2.15625-.0625c.20328-6.70827 1.8199-9.40625 5.75-9.40625z" style="text-align:start;line-height:100%"/></g></svg>
