<svg xmlns="http://www.w3.org/2000/svg" width="120" height="42" version="1"><path d="M3.4083297.4526846L116.762426.654042c1.5838383 0 2.9988132-.234834 2.9988132 3.160525l-.1387815 37.3290766H.5473342V3.675801c0-1.674393.1620658-3.2231164 2.8609955-3.2231164z" fill="#aab2ab"/><path d="M117.7532952-.0000014H2.2476335c-1.2393142 0-2.247654 1.0082268-2.247654 2.2469155v39.246064c0 .2799565.227099.50702.5075637.50702h118.9848684c.2804747 0 .5075636-.2270734.5075636-.50702V2.246914c0-1.2386886-1.0083397-2.2469154-2.24668-2.2469154zM2.2476335 1.015022H117.753305c.6793387 0 1.231553.5526295 1.231553 1.231902v27.2206248H36.428267c-3.025983 5.4710057-8.8566838 9.185621-15.5472336 9.185621-6.6924975 0-12.5212505-3.711217-15.5452956-9.185621h-4.320621V2.246924c-.00001-.6792725.553168-1.231902 1.2325167-1.231902z"/><path d="M34.5221996 19.551252c.0048146 7.5296742-6.0966392 13.6367513-13.626679 13.6415914-7.529988.0048747-13.6382776-6.095931-13.6430922-13.6251284v-.016463c-.0048753-7.5296745 6.0965872-13.6367516 13.626627-13.6416177 7.5309942-.004337 13.6392318 6.095905 13.6431442 13.6251024v.0165152z" fill="#fff"/><path d="M31.971738 8.4466868c3.0230887 3.0232274 4.535058 6.7252262 4.535058 11.1045564 0 4.3798073-1.4858144 8.042513-4.4574434 10.9881086-3.15408 3.101822-6.8807394 4.6524816-11.1819822 4.6524816-4.248829 0-7.9114155-1.5375792-10.9858683-4.6141514-3.0764653-3.075141-4.6137395-6.75045-4.6137395-11.0264388 0-4.2750346 1.5372742-7.9765476 4.6137396-11.1045564 2.9968297-3.0241815 6.659425-4.5360338 10.9858684-4.5360338 4.3798203 0 8.0803248 1.5118523 11.1043677 4.5360338zM11.9165953 10.480598c-2.5563084 2.5816974-3.8344626 5.605879-3.8344626 9.074505 0 3.4686262 1.2655495 6.467133 3.7946448 8.995945 2.530995 2.5297578 5.542442 3.7946453 9.037186 3.7946453s6.5323458-1.277508 9.1148092-3.8329754c2.451472-2.3735833 3.6772037-5.3584805 3.6772037-8.957615 0-3.5714904-1.2460657-6.603409-3.7373556-9.0939345-2.4902316-2.489953-5.508445-3.7354542-9.0546573-3.7354542-3.5462124 0-6.5469545 1.2518072-8.9973682 3.7548838zm6.726456 7.549104c-.39012-.851513-.9743412-1.277534-1.754685-1.277534-1.3781154 0-2.067173.9281734-2.067173 2.7835662 0 1.8558177.6890576 2.783037 2.067173 2.783037.910381 0 1.560575-.451696 1.9506948-1.357109l1.910877 1.0174805c-.911231 1.618108-2.277696 2.4278474-4.0992994 2.4278474-1.4053373 0-2.531099-.430835-3.3763574-1.292037-.846204-.8616788-1.2693666-2.0499493-1.2693666-3.5637098 0-1.4876086.436713-2.6685756 1.3082302-3.5433262.8714132-.8748026 1.9584242-1.3119957 3.2598706-1.3119957 1.9263357 0 3.304451.7588666 4.1391173 2.2750558l-2.0690816 1.058725zm8.990593 0c-.3910742-.851513-.9647033-1.277534-1.7197338-1.277534-1.4061787 0-2.1098536.9281734-2.1098536 2.7835662 0 1.8558177.703675 2.783037 2.1098536 2.783037.9122894 0 1.550833-.451696 1.914798-1.357109l1.953549 1.0174805c-.9093227 1.618108-2.273775 2.4278474-4.0925243 2.4278474-1.4033246 0-2.5261283-.430835-3.371482-1.292037-.84335-.8616788-1.266504-2.0499493-1.266504-3.5637098 0-1.4876086.4289837-2.6685756 1.286942-3.5433262.8569-.8748026 1.947728-1.3119957 3.2734296-1.3119957 1.9225274 0 3.2996885.7588666 4.1304336 2.2750558l-2.108908 1.058725z"/><g transform="matrix(.99378 0 0 .99367 -437.12334 -74.436914)"><circle cx="491.94629" cy="90.231934" r="10.80615" fill="#fff"/><path d="M495.07373 87.10498c0-.4165-.33789-.75391-.75391-.75391h-4.77246c-.41602 0-.75391.3374-.75391.75391v4.77295h1.33105v5.65186h3.61719v-5.65186h1.33203v-4.77295h.00001z"/><circle cx="491.93359" cy="84.090332" r="1.63232"/><path clip-rule="evenodd" d="M491.91846 78.3252c-3.23145 0-5.96777 1.12793-8.20703 3.38379-2.29785 2.3335-3.44629 5.0957-3.44629 8.28467 0 3.18897 1.14844 5.93164 3.44629 8.22705 2.29785 2.29395 5.03418 3.44189 8.20703 3.44189 3.21289 0 5.99805-1.15674 8.35449-3.47168 2.21973-2.19727 3.3291-4.92969 3.3291-8.19727 0-3.26758-1.12891-6.02881-3.3877-8.28467-2.25879-2.25586-5.02343-3.38378-8.29589-3.38378zm.03027 2.0996c2.64844 0 4.89648.93408 6.74609 2.80127 1.87012 1.84717 2.80469 4.10352 2.80469 6.76758 0 2.68359-.91504 4.91064-2.74609 6.68066-1.92773 1.90576-4.19629 2.8584-6.80469 2.8584-2.61035 0-4.85938-.94287-6.74805-2.82959-1.88867-1.88623-2.83301-4.12256-2.83301-6.70947 0-2.58691.9541-4.84229 2.8623-6.76758 1.83107-1.86718 4.07032-2.80127 6.71876-2.80127z" fill-rule="evenodd"/></g><g fill="#fff"><path d="M48.4007882 32.7474767c.315406 0 .6036418.0281407.863734.0834484.260092.0553078.483305.1465267.6696387.273647.1853598.1261463.3289908.2950006.431867.5045954.101902.2105686.1533402.469668.1533402.7792162 0 .3338135-.0756963.6113356-.2280626.83356-.1513925.2231882-.3765532.4046522-.6735145.5472935.4095467.117412.7152533.3231416.91711.6171586.2018565.294017.3027948.6482107.3027948 1.062571 0 .3338136-.065023.6229815-.195069.8675237-.1300462.2435684-.3057067.443465-.526008.597752-.219327.155261-.470684.2697616-.7521323.3435118-.2824124.074724-.5716223.1115893-.8695575.1115893h-3.2162v-6.6218765h3.1220592v.00001zm-.1863337 2.6782487c.260092 0 .4735957-.0621044.640521-.1853394.167899-.123235.2513568-.3231414.2513568-.6006635 0-.1542872-.028144-.2814074-.0834577-.379423-.0562877-.0989795-.130046-.175641-.223213-.2319226-.0931668-.0553077-.1999186-.0941304-.3202654-.1154745-.1213107-.021344-.246507-.032026-.3765532-.032026h-1.3645096v1.544849h1.476121zm.0854054 2.810218c.142657 0 .2785266-.0135835.4085727-.0417242.130046-.0281408.2445593-.074724.3445236-.138766.0989905-.065016.1775985-.1533233.236798-.2649125.0582255-.1106252.0883172-.2532666.0883172-.4259962 0-.3396364-.0960787-.582231-.288236-.7277838-.1921573-.144589-.4464258-.2173653-.7618317-.2173653h-1.5896605v1.816548H48.29986zM51.0948662 32.7474767h1.632363l1.5508435 2.6151804 1.542108-2.6151803h1.623628l-2.459218 4.0804562v2.54143h-1.4596144V36.791058l-2.43011-4.043581z"/></g><g fill="#fff"><path d="M98.4401354 37.7323216c.080546.1542872.1863338.2794697.3192916.3755377.1329578.096068.288236.1669068.4677722.21348.1785724.0465833.3629583.069865.5551156.069865.129072 0 .2678535-.010672.416344-.0329898.1475168-.021344.2862982-.0630782.4163443-.1251826.1290722-.0611307.236798-.1465267.3241413-.2552143.0854054-.1077138.129072-.245506.129072-.4124128 0-.1795165-.0572615-.3241054-.1717747-.4357045-.1135493-.111589-.263968-.2037818-.4483638-.278496-.1853598-.07375-.3959617-.138766-.6298478-.1950474-.23486-.0553075-.4726318-.117412-.7133055-.1853392-.247471-.0621044-.4881546-.1377922-.7230147-.2270735-.233886-.0892713-.444488-.2057195-.6298478-.3483707-.184396-.1416775-.3348144-.3192563-.4483637-.5327363-.1145133-.21348-.171775-.4716058-.171775-.774367 0-.3406003.0727846-.635601.2173895-.8859562.145569-.250355.3357883-.458986.5696744-.6268666.23486-.1669067.5007757-.2901417.797737-.3706886.2959974-.080537.5929687-.1203235.888966-.1203235.3464616 0 .6783742.0388128.996692.1164482.3173536.0766616.60073.202808.847237.3755377.247471.1736935.443514.394944.589083.6637418.144605.2697615.2173894.5958144.2173894.9791127h-1.413036c-.012621-.197959-.0533758-.3619542-.1242224-.491012-.0708466-.1300318-.1649874-.2319227-.2824124-.3066367-.116461-.0737502-.250383-.1271202-.4008114-.1571986-.1504284-.0310522-.315406-.0465833-.4939782-.0465833-.116461 0-.233886.0126197-.3503472.0368752-.117425.0252293-.223213.0679273-.3183177.1300317-.0960786.0621043-.1737127.138766-.235824.2319225-.0611373.0931565-.092193.2105686-.092193.352246 0 .1300317.0242582.235798.0737584.315371.0494903.080537.1465428.155261.2921217.2231882.1455788.0679273.3454975.1358546.601704.203782.2562064.0679272.5919947.1552608 1.005427.2600632.1232486.0242554.2950334.0698648.5133868.1348807.2193272.0650158.4376905.1678805.653142.3105218.2164155.1426414.4027492.3328397.560939.5705852.157216.2377455.235824.5424445.235824.914097 0 .3027612-.0591993.5841686-.1766244.844232-.117425.2600632-.2921216.4842153-.52406.672476-.2319482.1892246-.5192102.3357512-.86276.4405535-.3425858.1057762-.7395114.1581724-1.1917608.1581724-.364906 0-.718165-.0456094-1.0617148-.1348807-.3435498-.0902452-.6463446-.230949-.9083746-.423085-.263004-.192136-.471658-.437642-.626936-.7345804-.1543042-.2969384-.2290365-.6491845-.222239-1.057712h1.413036c-.00003.2222243.039761.411449.1203168.565736zM106.645608 32.7474767l2.4766885 6.6218765H107.61028l-.5007756-1.474984h-2.4766886l-.5201842 1.474984h-1.465438l2.5048325-6.6218765h1.493582zm.0834675 4.060066l-.8346162-2.4278935h-.0194085l-.861796 2.4278936h1.7158207z"/></g><g fill="#fff"><path d="M72.517424 32.7474767l2.7668623 4.4424005h.0155228v-4.4424005h1.3664476v6.6218765H75.209554l-2.7561892-4.433666h-.0184346v4.433666h-1.3664475v-6.6218765h1.4489412zM82.1951318 34.5116285c-.0863695-.13973-.195069-.262001-.3251152-.3668034-.130046-.1048023-.2765888-.1872868-.4406023-.245506-.1640134-.0591928-.3357883-.0883074-.5143606-.0883074-.328027 0-.6065537.0630782-.83559.1901984-.2290366.1261464-.4143964.2959646-.5560896.5094546-.142657.21348-.246507.4560747-.31153.7277838-.065023.271709-.0970526.5531165-.0970526.8432582 0 .278496.0320295.5492312.0970525.811242.065023.262975.168863.4997465.31153.7093513.1416933.2105685.327053.378449.5560896.5055692.2290364.1271203.5075632.1901984.83559.1901984.444488 0 .7928874-.1358545 1.0432703-.4085275.2503828-.271709.403723-.6307518.4590368-1.0761545h1.4101242c-.0368792.4143505-.132958.7889243-.287262 1.122728-.1543043.3347772-.3590826.619106-.6123773.854904-.2532946.2357978-.550266.415324-.8909038.539533-.3396742.1242086-.7142795.186313-1.1218883.186313-.5075632 0-.9636983-.0883075-1.3693593-.2649124-.404697-.175641-.747273-.4192094-1.0258095-.7277837-.278527-.309548-.4930045-.67344-.641495-1.0907118-.1484807-.4182357-.223213-.8675236-.223213-1.350775 0-.4948975.0747323-.9538836.223213-1.3779422.1484806-.4240586.3629582-.7937734.641495-1.1091444.2785365-.315371.6211124-.5628247 1.0258094-.742341.405661-.1795166.861796-.2687978 1.3693593-.2687978.364906 0 .7094297.0523962 1.033571.1581724.325115.1048024.6162628.2581256.8724692.45996.2571802.2008703.468746.4502516.6356713.74719.1669252.2969384.2717392.6375387.315406 1.020837H82.362047c-.025222-.1669068-.0805458-.32022-.1669152-.458986z"/></g><path d="M114.579775 14.9807397c.004851 5.8450904-4.7311724 10.5873344-10.5773393 10.591694-5.8462414.0034096-10.5880286-4.7306056-10.592954-10.577137v-.014557c-.0038695-5.8450905 4.73216-10.5873345 10.577414-10.5916942 5.8462413-.0043597 10.5880285 4.7310964 10.5928793 10.5756962v.015998z" fill="#fff"/><path d="M103.9189153 3.3856522c-3.2122962 0-5.9316127 1.1212726-8.155987 3.3618865-2.2835098 2.319231-3.4257958 5.063942-3.4257958 8.2331948 0 3.1692527 1.142286 5.893612 3.425796 8.1744817 2.282603 2.2804163 5.0019195 3.4205995 8.1559868 3.4205995 3.192961 0 5.9598173-1.150387 8.301556-3.449223 2.2059522-2.184323 3.309419-4.8994725 3.309419-8.1458645 0-3.2464292-1.121889-5.99114-3.3676478-8.2331947-2.2446907-2.2406077-4.9921434-3.3618803-8.2433272-3.3618803zm.0291113 2.0872856c2.6319764 0 4.8660523.9271982 6.705116 2.7830724 1.85756 1.8354422 2.7862657 4.076056 2.7862657 6.7247233 0 2.6665904-.909296 4.8790774-2.7290245 6.6388646-1.914727 1.8932112-4.1701876 2.8398168-6.7623572 2.8398168-2.593157 0-4.828146-.9373956-6.7051158-2.81169-1.8768953-1.8747537-2.8153833-4.0964508-2.8153833-6.6669913 0-2.5705406.947202-4.8120985 2.8444946-6.7247233 1.8187473-1.8558742 4.0440283-2.7830724 6.6760046-2.7830724z"/><path d="M98.7792277 13.3446695c.4619615-2.9179433 2.5155186-4.4773214 5.0902474-4.4773214 3.7014003 0 5.9577677 2.685998 5.9577677 6.2676576 0 3.4953105-2.4009552 6.2094786-6.0160772 6.2094786-2.487314 0-4.7145702-1.5298166-5.1192904-4.534103h2.9211457c.0873402 1.5594216 1.0996034 2.1086246 2.5456175 2.1086246 1.6479238 0 2.7183352-1.5307606 2.7183352-3.8703494 0-2.4560273-.924836-3.754886-2.6610877-3.754886-1.272315 0-2.370931.4623695-2.6028588 2.050899l.8491726-.0058376-2.2990562 2.2998237-2.2991308-2.2998237.915215.0058377z"/><g><path d="M88.6298266 14.980729c.0048665 5.9581437-4.8223233 10.7891807-10.7791964 10.7945025-5.9578418.0038973-10.7918584-4.821818-10.7957447-10.778959v-.0155436c-.004798-5.9571752 4.8223917-10.7891808 10.7792648-10.7945026 5.9578418-.0038973 10.7918584 4.822308 10.7956763 10.778993v.0155095z" fill="#fff"/><path d="M77.827335 3.3856612c3.251147 0 5.9986084 1.1212722 8.2433412 3.3618907 2.245713 2.2420542 3.3675893 4.9867695 3.3675893 8.2331655s-1.1034475 5.961517-3.3083938 8.1458752c-2.342746 2.2997846-5.1096163 3.4491812-8.3025368 3.4491812-3.154114 0-5.873391-1.140189-8.1559728-3.420567-2.2835506-2.279432-3.425816-5.0052303-3.425816-8.174501 0-3.1692704 1.1422654-5.9139856 3.425816-8.2331655 2.225324-2.240607 4.9436434-3.3618793 8.1559727-3.3618793zm-8.9721387 8.4801544c-.3464885.9781317-.5192085 2.0164552-.5192085 3.1149133 0 2.570556.9384547 4.7922235 2.8153527 6.666997 1.876898 1.8742834 4.1119662 2.8116986 6.7051363 2.8116986 2.5931018 0 4.847579-.9466228 6.7632947-2.840803.640517-.61958 1.1694584-1.2954657 1.583838-2.0281016l-4.371086-1.9465545c-.2959773 1.4710836-1.6070763 2.4637903-3.1918832 2.5807094v1.7879388h-1.3315337v-1.787939c-1.300443-.0150193-2.5581816-.547286-3.5199316-1.388602l1.5974005-1.6098822c.7695527.7234282 1.538205 1.048511 2.5883037 1.048511.6812837 0 1.4353252-.2659053 1.4353252-1.152815 0-.3134367-.1222888-.5322554-.3134375-.6962612l-1.1053965-.4924732-1.3770985-.6127995c-.6812837-.3032147-1.257807-.5594225-1.836211-.8175333l-5.9228647-2.6370038zm9.0012805-6.3928526c-2.631988 0-4.856343.927182-6.6759945 2.7830387-.4950014.4992536-.925861 1.0213212-1.291747 1.5662028l4.433199 1.973266c.4008062-1.2294623 1.5692958-1.9756932 2.987161-2.058676V7.9488896h1.3315336v1.7879047c.9170968.044648 1.922531.2959898 2.9143346 1.063542L80.031301 12.366049c-.5628927-.398334-1.2722697-.679259-1.9827067-.679259-.576455 0-1.3897604.176598-1.3897604.900015 0 .1111072.0369372.2086196.1038598.2945198l1.4829073.660342 1.0034854.4473352c.642466.2862808 1.254878.5579524 1.8623555.8286896l5.9423306 2.6452884c.1960266-.778264.29404-1.605985.29404-2.4822513 0-2.6486616-.9287104-4.8892573-2.785299-6.7247273-1.839049-1.855868-4.0741172-2.7830387-6.7060368-2.7830387z"/></g></svg>
