<svg id="Capa_1" xmlns="http://www.w3.org/2000/svg" viewBox="0 0 239.3 268"><style>.st0{fill:#349334}.st1{fill:url(#SVGID_1_)}.st2{fill:#118011}.st3{fill:#FFF}.st4{fill:url(#SVGID_2_)}.st5{fill:url(#SVGID_3_)}</style><path class="st0" d="M208.8 102.4H199v-8.7c0-43.4-35.3-78.5-78.9-78.6-43.6 0-79 35.1-79 78.5v8.7h-9.8c-10.3 0-18.6 8.2-18.6 18.4v72.1c0 4.8.3 8.3 2.2 10.8 1.9 2.6 5.2 3.5 10.1 3.5h15.7l2.4 38v.4c0 1 .1 3.3 1.4 5.5 1.2 2.2 3.9 4.2 8.1 4.2h39.9l20.7-22h15.5l20 22.7h35.8c3.1 0 5.9.1 8.4-1.5 2.4-1.6 3.9-4.6 4.6-9.9 1-7.7 1.3-28.6 1.8-37.4H215c4.8 0 8-.5 10-2.7s2.2-5.4 2.3-10.2v-73.4c0-10.2-8.3-18.4-18.5-18.4z"/><radialGradient id="SVGID_1_" cx="77.5047" cy="56" r="264.0701" gradientUnits="userSpaceOnUse"><stop offset="0" stop-color="#5ebb47"/><stop offset="1" stop-color="#3bb54a"/></radialGradient><path class="st1" d="M224.8 194.3c0 4.7-.5 7.4-1.6 8.6-1.1 1.3-3.5 1.9-8.2 1.9h-18l-.1 1.2c-.4 8.3-.7 30.6-1.8 38.4-.7 5-2 7.2-3.5 8.1-1.5 1-3.9 1.1-7 1.1h-34.7l-20-22.7h-17.7l-20.7 22H52.7c-3.5 0-5-1.4-6-3-.9-1.6-1.1-3.5-1.1-4.3v-.4L43 204.6H25c-4.7 0-6.9-.9-8.1-2.5-1.3-1.6-1.7-4.6-1.7-9.4v-72.1c0-8.8 7.2-16 16.1-16h12.2V93.4c.1-42 34.3-76 76.5-76 42.2.1 76.4 34.1 76.4 76.1v11.2h12.2c8.9 0 16.1 7.2 16.1 16l.1 73.6z"/><path class="st2" d="M45.9 202.7h148.6v4.8H45.9zM43.4 204.4v-93.1h2.5v93.1h-2.5z"/><path class="st2" d="M194.4 204.5l.1-93.1h2.5l-.1 93.1h-2.5z"/><path class="st3" d="M168.6 106.5V92.3c0-26.8-21.7-48.5-48.5-48.6-26.8 0-48.5 21.7-48.6 48.5v14.2l97.1.1z"/><circle cx="103.9" cy="70.2" r="9"/><path d="M144.8 70.3c0 5-4 9-9 9s-9-4-9-9 4-9 9-9 9 4 9 9z"/><path class="st2" d="M217.4 209.7c.9 0 1.7 0 2.4-.1v-2.7c-1.4.2-3 .3-4.9.3h-15.7c-.2 4.4-.4 11.8-.7 19h2.6c.2-6.4.4-12.6.6-16.5h15.7z"/><radialGradient id="SVGID_2_" cx="77.5047" cy="56" r="264.0701" gradientUnits="userSpaceOnUse"><stop offset="0" stop-color="#5ebb47"/><stop offset="1" stop-color="#3bb54a"/></radialGradient><path class="st4" d="M219.9 210.9v-1.4c-.8 0-1.6.1-2.4.1h-15.7c-.2 3.9-.4 10.1-.6 16.5h3.6c8.3.1 15.1-6.7 15.1-15.2z"/><path class="st2" d="M40.7 207.1H25c-2.4 0-4.5-.2-6.1-.8v3.2c1 .1 2.1.2 3.3.2h15.7l1 16.4h3l-1.2-19z"/><radialGradient id="SVGID_3_" cx="77.5047" cy="56" r="264.0701" gradientUnits="userSpaceOnUse"><stop offset="0" stop-color="#5ebb47"/><stop offset="1" stop-color="#3bb54a"/></radialGradient><path class="st5" d="M22.1 209.6c-1.2 0-2.3-.1-3.3-.2v1.4c0 8.4 6.7 15.2 15.1 15.3h4.9l-1-16.4-15.7-.1z"/><path d="M145.5 91.5c-14.9 9.1-33.7 9.1-48.6 0 .9-1.4 1.8-2.9 2.6-4.3 13.3 8.1 30 8.2 43.3 0 1 1.4 1.8 2.8 2.7 4.3z"/><path class="st3" d="M139.6 149h-3.3v-5.4c0-8.9-7.4-16.1-16.3-16.1s-16.3 7.2-16.3 16.1v5.4h-3.6c-.7 0-1.6 1.2-1.6 2v29.3c0 .7.9 1.3 1.6 1.3h39.5c.7 0 2-.6 2-1.3V151c0-.8-1.3-2-2-2zm-12.6 0h-14v-5.4c0-3.8 3.2-6.9 7-6.9s7 3.1 7 6.9v5.4z"/></svg>
