<svg id="Layer_1" xmlns="http://www.w3.org/2000/svg" viewBox="0 0 143 56"><style>.st0{fill:#349334}.st1{fill:url(#SVGID_1_)}.st2{fill:#fff}.st3{fill:#118011}.st4{fill:url(#SVGID_2_)}.st5{fill:#3cce33}.st6{fill:url(#SVGID_3_)}.st7{fill:#333}.st8{opacity:.1}.st9{fill:url(#SVGID_4_)}</style><path class="st0" d="M89.5 10.8c2.2-1.1 4.9-1 7.1.4 3.3 2.2 4.2 6.6 2 9.8l-.4.7.7.5c.8.5 1 1.5.5 2.3l-3.6 5.4c-.2.4-.4.6-.7.7-.3.1-.6 0-.9-.2l-1.2-.8-2.1 2.7c-.1.1-.2.2-.4.3-.2.1-.5.1-.8-.1l-.2-.1V10.8z"/><radialGradient id="SVGID_1_" cx="113.9385" cy="-394.6157" r="10.0419" gradientTransform="matrix(-.8325 -.554 -.554 .8325 -33.1233 411.902)" gradientUnits="userSpaceOnUse"><stop offset="0" stop-color="#23ff16"/><stop offset=".3605" stop-color="#23fc16"/><stop offset=".581" stop-color="#21f415"/><stop offset=".7638" stop-color="#1fe613"/><stop offset=".9251" stop-color="#1cd110"/><stop offset="1" stop-color="#1ac50f"/></radialGradient><path class="st1" d="M89.5 11c2.1-1.1 4.8-1.1 7 .4 3.2 2.1 4 6.4 1.9 9.5l-.6.8.9.6c.7.4.8 1.3.4 2l-3.6 5.4c-.2.4-.4.6-.6.6-.2.1-.4 0-.7-.2l-1.3-.9-2.2 2.9c0 .1-.1.2-.3.3-.2.1-.3.1-.6-.1l-.3-.2V11z"/><path class="st2" d="M89.5 26.8l3.3 2.2-.2.3-3.1-2z"/><path class="st3" d="M92.9 29.2l4.7-6.9-.2-.2-4.7 7 .2.1z"/><linearGradient id="SVGID_2_" gradientUnits="userSpaceOnUse" x1="112.5666" y1="-394.1043" x2="112.5666" y2="-395.7022" gradientTransform="matrix(-.8325 -.554 -.554 .8325 -33.1233 411.902)"><stop offset="0" stop-color="#23ff16"/><stop offset="1" stop-color="#91ff8a"/></linearGradient><path class="st4" d="M89.5 18.1c.6.3 1.2.7 1.9 1.1 2.2 1.5 3.8 3 3.5 3.4-.3.4-2.3-.5-4.5-1.9l-.9-.6v-2z"/><path class="st2" d="M89.5 14.1c1.4-1.6 3.9-2 5.7-.7 2 1.3 2.6 4 1.2 6.1l-.7 1.1-6.2-4.1v-2.4z"/><circle cx="95.1" cy="16.2" r=".8"/><circle cx="92.7" cy="14.6" r=".8"/><path class="st2" d="M89.5 22.2l1.2.8-1.2 1.8zM89.5 20.8c.2 0 .5.1.7.2.6.4.8 1.1.5 1.7l-.3-.2c.1-.5 0-1-.4-1.2-.2-.1-.3-.2-.5-.2v-.3z"/><path class="st5" d="M93 29.6l1.2.8c.2.1.3.2.5.2l-.2.2c-.1 0-.2-.1-.3-.1l-1.2-.8-.9 1.2-.1-.2 1-1.3z"/><linearGradient id="SVGID_3_" gradientUnits="userSpaceOnUse" x1="107.9767" y1="-389.6863" x2="105.2768" y2="-386.6913" gradientTransform="matrix(-.8325 -.554 -.554 .8325 -33.1233 411.902)"><stop offset="0" stop-color="#23ff16"/><stop offset="1" stop-color="#189a33"/></linearGradient><path class="st6" d="M94.3 30.7c.1.1.2.1.3.1l-.1.1c-.4.6-1.3.8-1.9.4l-.4-.2.9-1.2 1.2.8z"/><path d="M94.4 18.1c-1.4 0-2.8-.9-3.4-2.2.1-.1.3-.1.4-.2.6 1.2 1.7 1.9 3 2v.4z"/><path class="st7" d="M49.3 35.6V3.9h16.9c7.4 0 11.4 4.9 11.4 10.9 0 5.9-4 10.8-11.4 10.8h-7.3v10h-9.6zm18.5-20.8c0-1.7-1.3-2.5-2.9-2.5h-6.1v5h6.1c1.7 0 2.9-.8 2.9-2.5zM81.5 35.6V3.9h9.6v31.7h-9.6zM122.2 35.6l-1.1-3.7h-11.4l-1.1 3.7h-11l11.7-31.7h12.1l11.7 31.7h-10.9zm-6.9-22.3l-3.1 10.2h6.3l-3.2-10.2z"/><g><circle cx="21" cy="21.6" r="17.2" class="st8"/><linearGradient id="SVGID_4_" gradientUnits="userSpaceOnUse" x1="19.5942" y1="2.7389" x2="19.5942" y2="37.2364"><stop offset="0" stop-color="#a0ce71"/><stop offset=".1827" stop-color="#7dc142"/><stop offset=".5169" stop-color="#45b549"/><stop offset="1" stop-color="#0e733a"/></linearGradient><circle class="st9" cx="19.6" cy="20" r="17.2"/><path class="st2" d="M19.6 37.9c-2.4 0-4.8-.5-7-1.4-2.1-.9-4-2.2-5.7-3.8C5.3 31 4 29.1 3.1 26.9c-.9-2.2-1.4-4.5-1.4-7 0-2.4.5-4.8 1.4-7C4 10.9 5.3 9 7 7.4c1.6-1.6 3.6-2.9 5.7-3.8 2.2-.9 4.5-1.4 7-1.4s4.8.5 7 1.4c2.1.9 4 2.2 5.7 3.8C34 9 35.3 11 36.2 13.1c.9 2.2 1.4 4.5 1.4 7 0 2.4-.5 4.8-1.4 7-.9 2.1-2.2 4-3.8 5.7-1.6 1.6-3.6 2.9-5.7 3.8-2.4.8-4.7 1.3-7.1 1.3zm0-34.5c-2.2 0-4.4.4-6.5 1.3-2 .8-3.8 2-5.3 3.6-1.5 1.5-2.7 3.3-3.6 5.3-.8 2-1.2 4.1-1.2 6.4s.4 4.4 1.3 6.5c.8 2 2 3.8 3.6 5.3 1.5 1.5 3.3 2.7 5.3 3.6 2.1.9 4.2 1.3 6.5 1.3s4.4-.4 6.5-1.3c2-.8 3.8-2 5.3-3.6 1.5-1.5 2.7-3.3 3.6-5.3.9-2.1 1.3-4.2 1.3-6.5s-.4-4.4-1.3-6.5c-.8-2-2-3.8-3.6-5.3-1.5-1.5-3.3-2.7-5.3-3.6-2.2-.8-4.4-1.2-6.6-1.2z"/><path class="st2" d="M26 16.9h-1.1v-1.7c0-2.9-2.4-5.2-5.3-5.2s-5.3 2.3-5.3 5.2v1.7h-1.2c-.2 0-.5.4-.5.6v9.4c0 .2.3.4.5.4H26c.2 0 .6-.2.6-.4v-9.4c0-.2-.4-.6-.6-.6zm-4.1 0h-4.5v-1.7c0-1.2 1-2.2 2.3-2.2 1.2 0 2.3 1 2.3 2.2v1.7z"/></g><g><path class="st7" d="M3.1 50.4v3.7h-.8v-9.4H3v1.1c.5-.7 1.4-1.2 2.4-1.2 1.8 0 3 1.4 3 3.6s-1.2 3.6-3 3.6c-.9-.1-1.8-.6-2.3-1.4zm4.6-2.3c0-1.7-.9-2.9-2.4-2.9-.9 0-1.8.6-2.2 1.2v3.4c.4.6 1.3 1.2 2.2 1.2 1.5 0 2.4-1.3 2.4-2.9zM10.4 51.5v-6.8h.7v1.2c.6-.8 1.4-1.3 2.3-1.3v.8H13c-.7 0-1.6.6-1.9 1.2v5h-.7zM14.6 43c0-.3.3-.6.6-.6s.6.2.6.6-.3.6-.6.6-.6-.3-.6-.6zm.2 8.5v-6.8h.7v6.8h-.7zM19.7 51.5l-2.9-6.8h.8l2.5 6 2.5-6h.8l-2.9 6.8h-.8zM29 51.5v-.8c-.6.7-1.4 1-2.3 1-1.2 0-2.4-.8-2.4-2.3 0-1.5 1.2-2.3 2.4-2.3.9 0 1.7.3 2.3 1v-1.4c0-1-.8-1.6-1.8-1.6-.9 0-1.5.3-2.1 1l-.4-.5c.7-.8 1.5-1.1 2.6-1.1 1.4 0 2.5.7 2.5 2.2v4.8H29zm0-1.3v-1.5c-.5-.6-1.2-.9-2.1-.9-1.1 0-1.9.7-1.9 1.7s.7 1.7 1.9 1.7c.8-.1 1.6-.4 2.1-1zM32.1 50.2v-4.9H31v-.6h1.1v-1.9h.7v1.9h1.4v.6h-1.4V50c0 .6.2.9.7.9.3 0 .6-.2.8-.3l.3.6c-.3.3-.6.4-1.2.4-.8.1-1.3-.5-1.3-1.4zM35.5 48.1c0-2 1.4-3.6 3.3-3.6 2.1 0 3.2 1.6 3.2 3.6v.2h-5.7c.1 1.5 1.1 2.7 2.7 2.7.9 0 1.7-.3 2.2-.9l.4.5c-.7.7-1.5 1.1-2.7 1.1-2 0-3.4-1.5-3.4-3.6zm3.3-3c-1.6 0-2.4 1.4-2.5 2.6h5c-.1-1.1-.8-2.6-2.5-2.6zM43.5 42.9c0-.6.5-1.1 1.1-1.1.6 0 1.1.5 1.1 1.1 0 .6-.5 1.1-1.1 1.1-.7-.1-1.1-.5-1.1-1.1zm.1 8.6v-6.8h1.8v6.8h-1.8zM51.8 51.5v-4.1c0-.9-.5-1.3-1.3-1.3-.7 0-1.2.4-1.6.8v4.6h-1.8v-6.8H49v.9c.4-.5 1.3-1 2.4-1 1.5 0 2.2.8 2.2 2.2v4.8h-1.8zM55.7 49.8v-3.5h-1.1v-1.6h1.1v-1.9h1.8v1.9h1.4v1.6h-1.4v3.1c0 .4.2.8.6.8.3 0 .5-.1.6-.2l.4 1.4c-.3.2-.7.4-1.5.4-1.2-.1-1.9-.8-1.9-2zM59.7 48.1c0-2 1.5-3.6 3.5-3.6s3.4 1.5 3.4 3.7v.4h-5.1c.1.8.8 1.5 2 1.5.6 0 1.4-.2 1.8-.7l.8 1.2c-.7.6-1.8.9-2.8.9-2 .2-3.6-1.2-3.6-3.4zm3.5-2.1c-1.1 0-1.6.8-1.7 1.5h3.4c0-.7-.5-1.5-1.7-1.5zM68 51.5v-6.8h1.8v.9c.5-.6 1.3-1.1 2.2-1.1v1.8h-.5c-.6 0-1.4.3-1.7.8v4.5H68zM77.6 51.5v-4.1c0-.9-.5-1.3-1.3-1.3-.7 0-1.2.4-1.6.8v4.6H73v-6.8h1.8v.9c.4-.5 1.3-1 2.4-1 1.5 0 2.2.8 2.2 2.2v4.8h-1.8zM80.8 48.1c0-2 1.5-3.6 3.5-3.6s3.4 1.5 3.4 3.7v.4h-5.1c.1.8.8 1.5 2 1.5.6 0 1.4-.2 1.8-.7l.8 1.2c-.7.6-1.8.9-2.8.9-2.1.2-3.6-1.2-3.6-3.4zm3.5-2.1c-1.1 0-1.6.8-1.7 1.5H86c-.1-.7-.5-1.5-1.7-1.5zM89.4 49.8v-3.5h-1.1v-1.6h1.1v-1.9h1.8v1.9h1.4v1.6h-1.4v3.1c0 .4.2.8.6.8.3 0 .5-.1.6-.2l.4 1.4c-.3.2-.7.4-1.5.4-1.3-.1-1.9-.8-1.9-2zM98.4 51.5v-.8c-.6.7-1.4 1-2.3 1-1.2 0-2.4-.8-2.4-2.3 0-1.5 1.2-2.3 2.4-2.3.9 0 1.7.3 2.3 1v-1.4c0-1-.8-1.6-1.8-1.6-.9 0-1.5.3-2.1 1l-.5-.5c.7-.8 1.5-1.1 2.6-1.1 1.4 0 2.5.7 2.5 2.2v4.8h-.7zm0-1.3v-1.5c-.5-.6-1.2-.9-2.1-.9-1.1 0-1.9.7-1.9 1.7s.7 1.7 1.9 1.7c.8-.1 1.6-.4 2.1-1zM101 48.1c0-2 1.3-3.6 3.3-3.6 1.2 0 1.9.5 2.4 1.2l-.5.5c-.5-.7-1.1-.9-1.9-.9-1.6 0-2.6 1.3-2.6 2.9 0 1.6 1 2.9 2.6 2.9.7 0 1.4-.3 1.9-1l.5.5c-.6.7-1.2 1.2-2.4 1.2-2-.1-3.3-1.7-3.3-3.7zM108 48.1c0-2 1.3-3.6 3.3-3.6 1.2 0 1.9.5 2.4 1.2l-.5.5c-.5-.7-1.1-.9-1.9-.9-1.6 0-2.6 1.3-2.6 2.9 0 1.6 1 2.9 2.6 2.9.7 0 1.4-.3 1.9-1l.5.5c-.6.7-1.2 1.2-2.4 1.2-2-.1-3.3-1.7-3.3-3.7zM115 48.1c0-2 1.4-3.6 3.3-3.6 2.1 0 3.2 1.6 3.2 3.6v.2h-5.7c.1 1.5 1.1 2.7 2.7 2.7.9 0 1.7-.3 2.2-.9l.4.5c-.7.7-1.5 1.1-2.7 1.1-2 0-3.4-1.5-3.4-3.6zm3.2-3c-1.6 0-2.4 1.4-2.5 2.6h5c0-1.1-.8-2.6-2.5-2.6zM122.8 50.6l.4-.5c.4.6 1.2 1 2.2 1 1.1 0 1.8-.6 1.8-1.4 0-1.9-4.3-.8-4.3-3.3 0-1 .9-1.9 2.4-1.9 1.2 0 1.9.5 2.4 1l-.4.5c-.4-.5-1.1-.9-2-.9-1.1 0-1.7.5-1.7 1.2 0 1.7 4.3.7 4.3 3.3 0 1.1-.8 2-2.6 2-1 .1-1.9-.3-2.5-1zM129.2 50.6l.4-.5c.4.6 1.2 1 2.2 1 1.1 0 1.8-.6 1.8-1.4 0-1.9-4.3-.8-4.3-3.3 0-1 .9-1.9 2.4-1.9 1.2 0 1.9.5 2.4 1l-.4.5c-.4-.5-1.1-.9-2-.9-1.1 0-1.7.5-1.7 1.2 0 1.7 4.3.7 4.3 3.3 0 1.1-.8 2-2.6 2-.9.1-1.8-.3-2.5-1z"/><g><path class="st7" d="M136.9 43.6v2.7h-.4v-2.7h-.9v-.4h2.1v.4h-.8zm4 2.7v-2.5l-1 2.5h-.1l-1-2.5v2.5h-.4v-3.1h.6l.9 2.2.9-2.2h.6v3.1h-.5z"/></g></g></svg>
