<?xml version="1.0" encoding="UTF-8" standalone="no"?>
<!-- Created with Inkscape (http://www.inkscape.org/) -->

<svg
   xmlns:dc="http://purl.org/dc/elements/1.1/"
   xmlns:cc="http://creativecommons.org/ns#"
   xmlns:rdf="http://www.w3.org/1999/02/22-rdf-syntax-ns#"
   xmlns:svg="http://www.w3.org/2000/svg"
   xmlns="http://www.w3.org/2000/svg"
   xmlns:sodipodi="http://sodipodi.sourceforge.net/DTD/sodipodi-0.dtd"
   xmlns:inkscape="http://www.inkscape.org/namespaces/inkscape"
   width="306"
   height="72"
   id="svg12357"
   version="1.1"
   inkscape:version="0.48.4 r9939"
   sodipodi:docname="greyscale-white-on-black.svg">
  <defs
     id="defs12359" />
  <sodipodi:namedview
     id="base"
     pagecolor="#ffffff"
     bordercolor="#666666"
     borderopacity="1.0"
     inkscape:pageopacity="0.0"
     inkscape:pageshadow="2"
     inkscape:zoom="0.98994949"
     inkscape:cx="231.95887"
     inkscape:cy="-44.558515"
     inkscape:document-units="px"
     inkscape:current-layer="layer1"
     showgrid="false"
     fit-margin-top="0"
     fit-margin-left="0"
     fit-margin-right="0"
     fit-margin-bottom="0"
     inkscape:window-width="948"
     inkscape:window-height="535"
     inkscape:window-x="482"
     inkscape:window-y="198"
     inkscape:window-maximized="0" />
  <metadata
     id="metadata12362">
    <rdf:RDF>
      <cc:Work
         rdf:about="">
        <dc:format>image/svg+xml</dc:format>
        <dc:type
           rdf:resource="http://purl.org/dc/dcmitype/StillImage" />
      </cc:Work>
    </rdf:RDF>
  </metadata>
  <g
     inkscape:label="Layer 1"
     inkscape:groupmode="layer"
     id="layer1"
     transform="translate(-235.57143,-333.50504)">
    <g
       id="g13290">
      <rect
         style="fill:#2e3436;fill-opacity:1;stroke:none"
         id="rect7531"
         width="306"
         height="72"
         x="235.57143"
         y="333.50504" />
      <g
         id="g13280">
        <path
           sodipodi:nodetypes="cccccccccsccsssssssscccsccccccccccssc"
           style="font-size:67.76039124px;font-style:normal;font-variant:normal;font-weight:bold;font-stretch:normal;text-align:start;line-height:100%;writing-mode:lr-tb;text-anchor:start;fill:#ffffff;fill-opacity:1;stroke:none;font-family:URW Palladio L"
           d="m 481.86844,341.34781 c -4.28377,2.10201 -8.48815,0.97939 -13.0625,1.22687 l 0,2.46875 3.5625,0.1875 c 1.49073,0.0678 1.78125,2.43152 1.78125,6.42938 l 0,8.25 -1.375,-0.53125 c -1.89729,-0.74537 -3.71224,-1.15625 -5.40625,-1.15625 -0.91283,-0.0291 -1.79974,0.1677 -2.6875,0.34375 -2.10431,0.45216 -4.01816,1.19631 -5.6875,2.15625 -0.87297,0.50199 -1.69027,1.07079 -2.40625,1.6875 -2.10673,1.69843 -3.66355,3.67491 -4.375,5.75 -0.91728,2.0025 -1.375,4.40098 -1.375,7.28125 10e-6,9.24181 4.57513,15.24393 11.875,15.78125 0.31228,0.023 0.61532,0.0598 0.9375,0.0625 0.0413,5e-4 0.0837,-10e-6 0.125,0 0.28912,0 0.55603,-0.0126 0.8125,-0.0312 0.31032,-0.0244 0.62786,-0.0718 0.9375,-0.125 0.12769,-0.0257 0.25805,-0.0302 0.375,-0.0625 0.80053,-0.16895 1.59052,-0.44131 2.375,-0.8125 2.35579,-1.11468 4.34834,-3.01367 5.875,-5.46875 -0.008,0.12142 -0.34375,5.03125 -0.34375,5.03125 0,0 0.34375,0.53125 0.34375,0.53125 4.06561,-0.13552 5.34839,-0.21875 6.09375,-0.21875 0.54208,0 1.75896,0.0885 3.65625,0.15625 0.47432,10e-6 1.76453,-0.005 3.1875,0.0625 l 0,-2.5 -2.25,-0.15625 c -2.10056,-0.13552 -2.4375,-0.65344 -2.4375,-4.3125 l 0,-41.625 -0.53125,-0.40625 z m -15.3125,21.21875 c 2.9137,0 5.35766,1.36756 7.59375,4.28125 l 0,12.4375 c 0,3.04921 -3.17943,5.5625 -6.90625,5.5625 -4.81099,0 -7.875,-4.65064 -7.875,-11.96875 0,-6.84379 2.37652,-10.3125 7.1875,-10.3125 z"
           id="path7551"
           inkscape:connector-curvature="0" />
        <path
           style="font-size:67.76039124px;font-style:normal;font-variant:normal;font-weight:bold;font-stretch:normal;text-align:start;line-height:100%;writing-mode:lr-tb;text-anchor:start;fill:#ffffff;fill-opacity:1;stroke:none;font-family:URW Palladio L"
           d="m 293.18094,358.22281 c -4.05871,2.12534 -8.08967,1.24761 -12.40625,1.53125 l 0,2.4375 3.0625,0.21875 c 1.55849,0.13552 1.75,2.12714 1.75,6.125 l 0,14.84375 c 0,3.65905 -0.33693,4.17698 -2.4375,4.3125 l -2.375,0.15625 0,2.5 c 0,0 8.75,-0.21875 8.75,-0.21875 0.88088,0 1.07111,0.0155 10.21875,0.21875 l 0,-2.5 -2.625,-0.15625 c -2.9137,-0.13552 -3.25,-0.51792 -3.25,-4.3125 l 0,-13.4375 c 0,-2.10057 2.7636,-4.34375 5.40625,-4.34375 0.34005,0 0.28882,-0.0621 0.5931,0.005 0.60246,1.87743 2.32577,3.27589 3.93815,3.27589 2.16484,0 3.9375,-2.36122 3.9375,-5.28125 0,-2.8073 -1.63844,-5.0767 -3.6875,-5.25 -0.50772,-0.0614 -0.98072,-0.11733 -1.46875,-0.125 -1.89615,-0.0298 -3.17511,0.81558 -5.75,3.59375 l -2.96875,3.25 0,-6.4375 -0.6875,-0.40625 z"
           id="path7553"
           sodipodi:nodetypes="cccccccccccccccscsscscccc"
           inkscape:connector-curvature="0" />
        <path
           sodipodi:nodetypes="csccsssccsccccccccccccc"
           style="font-size:67.76039124px;font-style:normal;font-variant:normal;font-weight:bold;font-stretch:normal;text-align:start;line-height:100%;writing-mode:lr-tb;text-anchor:start;fill:#ffffff;fill-opacity:1;stroke:none;font-family:URW Palladio L"
           d="m 323.52469,358.22281 c -1.00083,0 -1.883,0.1013 -2.71875,0.28125 -0.27182,0.0585 -0.55113,0.10859 -0.8125,0.1875 -4.56723,1.23429 -8.2054,3.82557 -9.9375,7.09375 -1.44827,2.32471 -2.125,5.27211 -2.125,9.03125 0,10.77389 5.43496,16.46875 15.53125,16.46875 3.86233,0 6.34304,-0.71913 10.6875,-2.90625 1.68148,-0.8465 2.28098,-1.32187 2.28098,-1.32187 l -1.59348,-2.95938 c -3.18474,1.76176 -5.22709,2.375 -7.9375,2.375 -3.52354,0 -6.83724,-1.89881 -8.53125,-4.8125 -1.08417,-1.89729 -1.48948,-3.44026 -1.625,-6.625 l 8.875,0 c 3.86234,0 6.92417,-0.39511 10.71875,-1.34375 l 0,-3.53125 c 0,-7.25035 -5.08782,-11.9375 -12.8125,-11.9375 z m -1.4375,3.8125 c 3.86234,0 5.48948,2.69798 5.625,9.40625 l -5.6875,0.1875 -0.28125,0 c -0.40656,-10e-6 -2.2336,-0.0572 -3.25,-0.125 l -2.15625,-0.0625 c 0.20328,-6.70827 1.8199,-9.40625 5.75,-9.40625 z"
           id="path7555"
           inkscape:connector-curvature="0" />
        <path
           sodipodi:nodetypes="cccccccccccccccsccsccccccsscccc"
           style="font-size:67.76039124px;font-style:normal;font-variant:normal;font-weight:bold;font-stretch:normal;text-align:start;line-height:100%;writing-mode:lr-tb;text-anchor:start;fill:#ffffff;fill-opacity:1;stroke:none;font-family:URW Palladio L"
           d="m 387.14969,358.22281 c -7.04707,2.30385 -8.96068,0.89047 -12.6875,1.09375 l 0,2.4375 3.0625,0.21875 c 1.55848,0.13552 1.75,2.56464 1.75,6.5625 l 0,14.84375 c 0,3.65905 -0.33693,4.17698 -2.4375,4.3125 l -2.375,0.15625 0,2.5 c 0,0 8.75,-0.21875 8.75,-0.21875 1.35521,0 4.61631,0.0832 9.15625,0.21875 l 0,-2.5 -2.375,-0.15625 c -2.10058,-0.13552 -2.4375,-0.65344 -2.4375,-4.3125 l 0,-14.71875 c 0,-2.37161 2.76855,-4.59375 5.75,-4.59375 4.47218,0 6.375,2.36042 6.375,7.78125 l 0,18.5 c 3.86234,-0.13552 5.00958,-0.21875 6.09375,-0.21875 0.94865,0 0.9486,0.0155 6.84375,0.21875 l 0,-2.5 -2.21875,-0.15625 c -2.10057,-0.13552 -2.4375,-0.65344 -2.4375,-4.3125 l 0,-12.625 c 0,-5.21755 -0.61323,-7.79021 -2.375,-9.6875 -1.76177,-1.82952 -4.55474,-2.84375 -7.875,-2.84375 -1.67848,0 -3.07556,0.28397 -4.125,0.875 -0.0627,0.0353 -0.12739,0.0562 -0.1875,0.0937 -2.34944,1.14904 -4.33004,2.66823 -5.84375,4.375 l 0,-4.9375 -0.40625,-0.40625 z"
           id="path7557"
           inkscape:connector-curvature="0" />
        <path
           style="font-size:67.76039124px;font-style:normal;font-variant:normal;font-weight:bold;font-stretch:normal;text-align:start;line-height:100%;writing-mode:lr-tb;text-anchor:start;fill:#ffffff;fill-opacity:1;stroke:none;font-family:URW Palladio L"
           d="m 431.71219,358.22281 c -10.77389,0 -16.71875,5.97611 -16.71875,16.75 0,10.43509 5.54975,16.3125 15.375,16.3125 10.84165,0 16.9375,-6.14783 16.9375,-17.125 0,-10.29957 -5.56522,-15.9375 -15.59375,-15.9375 z m -0.8125,3.25 c 4.87874,0 7.1875,4.82048 7.1875,14.78125 0,8.26676 -1.8923,11.78125 -6.5,11.78125 -4.87874,0 -7.375,-4.93001 -7.375,-14.6875 0,-8.199 2.01204,-11.875 6.6875,-11.875 z"
           id="path7559"
           inkscape:connector-curvature="0" />
        <path
           sodipodi:nodetypes="ccccccccccccscccccccccccscssccc"
           id="path7561"
           d="m 275.39969,341.34781 c -0.92778,-0.004 -1.63557,0.17608 -2.4375,0.375 -6.37685,1.63384 -11.19091,5.88703 -12.21875,11.09375 -0.32019,1.19492 -0.40625,2.67048 -0.40625,4.875 l 0,2.90625 c -1.76177,1.21969 -3.10766,1.97833 -5.34375,3.0625 l 0,1.625 5.34375,-0.34375 0,18.4375 c 0,3.72681 -0.33662,4.17698 -2.84375,4.3125 l -2.78125,0.15625 0,2.5 c 8.26676,-0.20328 8.27505,-0.21875 9.5625,-0.21875 0.94864,0 0.956,0.0155 10.78125,0.21875 l 0,-2.5 -3.0625,-0.15625 c -1.82953,-0.0678 -2.98422,-0.53589 -3.1875,-1.28125 -0.13552,-0.60984 -0.1875,-1.405 -0.1875,-3.03125 l 0,-18.4375 8.40625,0 0.71875,-3.9375 -0.25,-0.53125 c -4.40442,0.20328 -6.09683,0.25 -8.875,0.25 l 0,-7.3125 c 0,-2.57489 0.18193,-3.77537 0.65625,-4.65625 0.49308,-0.92454 1.57459,-1.44202 2.9375,-1.53125 0.39044,1.05901 0.8072,1.95501 1.21875,2.4375 1.65201,1.9368 4.5632,2.15201 6.5,0.5 1.72357,-1.47013 2.10038,-3.92209 1,-5.8125 -0.55488,-1.16602 -1.5142,-2.1028 -2.6875,-2.59375 -0.91002,-0.37826 -1.87776,-0.3779 -2.84375,-0.40625 z"
           style="font-size:67.76039124px;font-style:normal;font-variant:normal;font-weight:bold;font-stretch:normal;text-align:start;line-height:100%;writing-mode:lr-tb;text-anchor:start;fill:#ffffff;fill-opacity:1;stroke:none;font-family:URW Palladio L"
           inkscape:connector-curvature="0" />
        <path
           id="path7563"
           d="m 357.52469,358.22281 c -1.00083,0 -1.883,0.1013 -2.71875,0.28125 -0.27182,0.0585 -0.55113,0.10859 -0.8125,0.1875 -4.56723,1.23429 -8.2054,3.82557 -9.9375,7.09375 -1.44827,2.32471 -2.125,5.27211 -2.125,9.03125 0,10.77389 5.43496,16.46875 15.53125,16.46875 3.86234,0 6.34304,-0.71913 10.6875,-2.90625 1.68148,-0.8465 2.28098,-1.32187 2.28098,-1.32187 l -1.59348,-2.95938 c -3.18474,1.76176 -5.22709,2.375 -7.9375,2.375 -3.52354,0 -6.83724,-1.89881 -8.53125,-4.8125 -1.08417,-1.89729 -1.48948,-3.44026 -1.625,-6.625 l 8.875,0 c 3.86234,0 6.92417,-0.39511 10.71875,-1.34375 l 0,-3.53125 c 0,-7.25035 -5.08782,-11.9375 -12.8125,-11.9375 z m -1.4375,3.8125 c 3.86234,0 5.48948,2.69798 5.625,9.40625 l -5.6875,0.1875 -0.28125,0 c -0.40656,-10e-6 -2.23359,-0.0572 -3.25,-0.125 l -2.15625,-0.0625 c 0.20328,-6.70827 1.8199,-9.40625 5.75,-9.40625 z"
           style="font-size:67.76039124000000413px;font-style:normal;font-variant:normal;font-weight:bold;font-stretch:normal;text-align:start;line-height:100%;writing-mode:lr-tb;text-anchor:start;fill:#ffffff;fill-opacity:1;stroke:none;font-family:URW Palladio L"
           sodipodi:nodetypes="csccsssccsccccccccccccc"
           inkscape:connector-curvature="0" />
        <path
           sodipodi:nodetypes="csccsssccsccccccccccccc"
           style="font-size:67.76039124px;font-style:normal;font-variant:normal;font-weight:bold;font-stretch:normal;text-align:start;line-height:100%;writing-mode:lr-tb;text-anchor:start;fill:#ffffff;fill-opacity:1;stroke:none;font-family:URW Palladio L"
           d="m 507.52469,358.22281 c -1.00083,0 -1.883,0.1013 -2.71875,0.28125 -0.27182,0.0585 -0.55113,0.10859 -0.8125,0.1875 -4.56723,1.23429 -8.2054,3.82557 -9.9375,7.09375 -1.44827,2.32471 -2.125,5.27211 -2.125,9.03125 0,10.77389 5.43496,16.46875 15.53125,16.46875 3.86234,0 6.34304,-0.71913 10.6875,-2.90625 1.68148,-0.8465 2.28098,-1.32187 2.28098,-1.32187 l -1.59348,-2.95938 c -3.18474,1.76176 -5.22709,2.375 -7.9375,2.375 -3.52354,0 -6.83724,-1.89881 -8.53125,-4.8125 -1.08417,-1.89729 -1.48948,-3.44026 -1.625,-6.625 l 8.875,0 c 3.86234,0 6.92417,-0.39511 10.71875,-1.34375 l 0,-3.53125 c 0,-7.25035 -5.08782,-11.9375 -12.8125,-11.9375 z m -1.4375,3.8125 c 3.86234,0 5.48948,2.69798 5.625,9.40625 l -5.6875,0.1875 -0.28125,0 c -0.40656,-10e-6 -2.23359,-0.0572 -3.25,-0.125 l -2.15625,-0.0625 c 0.20328,-6.70827 1.8199,-9.40625 5.75,-9.40625 z"
           id="path7565"
           inkscape:connector-curvature="0" />
      </g>
    </g>
  </g>
</svg>
