<?xml version="1.0" encoding="utf-8"?>
<!-- Generator: Adobe Illustrator 19.1.0, SVG Export Plug-In . SVG Version: 6.00 Build 0)  -->
<svg version="1.1" id="Capa_1" xmlns="http://www.w3.org/2000/svg" xmlns:xlink="http://www.w3.org/1999/xlink" x="0px" y="0px"
	 viewBox="0 0 239.3 268" style="enable-background:new 0 0 239.3 268;" xml:space="preserve">
<style type="text/css">
	.st0{fill:#349334;}
	.st1{fill:url(#SVGID_1_);}
	.st2{fill:#118011;}
	.st3{fill:#FFFFFF;}
	.st4{fill:url(#SVGID_2_);}
	.st5{fill:url(#SVGID_3_);}
</style>
<g>
	<g>
		<g>
			<path class="st0" d="M208.8,102.4L208.8,102.4l-9.8,0l0-8.7c0-43.4-35.3-78.5-78.9-78.6c-43.6,0-79,35.1-79,78.5l0,8.7l-9.8,0
				c-10.3,0-18.6,8.2-18.6,18.4l0,72.1c0,4.8,0.3,8.3,2.2,10.8c1.9,2.6,5.2,3.5,10.1,3.5l15.7,0l2.4,38c0,0.1,0,0.2,0,0.4
				c0,1,0.1,3.3,1.4,5.5c1.2,2.2,3.9,4.2,8.1,4.2l39.9,0l20.7-22l15.5,0l20,22.7l0.6,0c0,0,7.3,0,15.3,0c8,0,16.8,0,19.9,0h0h0
				c3.1,0,5.9,0.1,8.4-1.5c2.4-1.6,3.9-4.6,4.6-9.9c1-7.7,1.3-28.6,1.8-37.4l15.7,0c4.8,0,8-0.5,10-2.7c2-2.2,2.2-5.4,2.3-10.2
				l0-73.4C227.3,110.6,219,102.4,208.8,102.4z"/>
			<radialGradient id="SVGID_1_" cx="77.5047" cy="56" r="264.0701" gradientUnits="userSpaceOnUse">
				<stop  offset="0" style="stop-color:#5EBB47"/>
				<stop  offset="1" style="stop-color:#3BB54A"/>
			</radialGradient>
			<path class="st1" d="M224.8,194.3c0,4.7-0.5,7.4-1.6,8.6c-1.1,1.3-3.5,1.9-8.2,1.9l-18,0l-0.1,1.2c-0.4,8.3-0.7,30.6-1.8,38.4
				c-0.7,5-2,7.2-3.5,8.1c-1.5,1-3.9,1.1-7,1.1h0c-5.7,0-30.6,0-34.7,0l-20-22.7l-17.7,0l-20.7,22l-38.8,0c-3.5,0-5-1.4-6-3
				c-0.9-1.6-1.1-3.5-1.1-4.3c0-0.2,0-0.3,0-0.3l0-0.1L43,204.6l-18,0c-4.7,0-6.9-0.9-8.1-2.5c-1.3-1.6-1.7-4.6-1.7-9.4l0-72.1
				c0-8.8,7.2-16,16.1-16l12.2,0l0-11.2c0.1-42,34.3-76,76.5-76c42.2,0.1,76.4,34.1,76.4,76.1l0,11.2l12.2,0c8.9,0,16.1,7.2,16.1,16
				L224.8,194.3z"/>
			<rect x="45.9" y="202.7" class="st2" width="148.6" height="4.8"/>
			<polygon class="st2" points="43.4,204.4 43.4,111.3 45.9,111.3 45.9,204.4 43.4,204.4 			"/>
			<polygon class="st2" points="194.4,204.5 194.5,111.4 197,111.4 196.9,204.5 194.4,204.5 			"/>
			<path class="st3" d="M168.6,106.5l0-14.2c0-26.8-21.7-48.5-48.5-48.6c-26.8,0-48.5,21.7-48.6,48.5l0,14.2L168.6,106.5z"/>
			<circle cx="103.9" cy="70.2" r="9"/>
			<path d="M144.8,70.3c0,5-4,9-9,9c-5,0-9-4-9-9c0-5,4-9,9-9C140.8,61.3,144.8,65.3,144.8,70.3z"/>
			<path class="st2" d="M217.4,209.7c0.9,0,1.7,0,2.4-0.1l0-2.7c-1.4,0.2-3,0.3-4.9,0.3l-15.7,0c-0.2,4.4-0.4,11.8-0.7,19l2.6,0
				c0.2-6.4,0.4-12.6,0.6-16.5L217.4,209.7z"/>
			<radialGradient id="SVGID_2_" cx="77.5047" cy="56" r="264.0701" gradientUnits="userSpaceOnUse">
				<stop  offset="0" style="stop-color:#5EBB47"/>
				<stop  offset="1" style="stop-color:#3BB54A"/>
			</radialGradient>
			<path class="st4" d="M219.9,210.9l0-1.4c-0.8,0-1.6,0.1-2.4,0.1l-15.7,0c-0.2,3.9-0.4,10.1-0.6,16.5l3.6,0
				C213.1,226.2,219.9,219.4,219.9,210.9z"/>
			<path class="st2" d="M40.7,207.1l-15.7,0c-2.4,0-4.5-0.2-6.1-0.8l0,3.2c1,0.1,2.1,0.2,3.3,0.2l15.7,0l1,16.4l3,0L40.7,207.1z"/>
			<radialGradient id="SVGID_3_" cx="77.5047" cy="56" r="264.0701" gradientUnits="userSpaceOnUse">
				<stop  offset="0" style="stop-color:#5EBB47"/>
				<stop  offset="1" style="stop-color:#3BB54A"/>
			</radialGradient>
			<path class="st5" d="M22.1,209.6c-1.2,0-2.3-0.1-3.3-0.2l0,1.4c0,8.4,6.7,15.2,15.1,15.3l4.9,0l-1-16.4L22.1,209.6z"/>
			<path d="M145.5,91.5c-14.9,9.1-33.7,9.1-48.6,0c0.9-1.4,1.8-2.9,2.6-4.3c13.3,8.1,30,8.2,43.3,0C143.8,88.6,144.6,90,145.5,91.5z
				"/>
		</g>
		<path class="st3" d="M139.6,149l-3.3,0l0-5.4c0-8.9-7.4-16.1-16.3-16.1c-8.9,0-16.3,7.2-16.3,16.1l0,5.4l-3.6,0
			c-0.7,0-1.6,1.2-1.6,2l0,29.3c0,0.7,0.9,1.3,1.6,1.3l39.5,0c0.7,0,2-0.6,2-1.3l0-29.3C141.6,150.2,140.3,149,139.6,149z M127,149
			l-14,0l0-5.4c0-3.8,3.2-6.9,7-6.9c3.8,0,7,3.1,7,6.9L127,149z"/>
	</g>
</g>
</svg>
