<?xml version="1.0" encoding="UTF-8" standalone="no"?>
<svg
   xmlns:dc="http://purl.org/dc/elements/1.1/"
   xmlns:cc="http://creativecommons.org/ns#"
   xmlns:rdf="http://www.w3.org/1999/02/22-rdf-syntax-ns#"
   xmlns:svg="http://www.w3.org/2000/svg"
   xmlns="http://www.w3.org/2000/svg"
   height="140.88193"
   width="395.16058"
   xml:space="preserve"
   viewBox="0 0 395.1606 140.88192"
   y="0px"
   x="0px"
   id="Layer_1"
   version="1.1"><metadata
   id="metadata2092"><rdf:RDF><cc:Work
       rdf:about=""><dc:format>image/svg+xml</dc:format><dc:type
         rdf:resource="http://purl.org/dc/dcmitype/StillImage" /><dc:title></dc:title></cc:Work></rdf:RDF></metadata><defs
   id="defs2090">
	
	
	
</defs>
<style
   id="style1468"
   type="text/css">
	.st0{fill:#04222E;}
	.st1{fill:#F6F6F6;}
	.st2{fill-rule:evenodd;clip-rule:evenodd;fill:url(#SVGID_1_);}
	.st3{fill-rule:evenodd;clip-rule:evenodd;fill:url(#SVGID_2_);}
	.st4{fill-rule:evenodd;clip-rule:evenodd;fill:url(#SVGID_3_);}
	.st5{fill-rule:evenodd;clip-rule:evenodd;fill:url(#SVGID_4_);}
	.st6{fill-rule:evenodd;clip-rule:evenodd;fill:url(#SVGID_5_);}
	.st7{fill-rule:evenodd;clip-rule:evenodd;fill:url(#SVGID_6_);}
	.st8{fill-rule:evenodd;clip-rule:evenodd;fill:url(#SVGID_7_);}
	.st9{fill-rule:evenodd;clip-rule:evenodd;fill:url(#SVGID_8_);}
	.st10{fill-rule:evenodd;clip-rule:evenodd;fill:url(#SVGID_9_);}
	.st11{fill-rule:evenodd;clip-rule:evenodd;fill:url(#SVGID_10_);}
	.st12{fill-rule:evenodd;clip-rule:evenodd;fill:url(#SVGID_11_);}
	.st13{fill-rule:evenodd;clip-rule:evenodd;fill:url(#SVGID_12_);}
	.st14{fill-rule:evenodd;clip-rule:evenodd;fill:url(#SVGID_13_);}
	.st15{fill-rule:evenodd;clip-rule:evenodd;fill:url(#SVGID_14_);}
	.st16{fill-rule:evenodd;clip-rule:evenodd;fill:url(#SVGID_15_);}
	.st17{fill-rule:evenodd;clip-rule:evenodd;fill:url(#SVGID_16_);}
	.st18{enable-background:new    ;}
	.st19{display:none;}
	.st20{display:inline;fill:#04222E;}
	.st21{display:inline;}
	.st22{fill-rule:evenodd;clip-rule:evenodd;fill:url(#SVGID_17_);}
	.st23{fill-rule:evenodd;clip-rule:evenodd;fill:url(#SVGID_18_);}
	.st24{fill-rule:evenodd;clip-rule:evenodd;fill:url(#SVGID_19_);}
	.st25{fill-rule:evenodd;clip-rule:evenodd;fill:url(#SVGID_20_);}
	.st26{fill-rule:evenodd;clip-rule:evenodd;fill:url(#SVGID_21_);}
	.st27{fill-rule:evenodd;clip-rule:evenodd;fill:url(#SVGID_22_);}
	.st28{fill-rule:evenodd;clip-rule:evenodd;fill:url(#SVGID_23_);}
	.st29{fill-rule:evenodd;clip-rule:evenodd;fill:url(#SVGID_24_);}
	.st30{fill-rule:evenodd;clip-rule:evenodd;fill:url(#SVGID_25_);}
	.st31{fill-rule:evenodd;clip-rule:evenodd;fill:url(#SVGID_26_);}
	.st32{fill-rule:evenodd;clip-rule:evenodd;fill:url(#SVGID_27_);}
	.st33{fill-rule:evenodd;clip-rule:evenodd;fill:url(#SVGID_28_);}
	.st34{fill-rule:evenodd;clip-rule:evenodd;fill:url(#SVGID_29_);}
	.st35{fill-rule:evenodd;clip-rule:evenodd;fill:url(#SVGID_30_);}
	.st36{fill-rule:evenodd;clip-rule:evenodd;fill:url(#SVGID_31_);}
	.st37{fill-rule:evenodd;clip-rule:evenodd;fill:url(#SVGID_32_);}
	.st38{font-family:'JanoSansPro-RegularItalic';}
	.st39{font-size:16px;}
	.st40{fill-rule:evenodd;clip-rule:evenodd;fill:url(#SVGID_33_);}
	.st41{fill-rule:evenodd;clip-rule:evenodd;fill:url(#SVGID_34_);}
	.st42{fill-rule:evenodd;clip-rule:evenodd;fill:url(#SVGID_35_);}
	.st43{fill-rule:evenodd;clip-rule:evenodd;fill:url(#SVGID_36_);}
	.st44{fill-rule:evenodd;clip-rule:evenodd;fill:url(#SVGID_37_);}
	.st45{fill-rule:evenodd;clip-rule:evenodd;fill:url(#SVGID_38_);}
	.st46{fill-rule:evenodd;clip-rule:evenodd;fill:url(#SVGID_39_);}
	.st47{fill-rule:evenodd;clip-rule:evenodd;fill:url(#SVGID_40_);}
	.st48{fill-rule:evenodd;clip-rule:evenodd;fill:url(#SVGID_41_);}
	.st49{fill-rule:evenodd;clip-rule:evenodd;fill:url(#SVGID_42_);}
	.st50{fill-rule:evenodd;clip-rule:evenodd;fill:url(#SVGID_43_);}
	.st51{fill-rule:evenodd;clip-rule:evenodd;fill:url(#SVGID_44_);}
	.st52{fill-rule:evenodd;clip-rule:evenodd;fill:url(#SVGID_45_);}
	.st53{fill-rule:evenodd;clip-rule:evenodd;fill:url(#SVGID_46_);}
	.st54{fill-rule:evenodd;clip-rule:evenodd;fill:url(#SVGID_47_);}
	.st55{fill-rule:evenodd;clip-rule:evenodd;fill:url(#SVGID_48_);}
	.st56{fill-rule:evenodd;clip-rule:evenodd;fill:url(#SVGID_49_);}
	.st57{fill-rule:evenodd;clip-rule:evenodd;fill:url(#SVGID_50_);}
	.st58{fill-rule:evenodd;clip-rule:evenodd;fill:url(#SVGID_51_);}
	.st59{fill-rule:evenodd;clip-rule:evenodd;fill:url(#SVGID_52_);}
	.st60{fill-rule:evenodd;clip-rule:evenodd;fill:url(#SVGID_53_);}
	.st61{fill-rule:evenodd;clip-rule:evenodd;fill:url(#SVGID_54_);}
	.st62{fill-rule:evenodd;clip-rule:evenodd;fill:url(#SVGID_55_);}
	.st63{fill-rule:evenodd;clip-rule:evenodd;fill:url(#SVGID_56_);}
	.st64{fill-rule:evenodd;clip-rule:evenodd;fill:url(#SVGID_57_);}
	.st65{fill-rule:evenodd;clip-rule:evenodd;fill:url(#SVGID_58_);}
	.st66{fill-rule:evenodd;clip-rule:evenodd;fill:url(#SVGID_59_);}
	.st67{fill-rule:evenodd;clip-rule:evenodd;fill:url(#SVGID_60_);}
	.st68{fill-rule:evenodd;clip-rule:evenodd;fill:url(#SVGID_61_);}
	.st69{fill-rule:evenodd;clip-rule:evenodd;fill:url(#SVGID_62_);}
	.st70{fill-rule:evenodd;clip-rule:evenodd;fill:url(#SVGID_63_);}
	.st71{fill-rule:evenodd;clip-rule:evenodd;fill:url(#SVGID_64_);}
</style>
<g
   transform="translate(6.3605928,1.6173535)"
   id="e143ae51-3470-4d3a-97bb-c1e324d13877">
		<g
   id="e545882f-945c-4f9f-a4f9-78de2c5c49a7">
			<path
   class="st1"
   d="m 120,90.1 3.5,-7.8 c 4.8,2.5 9.8,3.8 15.1,4 3.5,0 5.3,-1.3 5.3,-3.3 0,-1 -0.5,-2 -1.5,-2.5 -2,-1 -4.3,-2 -6.6,-2.5 -3.8,-0.8 -7.1,-2.3 -10.3,-4.3 -3,-2 -4.8,-5.3 -4.8,-8.8 0,-3.3 1.5,-6.3 4,-8.3 3.3,-2.5 7.6,-3.8 11.6,-3.5 6,0.2 12.1,1.5 17.6,4 l -3.5,7.8 c -4.5,-2 -9.3,-3 -14.4,-3.5 -3.3,0 -5,1.3 -5,3 0,1.7 1.5,3 7.6,4.8 3.8,1 7.6,2.5 10.8,4.5 3,1.8 5,5.3 4.8,8.8 0,3.3 -1.8,6.3 -4.3,8.3 -3.5,2.5 -7.6,3.8 -11.8,3.5 -6.2,0.6 -12.5,-1.1 -18.1,-4.2 z"
   id="path1472" />
			<path
   class="st1"
   d="m 200.1,65.4 v 29 H 189.3 V 69.2 c 0,-4 -1.5,-6 -6,-6 -3.8,0.2 -7.3,1.3 -10.6,2.8 V 94.7 H 161.9 V 37.2 h 10.8 v 20.4 c 4.5,-2.5 9.6,-4 14.9,-4.3 8.3,0.1 12.5,4.1 12.5,12.1 z"
   id="path1474" />
			<path
   class="st1"
   d="m 246,78.8 h -28.2 c 1,5 5.5,8.3 10.6,7.8 4.3,-0.2 8.6,-1 12.3,-3 l 3.3,7.6 c -5.3,2.5 -11.1,3.8 -16.9,3.8 -5.5,0.2 -10.8,-1.8 -14.6,-5.8 -3.8,-4 -5.8,-9.6 -5.5,-15.1 -0.2,-5.5 1.8,-11.1 5.5,-15.1 3.8,-3.8 9.1,-6 14.6,-5.8 5.3,-0.2 10.6,2 14.1,6.3 3.3,4.5 5,10.3 4.8,15.9 z m -28.5,-7.6 h 18.6 c -0.8,-6.6 -3.5,-9.6 -8.8,-9.6 -5.3,0 -9,3.8 -9.8,9.6 z"
   id="path1476" />
			<path
   class="st1"
   d="M 253,83.1 V 37.2 h 10.8 v 44.3 c 0,2.5 1.3,3.8 3.5,3.8 0.8,0 1.8,0 2.8,-0.2 l 0.8,9.1 c -2,0.2 -3.8,0.5 -5.8,0.5 -10,0.2 -12.1,-7.1 -12.1,-11.6 z"
   id="path1478" />
			<path
   class="st1"
   d="M 277,83.1 V 37.2 h 10.8 v 44.3 c 0,2.5 1.3,3.8 3.5,3.8 0.8,0 1.8,0 2.8,-0.2 l 0.8,9.1 c -2,0.2 -3.8,0.5 -5.8,0.5 C 279,94.9 277,87.6 277,83.1 Z"
   id="path1480" />
			<path
   class="st1"
   d="m 298.6,90.1 3.5,-7.8 c 4.8,2.5 9.8,3.8 15.1,4 3.5,0 5.3,-1.3 5.3,-3.3 0,-1 -0.5,-2 -1.5,-2.5 -2,-1 -4.3,-2 -6.6,-2.5 -3.8,-0.8 -7.1,-2.3 -10.3,-4.3 -3,-2 -4.8,-5.3 -4.8,-8.8 0,-3.3 1.5,-6.3 4,-8.3 3.3,-2.5 7.6,-3.8 11.6,-3.5 6,0.2 12.1,1.5 17.6,4 l -3.5,7.8 c -4.5,-2 -9.3,-3 -14.4,-3.5 -3.3,0 -5,1.3 -5,3 0,1.7 1.5,3 7.6,4.8 3.8,1 7.6,2.5 10.8,4.5 3,1.8 5,5.3 4.8,8.8 0,3.3 -1.8,6.3 -4.3,8.3 -3.5,2.5 -7.6,3.8 -11.8,3.5 -6.2,0.6 -12.5,-1.1 -18.1,-4.2 z"
   id="path1482" />
			<path
   class="st1"
   d="m 350,31.2 v 2 h -5.8 v 15.4 h -2 V 33.2 h -5.8 v -2 z"
   id="path1484" />
			<path
   class="st1"
   d="m 368.7,48.6 h -2 l -0.5,-14.1 -4.5,9.8 c -0.2,0.5 -0.5,0.8 -1,0.8 -0.5,0 -0.8,-0.2 -1,-0.8 l -4.5,-9.8 -0.5,13.9 h -2 l 0.5,-16.1 c 0,-0.8 0.8,-1.5 1.5,-1.5 v 0 c 0.5,0 1.3,0.2 1.5,0.8 l 4.8,10.1 4.8,-10.1 c 0.2,-0.5 0.8,-0.8 1.5,-0.8 0.8,0 1.5,0.5 1.5,1.5 v 0 z"
   id="path1486" />
			<g
   id="g1600">
				
					<linearGradient
   id="SVGID_1_"
   gradientUnits="userSpaceOnUse"
   x1="139.22839"
   y1="-312.59531"
   x2="113.993"
   y2="-346.737"
   gradientTransform="matrix(1,0.00780631,0.00780631,-1,-79.3104,-265.4356)">
					<stop
   offset="0"
   style="stop-color:#52BD15"
   id="stop1488" />
					<stop
   offset="1"
   style="stop-color:#A0E35D"
   id="stop1490" />
				</linearGradient>
				<path
   class="st2"
   d="M 71.9,45.5 86.8,28.4 C 77.9,21.5 66.9,18.1 55.6,18.5 c -23.4,1 -43.2,18.8 -41.9,41.4 1,12.9 8.2,24.8 19.6,31.3 5.8,3.5 12.4,5.2 19.1,5 15,-0.6 27.7,-11 28.6,-25.5 0.7,-13.4 -10.1,-27.2 -25.2,-25 -9.2,1.4 -16.9,8.3 -17.1,17.5 -0.1,5.6 2.6,10.8 7,14.1 l 1.2,-1.4 2.6,-3.1 c -2.1,-1.9 -3.1,-4.4 -3.1,-7.2 0.2,-6 5.2,-10.5 10.9,-10.4 7.1,0.4 12.4,6.4 12.1,13.3 0,0.6 0,1 -0.2,1.6 -1.2,7.5 -7.7,12.6 -15.1,12.6 -3.7,0.1 -7.5,-1 -10.5,-3.1 -5.2,-3.9 -8.3,-10.1 -8.2,-16.6 0,-1.9 0.3,-3.7 0.9,-5.6 0.6,-1.7 1.3,-3.4 2.2,-5 1,-1.6 2.2,-3 3.4,-4.2 1.3,-1.3 2.8,-2.3 4.5,-3.3 1.6,-1 3.4,-1.7 5.2,-2.3 1.8,-0.6 3.9,-1 5.8,-1.1 2.6,-0.2 5.1,0.2 7.6,0.8 2.3,0.9 4.8,1.9 6.9,3.2 z"
   id="path1493"
   style="fill:url(#SVGID_1_)" />
				
					<linearGradient
   id="SVGID_2_"
   gradientUnits="userSpaceOnUse"
   x1="129.3277"
   y1="-374.7352"
   x2="168.5163"
   y2="-331.0918"
   gradientTransform="matrix(1,0.00780631,0.00780631,-1,-79.3104,-265.4356)">
					<stop
   offset="0"
   style="stop-color:#52BD15"
   id="stop1495" />
					<stop
   offset="1"
   style="stop-color:#A0E35D"
   id="stop1497" />
				</linearGradient>
				<path
   class="st3"
   d="m 31.5,94.4 -12.8,14.8 c 8.8,7 20.1,10.6 31.4,10 13,-0.4 25.7,-6.1 33.8,-16.4 l 0.3,-0.4 c 3,-3.8 5.3,-8.2 6.6,-12.6 2.6,-12.6 -1.2,-25.7 -10.3,-35.1 4.1,6.5 5.4,14.2 3.4,21.7 -3.5,14 -16.5,22.9 -31.2,23.4 -7.5,0.2 -14.8,-1.7 -21.2,-5.4 z"
   id="path1500"
   style="fill:url(#SVGID_2_)" />
				
					<linearGradient
   id="SVGID_3_"
   gradientUnits="userSpaceOnUse"
   x1="195.96111"
   y1="-326.97241"
   x2="150.4509"
   y2="-367.46179"
   gradientTransform="matrix(0.9997,0.02738307,0.02738307,-0.9997,-104.9038,-258.4152)">
					<stop
   offset="0"
   style="stop-color:#134A00"
   id="stop1502" />
					<stop
   offset="1"
   style="stop-color:#134A00;stop-opacity:0"
   id="stop1504" />
				</linearGradient>
				<path
   class="st4"
   d="m 18.6,109.1 c 8.7,6.9 21.5,11.6 36.1,9.7 L 55.2,99.6 C 45.9,100.9 37.6,98 31.4,94.5 Z"
   id="path1507"
   style="fill:url(#SVGID_3_)" />
				
					<linearGradient
   id="SVGID_4_"
   gradientUnits="userSpaceOnUse"
   x1="155.7155"
   y1="-324.6402"
   x2="118.3424"
   y2="-338.10059"
   gradientTransform="matrix(0.9999,0.01074736,0.01074736,-0.9999,-88.2166,-261.4149)">
					<stop
   offset="0"
   style="stop-color:#134A00"
   id="stop1509" />
					<stop
   offset="1"
   style="stop-color:#134A00;stop-opacity:0"
   id="stop1511" />
				</linearGradient>
				<path
   class="st5"
   d="m 14.7,65.8 c 4.5,18.8 19.1,25.8 19.1,25.8 l 9.9,-11.7 c -8.1,-5.7 -8.4,-15 -8.4,-15 z"
   id="path1514"
   style="fill:url(#SVGID_4_)" />
				
					<linearGradient
   id="SVGID_5_"
   gradientUnits="userSpaceOnUse"
   x1="115.8475"
   y1="-336.7644"
   x2="121.5667"
   y2="-293.76019"
   gradientTransform="matrix(1,0.00780631,0.00780631,-1,-79.3104,-265.4356)">
					<stop
   offset="0"
   style="stop-color:#134A00"
   id="stop1516" />
					<stop
   offset="1"
   style="stop-color:#134A00;stop-opacity:0"
   id="stop1518" />
				</linearGradient>
				<path
   class="st6"
   d="m 39.4,51.1 c 4,-5.4 10.5,-8.7 17.1,-9.4 L 56.4,18.4 c 0,0 -21.9,-0.5 -35.8,18.5 z"
   id="path1521"
   style="fill:url(#SVGID_5_)" />
				
					<linearGradient
   id="SVGID_6_"
   gradientUnits="userSpaceOnUse"
   x1="122.9828"
   y1="-351.23499"
   x2="103.7013"
   y2="-312.6749"
   gradientTransform="matrix(1,0.00780631,0.00780631,-1,-79.3104,-265.4356)">
					<stop
   offset="0"
   style="stop-color:#134A00"
   id="stop1523" />
					<stop
   offset="1"
   style="stop-color:#134A00;stop-opacity:0"
   id="stop1525" />
				</linearGradient>
				<path
   class="st7"
   d="M 39.4,51.1 20.5,37 c -6,8.3 -8.2,18.7 -5.8,28.8 l 20.6,-1 c -0.5,-4.9 1.3,-10.1 4.1,-13.7 z"
   id="path1528"
   style="fill:url(#SVGID_6_)" />
				
					<linearGradient
   id="SVGID_7_"
   gradientUnits="userSpaceOnUse"
   x1="121.3309"
   y1="-307.0329"
   x2="137.8629"
   y2="-325.12729"
   gradientTransform="matrix(1,0.00780631,0.00780631,-1,-79.3104,-265.4356)">
					<stop
   offset="0"
   style="stop-color:#FFFFFF"
   id="stop1530" />
					<stop
   offset="1"
   style="stop-color:#FFFFFF;stop-opacity:0"
   id="stop1532" />
				</linearGradient>
				<path
   class="st8"
   d="M 75.8,54.3 C 71.1,48 63.6,44.9 55.8,45.9 46.6,47.3 38.9,54 38.7,63.3 c -0.1,5.6 2.6,10.8 7,14.1 l 0.7,-0.8 c -5.7,-6.5 -6,-17.4 0.9,-22.4 11.6,-8.4 25.5,-1.5 29.6,10.9 1.4,4.4 2.2,9 2.5,13.7 3.2,-7.9 1.9,-16.8 -3.2,-23.9 z"
   id="path1535"
   style="fill:url(#SVGID_7_)" />
				
					<linearGradient
   id="SVGID_8_"
   gradientUnits="userSpaceOnUse"
   x1="129.09801"
   y1="-336.8699"
   x2="130.4679"
   y2="-380.76099"
   gradientTransform="matrix(1,-0.01037745,-0.01037745,-1,-61.8799,-269.4559)">
					<stop
   offset="0"
   style="stop-color:#134A00"
   id="stop1537" />
					<stop
   offset="1"
   style="stop-color:#134A00;stop-opacity:0"
   id="stop1539" />
				</linearGradient>
				<path
   class="st9"
   d="m 54.8,118.7 c 10.6,-1.3 22,-7 28.5,-15.3 l 0.5,-0.7 c 2.5,-3.2 4.8,-6.9 6.1,-10.6 l -9.3,-8.2 c -5,8.5 -15.1,14.5 -25.3,15.4 z"
   id="path1542"
   style="fill:url(#SVGID_8_)" />
				
					<linearGradient
   id="SVGID_9_"
   gradientUnits="userSpaceOnUse"
   x1="148.7628"
   y1="-316.05139"
   x2="176.5201"
   y2="-350.84909"
   gradientTransform="matrix(1,0.00780631,0.00780631,-1,-79.3104,-265.4356)">
					<stop
   offset="0"
   style="stop-color:#134A00"
   id="stop1544" />
					<stop
   offset="1"
   style="stop-color:#134A00;stop-opacity:0"
   id="stop1546" />
				</linearGradient>
				<path
   class="st10"
   d="m 80.6,83.8 9.3,8.2 c 0.2,-0.5 0.6,-1.7 0.7,-2.3 2.8,-12.6 -1.1,-26 -10.3,-35.2 4.1,6.5 5.5,14.4 3.5,21.9 -0.8,2.6 -1.9,5.1 -3.2,7.4 z"
   id="path1549"
   style="fill:url(#SVGID_9_)" />
				
					<linearGradient
   id="SVGID_10_"
   gradientUnits="userSpaceOnUse"
   x1="187.5318"
   y1="-418.75171"
   x2="136.55721"
   y2="-352.44531"
   gradientTransform="matrix(1,0.00780631,0.00780631,-1,-79.3104,-265.4356)">
					<stop
   offset="0"
   style="stop-color:#FFFFFF"
   id="stop1551" />
					<stop
   offset="1"
   style="stop-color:#FFFFFF;stop-opacity:0"
   id="stop1553" />
				</linearGradient>
				<path
   class="st11"
   d="m 18.6,109.1 c 8.8,7 20.1,10.6 31.4,10 13,-0.4 25.9,-6.4 33.8,-16.4 l 0.3,-0.4 c 3,-3.8 5.3,-8.2 6.6,-12.6 0.5,-1.5 0.6,-3.2 0.7,-4.8 0.1,-1.6 0.2,-3.2 0.1,-4.9 -0.1,-3.3 -0.7,-6.5 -1.6,-9.6 -1,-3.2 -2.4,-6.3 -4.1,-9.1 -1.4,-2.4 -3.2,-4.6 -5.3,-6.6 0.3,0.4 0.7,1 1,1.5 2.1,3.1 3.9,6.3 5.2,9.9 1.3,3.4 2,7 2,10.6 0,0 0,0 0,0.1 0,0.1 0.1,0.2 0.1,0.3 0.1,1.5 0,3.1 -0.2,4.7 -0.2,1.6 -0.3,3.2 -0.8,4.6 -1.3,4.3 -3.5,8.4 -6.2,11.6 l -0.3,0.4 c -7.7,9.2 -19,14.8 -31.2,15.2 -9.9,0.5 -19.9,-2.6 -27.9,-8.5 z"
   id="path1556"
   style="fill:url(#SVGID_10_)" />
				
					<linearGradient
   id="SVGID_11_"
   gradientUnits="userSpaceOnUse"
   x1="160.5499"
   y1="-319.00571"
   x2="108.1911"
   y2="-401.01801"
   gradientTransform="matrix(1,0.00780631,0.00780631,-1,-79.3104,-265.4356)">
					<stop
   offset="0"
   style="stop-color:#134A00"
   id="stop1558" />
					<stop
   offset="1"
   style="stop-color:#134A00;stop-opacity:0"
   id="stop1560" />
				</linearGradient>
				<path
   class="st12"
   d="M 49.8,104 C 66,103.4 80.2,93.6 84,78.4 c 2.1,-8.2 1.7,-15.3 -3.6,-23.9 4,6.3 5.4,14.2 3.4,21.7 -3.5,14 -16.3,22.7 -31.2,23.4 -7.4,0.4 -15.5,-1.9 -21.1,-5.4 l -3.8,4.4 c 6.8,3.9 14.5,5.8 22.1,5.4 z"
   id="path1563"
   style="fill:url(#SVGID_11_)" />
				
					<linearGradient
   id="SVGID_12_"
   gradientUnits="userSpaceOnUse"
   x1="128.0522"
   y1="-325.72321"
   x2="152.506"
   y2="-288.55209"
   gradientTransform="matrix(1,0.00780631,0.00780631,-1,-79.3104,-265.4356)">
					<stop
   offset="0"
   style="stop-color:#134A00"
   id="stop1565" />
					<stop
   offset="1"
   style="stop-color:#134A00;stop-opacity:0"
   id="stop1567" />
				</linearGradient>
				<path
   class="st13"
   d="M 56.4,41.7 56.3,18.4 c 11.4,-0.3 22,3.3 30.5,10 L 71.9,45.5 C 67.1,42.6 60.8,41.3 56.4,41.7 Z"
   id="path1570"
   style="fill:url(#SVGID_12_)" />
				
					<linearGradient
   id="SVGID_13_"
   gradientUnits="userSpaceOnUse"
   x1="95.428902"
   y1="-297.53479"
   x2="134.7489"
   y2="-319.8338"
   gradientTransform="matrix(1,0.00780631,0.00780631,-1,-79.3104,-265.4356)">
					<stop
   offset="0"
   style="stop-color:#FFFFFF;stop-opacity:0.5"
   id="stop1572" />
					<stop
   offset="1"
   style="stop-color:#FFFFFF;stop-opacity:0"
   id="stop1574" />
				</linearGradient>
				<path
   class="st14"
   d="M 86.8,28.4 C 77.9,21.5 66.9,18.1 55.6,18.5 c -23.4,1 -43.2,18.8 -41.9,41.4 1,12.9 8.2,24.8 19.6,31.3 4.3,2.6 9.3,4.3 14.4,4.9 1.3,0.1 2.6,0.1 4,0.1 C 35.3,95.6 21.3,80.9 20.3,64.7 19.2,44.8 36.6,29.3 56.8,28.5 c 8.5,-0.3 17,2 24.2,6.6 z"
   id="path1577"
   style="fill:url(#SVGID_13_)" />
				
					<linearGradient
   id="SVGID_14_"
   gradientUnits="userSpaceOnUse"
   x1="583.15143"
   y1="-878.23273"
   x2="530.61212"
   y2="-859.1156"
   gradientTransform="matrix(0.9514,0.3078,0.3078,-0.9514,-187.4037,-909.306)">
					<stop
   offset="0"
   style="stop-color:#134A00"
   id="stop1579" />
					<stop
   offset="1"
   style="stop-color:#134A00;stop-opacity:0"
   id="stop1581" />
				</linearGradient>
				<path
   class="st15"
   d="m 79.9,77.4 c -0.7,2.1 -2.8,5.8 -2.8,5.8 -3.1,4.4 -6.1,6.9 -10.1,9.1 -4,2.2 -8.3,3.5 -12.8,3.8 -4,0.3 -7.8,0 -11.5,-1 -0.8,-0.3 -1.6,-0.4 -2.5,-0.7 -2.4,-0.8 -4.7,-2 -7,-3.2 C 31,90 29,88.5 27,86.8 25.2,85.2 23.5,83.4 22.1,81.5 21.8,81.1 21.6,80.7 21.3,80.4 21,80 20.7,79.6 20.4,79.2 c 1.6,1.9 3.5,3.5 5.3,5 1.1,0.8 2.2,1.6 3.4,2.3 0.5,0.3 1.1,0.7 1.6,1 0.8,0.4 1.5,0.8 2.2,1 0.4,0.1 0.8,0.4 1.3,0.6 0.7,0.2 1.4,0.6 2.2,0.9 0.5,0.2 1.1,0.4 1.7,0.6 1.1,0.4 2.2,0.6 3.3,0.8 5,0.9 10.2,0.5 14.9,-0.8 0.2,-0.1 0.5,-0.1 0.6,-0.1 0.8,-0.2 1.6,-0.5 2.5,-0.8 5.9,-2.3 10.8,-7.3 13,-14 3.3,-10.2 -1.1,-21.1 -10.1,-26.3 -1.4,-0.7 -2.8,-1.5 -4.4,-2 h -0.1 c -1.2,-0.4 -2.3,-0.7 -3.9,-1.1 0.3,0 0.8,-0.2 1.1,-0.2 0.3,0 0.7,-0.1 1.1,-0.2 0.7,-0.1 1.3,-0.1 2,-0.1 2.4,-0.1 5,0.3 7.2,1 2.7,0.9 5.4,2.5 7.6,4.4 1.8,1.5 3.3,3.5 4.5,5.6 0.6,1.1 1.3,2.2 1.7,3.3 1,2.2 1.3,4.4 1.7,6.8 0.2,1.3 0.1,2.7 0.1,3.8 0.3,1.8 -0.4,4.2 -1,6.7 z"
   id="path1584"
   style="fill:url(#SVGID_14_)" />
				
					<linearGradient
   id="SVGID_15_"
   gradientUnits="userSpaceOnUse"
   x1="583.15143"
   y1="-878.23273"
   x2="530.61212"
   y2="-859.1156"
   gradientTransform="matrix(0.9514,0.3078,0.3078,-0.9514,-187.4037,-909.306)">
					<stop
   offset="0"
   style="stop-color:#134A00"
   id="stop1586" />
					<stop
   offset="1"
   style="stop-color:#134A00;stop-opacity:0"
   id="stop1588" />
				</linearGradient>
				<path
   class="st16"
   d="m 79.9,77.4 c -0.7,2.1 -2.8,5.8 -2.8,5.8 -3.1,4.4 -6.1,6.9 -10.1,9.1 -4,2.2 -8.3,3.5 -12.8,3.8 -4,0.3 -7.8,0 -11.5,-1 -0.8,-0.3 -1.6,-0.4 -2.5,-0.7 -2.4,-0.8 -4.7,-2 -7,-3.2 C 31,90 29,88.5 27,86.8 25.2,85.2 23.5,83.4 22.1,81.5 21.8,81.1 21.6,80.7 21.3,80.4 21,80 20.7,79.6 20.4,79.2 c 1.6,1.9 3.5,3.5 5.3,5 1.1,0.8 2.2,1.6 3.4,2.3 0.5,0.3 1.1,0.7 1.6,1 0.8,0.4 1.5,0.8 2.2,1 0.4,0.1 0.8,0.4 1.3,0.6 0.7,0.2 1.4,0.6 2.2,0.9 0.5,0.2 1.1,0.4 1.7,0.6 1.1,0.4 2.2,0.6 3.3,0.8 5,0.9 10.2,0.5 14.9,-0.8 0.2,-0.1 0.5,-0.1 0.6,-0.1 0.8,-0.2 1.6,-0.5 2.5,-0.8 5.9,-2.3 10.8,-7.3 13,-14 3.3,-10.2 -1.1,-21.1 -10.1,-26.3 -1.4,-0.7 -2.8,-1.5 -4.4,-2 h -0.1 c -1.2,-0.4 -2.3,-0.7 -3.9,-1.1 0.3,0 0.8,-0.2 1.1,-0.2 0.3,0 0.7,-0.1 1.1,-0.2 0.7,-0.1 1.3,-0.1 2,-0.1 2.4,-0.1 5,0.3 7.2,1 2.7,0.9 5.4,2.5 7.6,4.4 1.8,1.5 3.3,3.5 4.5,5.6 0.6,1.1 1.3,2.2 1.7,3.3 1,2.2 1.3,4.4 1.7,6.8 0.2,1.3 0.1,2.7 0.1,3.8 0.3,1.8 -0.4,4.2 -1,6.7 z"
   id="path1591"
   style="fill:url(#SVGID_15_)" />
				
					<linearGradient
   id="SVGID_16_"
   gradientUnits="userSpaceOnUse"
   x1="95.428902"
   y1="-297.53479"
   x2="134.7489"
   y2="-319.8338"
   gradientTransform="matrix(1,0.00780631,0.00780631,-1,-79.3104,-265.4356)">
					<stop
   offset="0"
   style="stop-color:#FFFFFF;stop-opacity:0.5"
   id="stop1593" />
					<stop
   offset="1"
   style="stop-color:#FFFFFF;stop-opacity:0"
   id="stop1595" />
				</linearGradient>
				<path
   class="st17"
   d="M 86.8,28.4 C 77.9,21.5 66.9,18.1 55.6,18.5 c -23.4,1 -43.2,18.8 -41.9,41.4 1,12.9 8.2,24.8 19.6,31.3 4.3,2.6 9.3,4.3 14.4,4.9 1.3,0.1 2.6,0.1 4,0.1 C 35.3,95.6 21.3,80.9 20.3,64.7 19.2,44.8 36.6,29.3 56.8,28.5 c 8.5,-0.3 17,2 24.2,6.6 z"
   id="path1598"
   style="fill:url(#SVGID_16_)" />
			</g>
		</g>
	</g>
<g
   transform="translate(6.3605928,1.6173535)"
   class="st19"
   id="Layer_2_1_">
	<rect
   y="0"
   x="0"
   id="rect1671"
   height="160.10001"
   width="382.29999"
   class="st20" />
	<g
   class="st21"
   id="e143ae51-3470-4d3a-97bb-c1e324d13877_1_">
		<g
   id="e545882f-945c-4f9f-a4f9-78de2c5c49a7_1_">
			<path
   id="path1673"
   d="m 120,90.1 3.5,-7.8 c 4.8,2.5 9.8,3.8 15.1,4 3.5,0 5.3,-1.3 5.3,-3.3 0,-1 -0.5,-2 -1.5,-2.5 -2,-1 -4.3,-2 -6.6,-2.5 -3.8,-0.8 -7.1,-2.3 -10.3,-4.3 -3,-2 -4.8,-5.3 -4.8,-8.8 0,-3.3 1.5,-6.3 4,-8.3 3.3,-2.5 7.6,-3.8 11.6,-3.5 6,0.2 12.1,1.5 17.6,4 l -3.5,7.8 c -4.5,-2 -9.3,-3 -14.4,-3.5 -3.3,0 -5,1.3 -5,3 0,1.7 1.5,3 7.6,4.8 3.8,1 7.6,2.5 10.8,4.5 3,1.8 5,5.3 4.8,8.8 0,3.3 -1.8,6.3 -4.3,8.3 -3.5,2.5 -7.6,3.8 -11.8,3.5 -6.2,0.6 -12.5,-1.1 -18.1,-4.2 z"
   class="st1" />
			<path
   id="path1675"
   d="m 200.1,65.4 v 29 H 189.3 V 69.2 c 0,-4 -1.5,-6 -6,-6 -3.8,0.2 -7.3,1.3 -10.6,2.8 V 94.7 H 161.9 V 37.2 h 10.8 v 20.4 c 4.5,-2.5 9.6,-4 14.9,-4.3 8.3,0.1 12.5,4.1 12.5,12.1 z"
   class="st1" />
			<path
   id="path1677"
   d="m 246,78.8 h -28.2 c 1,5 5.5,8.3 10.6,7.8 4.3,-0.2 8.6,-1 12.3,-3 l 3.3,7.6 c -5.3,2.5 -11.1,3.8 -16.9,3.8 -5.5,0.2 -10.8,-1.8 -14.6,-5.8 -3.8,-4 -5.8,-9.6 -5.5,-15.1 -0.2,-5.5 1.8,-11.1 5.5,-15.1 3.8,-3.8 9.1,-6 14.6,-5.8 5.3,-0.2 10.6,2 14.1,6.3 3.3,4.5 5,10.3 4.8,15.9 z m -28.5,-7.6 h 18.6 c -0.8,-6.6 -3.5,-9.6 -8.8,-9.6 -5.3,0 -9,3.8 -9.8,9.6 z"
   class="st1" />
			<path
   id="path1679"
   d="M 253,83.1 V 37.2 h 10.8 v 44.3 c 0,2.5 1.3,3.8 3.5,3.8 0.8,0 1.8,0 2.8,-0.2 l 0.8,9.1 c -2,0.2 -3.8,0.5 -5.8,0.5 -10,0.2 -12.1,-7.1 -12.1,-11.6 z"
   class="st1" />
			<path
   id="path1681"
   d="M 277,83.1 V 37.2 h 10.8 v 44.3 c 0,2.5 1.3,3.8 3.5,3.8 0.8,0 1.8,0 2.8,-0.2 l 0.8,9.1 c -2,0.2 -3.8,0.5 -5.8,0.5 C 279,94.9 277,87.6 277,83.1 Z"
   class="st1" />
			<path
   id="path1683"
   d="m 298.6,90.1 3.5,-7.8 c 4.8,2.5 9.8,3.8 15.1,4 3.5,0 5.3,-1.3 5.3,-3.3 0,-1 -0.5,-2 -1.5,-2.5 -2,-1 -4.3,-2 -6.6,-2.5 -3.8,-0.8 -7.1,-2.3 -10.3,-4.3 -3,-2 -4.8,-5.3 -4.8,-8.8 0,-3.3 1.5,-6.3 4,-8.3 3.3,-2.5 7.6,-3.8 11.6,-3.5 6,0.2 12.1,1.5 17.6,4 l -3.5,7.8 c -4.5,-2 -9.3,-3 -14.4,-3.5 -3.3,0 -5,1.3 -5,3 0,1.7 1.5,3 7.6,4.8 3.8,1 7.6,2.5 10.8,4.5 3,1.8 5,5.3 4.8,8.8 0,3.3 -1.8,6.3 -4.3,8.3 -3.5,2.5 -7.6,3.8 -11.8,3.5 -6.2,0.6 -12.5,-1.1 -18.1,-4.2 z"
   class="st1" />
			<path
   id="path1685"
   d="m 350,31.2 v 2 h -5.8 v 15.4 h -2 V 33.2 h -5.8 v -2 z"
   class="st1" />
			<path
   id="path1687"
   d="m 368.7,48.6 h -2 l -0.5,-14.1 -4.5,9.8 c -0.2,0.5 -0.5,0.8 -1,0.8 -0.5,0 -0.8,-0.2 -1,-0.8 l -4.5,-9.8 -0.5,13.9 h -2 l 0.5,-16.1 c 0,-0.8 0.8,-1.5 1.5,-1.5 v 0 c 0.5,0 1.3,0.2 1.5,0.8 l 4.8,10.1 4.8,-10.1 c 0.2,-0.5 0.8,-0.8 1.5,-0.8 0.8,0 1.5,0.5 1.5,1.5 v 0 z"
   class="st1" />
			<g
   id="g1801">
				
					<linearGradient
   gradientTransform="matrix(1,0.00780631,0.00780631,-1,-79.3104,-265.4356)"
   y2="-346.737"
   x2="113.993"
   y1="-312.59531"
   x1="139.22839"
   gradientUnits="userSpaceOnUse"
   id="SVGID_17_">
					<stop
   id="stop1689"
   style="stop-color:#52BD15"
   offset="0" />
					<stop
   id="stop1691"
   style="stop-color:#A0E35D"
   offset="1" />
				</linearGradient>
				<path
   style="fill:url(#SVGID_17_)"
   id="path1694"
   d="M 71.9,45.5 86.8,28.4 C 77.9,21.5 66.9,18.1 55.6,18.5 c -23.4,1 -43.2,18.8 -41.9,41.4 1,12.9 8.2,24.8 19.6,31.3 5.8,3.5 12.4,5.2 19.1,5 15,-0.6 27.7,-11 28.6,-25.5 0.7,-13.4 -10.1,-27.2 -25.2,-25 -9.2,1.4 -16.9,8.3 -17.1,17.5 -0.1,5.6 2.6,10.8 7,14.1 l 1.2,-1.4 2.6,-3.1 c -2.1,-1.9 -3.1,-4.4 -3.1,-7.2 0.2,-6 5.2,-10.5 10.9,-10.4 7.1,0.4 12.4,6.4 12.1,13.3 0,0.6 0,1 -0.2,1.6 -1.2,7.5 -7.7,12.6 -15.1,12.6 -3.7,0.1 -7.5,-1 -10.5,-3.1 -5.2,-3.9 -8.3,-10.1 -8.2,-16.6 0,-1.9 0.3,-3.7 0.9,-5.6 0.6,-1.7 1.3,-3.4 2.2,-5 1,-1.6 2.2,-3 3.4,-4.2 1.3,-1.3 2.8,-2.3 4.5,-3.3 1.6,-1 3.4,-1.7 5.2,-2.3 1.8,-0.6 3.9,-1 5.8,-1.1 2.6,-0.2 5.1,0.2 7.6,0.8 2.3,0.9 4.8,1.9 6.9,3.2 z"
   class="st22" />
				
					<linearGradient
   gradientTransform="matrix(1,0.00780631,0.00780631,-1,-79.3104,-265.4356)"
   y2="-331.0918"
   x2="168.5163"
   y1="-374.7352"
   x1="129.3277"
   gradientUnits="userSpaceOnUse"
   id="SVGID_18_">
					<stop
   id="stop1696"
   style="stop-color:#52BD15"
   offset="0" />
					<stop
   id="stop1698"
   style="stop-color:#A0E35D"
   offset="1" />
				</linearGradient>
				<path
   style="fill:url(#SVGID_18_)"
   id="path1701"
   d="m 31.5,94.4 -12.8,14.8 c 8.8,7 20.1,10.6 31.4,10 13,-0.4 25.7,-6.1 33.8,-16.4 l 0.3,-0.4 c 3,-3.8 5.3,-8.2 6.6,-12.6 2.6,-12.6 -1.2,-25.7 -10.3,-35.1 4.1,6.5 5.4,14.2 3.4,21.7 -3.5,14 -16.5,22.9 -31.2,23.4 -7.5,0.2 -14.8,-1.7 -21.2,-5.4 z"
   class="st23" />
				
					<linearGradient
   gradientTransform="matrix(0.9997,0.02738307,0.02738307,-0.9997,-104.9038,-258.4152)"
   y2="-367.46179"
   x2="150.4509"
   y1="-326.97241"
   x1="195.96111"
   gradientUnits="userSpaceOnUse"
   id="SVGID_19_">
					<stop
   id="stop1703"
   style="stop-color:#134A00"
   offset="0" />
					<stop
   id="stop1705"
   style="stop-color:#134A00;stop-opacity:0"
   offset="1" />
				</linearGradient>
				<path
   style="fill:url(#SVGID_19_)"
   id="path1708"
   d="m 18.6,109.1 c 8.7,6.9 21.5,11.6 36.1,9.7 L 55.2,99.6 C 45.9,100.9 37.6,98 31.4,94.5 Z"
   class="st24" />
				
					<linearGradient
   gradientTransform="matrix(0.9999,0.01074736,0.01074736,-0.9999,-88.2166,-261.4149)"
   y2="-338.10059"
   x2="118.3424"
   y1="-324.6402"
   x1="155.7155"
   gradientUnits="userSpaceOnUse"
   id="SVGID_20_">
					<stop
   id="stop1710"
   style="stop-color:#134A00"
   offset="0" />
					<stop
   id="stop1712"
   style="stop-color:#134A00;stop-opacity:0"
   offset="1" />
				</linearGradient>
				<path
   style="fill:url(#SVGID_20_)"
   id="path1715"
   d="m 14.7,65.8 c 4.5,18.8 19.1,25.8 19.1,25.8 l 9.9,-11.7 c -8.1,-5.7 -8.4,-15 -8.4,-15 z"
   class="st25" />
				
					<linearGradient
   gradientTransform="matrix(1,0.00780631,0.00780631,-1,-79.3104,-265.4356)"
   y2="-293.76019"
   x2="121.5667"
   y1="-336.7644"
   x1="115.8475"
   gradientUnits="userSpaceOnUse"
   id="SVGID_21_">
					<stop
   id="stop1717"
   style="stop-color:#134A00"
   offset="0" />
					<stop
   id="stop1719"
   style="stop-color:#134A00;stop-opacity:0"
   offset="1" />
				</linearGradient>
				<path
   style="fill:url(#SVGID_21_)"
   id="path1722"
   d="m 39.4,51.1 c 4,-5.4 10.5,-8.7 17.1,-9.4 L 56.4,18.4 c 0,0 -21.9,-0.5 -35.8,18.5 z"
   class="st26" />
				
					<linearGradient
   gradientTransform="matrix(1,0.00780631,0.00780631,-1,-79.3104,-265.4356)"
   y2="-312.6749"
   x2="103.7013"
   y1="-351.23499"
   x1="122.9828"
   gradientUnits="userSpaceOnUse"
   id="SVGID_22_">
					<stop
   id="stop1724"
   style="stop-color:#134A00"
   offset="0" />
					<stop
   id="stop1726"
   style="stop-color:#134A00;stop-opacity:0"
   offset="1" />
				</linearGradient>
				<path
   style="fill:url(#SVGID_22_)"
   id="path1729"
   d="M 39.4,51.1 20.5,37 c -6,8.3 -8.2,18.7 -5.8,28.8 l 20.6,-1 c -0.5,-4.9 1.3,-10.1 4.1,-13.7 z"
   class="st27" />
				
					<linearGradient
   gradientTransform="matrix(1,0.00780631,0.00780631,-1,-79.3104,-265.4356)"
   y2="-325.12729"
   x2="137.8629"
   y1="-307.0329"
   x1="121.3309"
   gradientUnits="userSpaceOnUse"
   id="SVGID_23_">
					<stop
   id="stop1731"
   style="stop-color:#FFFFFF"
   offset="0" />
					<stop
   id="stop1733"
   style="stop-color:#FFFFFF;stop-opacity:0"
   offset="1" />
				</linearGradient>
				<path
   style="fill:url(#SVGID_23_)"
   id="path1736"
   d="M 75.8,54.3 C 71.1,48 63.6,44.9 55.8,45.9 46.6,47.3 38.9,54 38.7,63.3 c -0.1,5.6 2.6,10.8 7,14.1 l 0.7,-0.8 c -5.7,-6.5 -6,-17.4 0.9,-22.4 11.6,-8.4 25.5,-1.5 29.6,10.9 1.4,4.4 2.2,9 2.5,13.7 3.2,-7.9 1.9,-16.8 -3.2,-23.9 z"
   class="st28" />
				
					<linearGradient
   gradientTransform="matrix(1,-0.01037745,-0.01037745,-1,-61.8799,-269.4559)"
   y2="-380.76099"
   x2="130.4679"
   y1="-336.8699"
   x1="129.09801"
   gradientUnits="userSpaceOnUse"
   id="SVGID_24_">
					<stop
   id="stop1738"
   style="stop-color:#134A00"
   offset="0" />
					<stop
   id="stop1740"
   style="stop-color:#134A00;stop-opacity:0"
   offset="1" />
				</linearGradient>
				<path
   style="fill:url(#SVGID_24_)"
   id="path1743"
   d="m 54.8,118.7 c 10.6,-1.3 22,-7 28.5,-15.3 l 0.5,-0.7 c 2.5,-3.2 4.8,-6.9 6.1,-10.6 l -9.3,-8.2 c -5,8.5 -15.1,14.5 -25.3,15.4 z"
   class="st29" />
				
					<linearGradient
   gradientTransform="matrix(1,0.00780631,0.00780631,-1,-79.3104,-265.4356)"
   y2="-350.84909"
   x2="176.5201"
   y1="-316.05139"
   x1="148.7628"
   gradientUnits="userSpaceOnUse"
   id="SVGID_25_">
					<stop
   id="stop1745"
   style="stop-color:#134A00"
   offset="0" />
					<stop
   id="stop1747"
   style="stop-color:#134A00;stop-opacity:0"
   offset="1" />
				</linearGradient>
				<path
   style="fill:url(#SVGID_25_)"
   id="path1750"
   d="m 80.6,83.8 9.3,8.2 c 0.2,-0.5 0.6,-1.7 0.7,-2.3 2.8,-12.6 -1.1,-26 -10.3,-35.2 4.1,6.5 5.5,14.4 3.5,21.9 -0.8,2.6 -1.9,5.1 -3.2,7.4 z"
   class="st30" />
				
					<linearGradient
   gradientTransform="matrix(1,0.00780631,0.00780631,-1,-79.3104,-265.4356)"
   y2="-352.44531"
   x2="136.55721"
   y1="-418.75171"
   x1="187.5318"
   gradientUnits="userSpaceOnUse"
   id="SVGID_26_">
					<stop
   id="stop1752"
   style="stop-color:#FFFFFF"
   offset="0" />
					<stop
   id="stop1754"
   style="stop-color:#FFFFFF;stop-opacity:0"
   offset="1" />
				</linearGradient>
				<path
   style="fill:url(#SVGID_26_)"
   id="path1757"
   d="m 18.6,109.1 c 8.8,7 20.1,10.6 31.4,10 13,-0.4 25.9,-6.4 33.8,-16.4 l 0.3,-0.4 c 3,-3.8 5.3,-8.2 6.6,-12.6 0.5,-1.5 0.6,-3.2 0.7,-4.8 0.1,-1.6 0.2,-3.2 0.1,-4.9 -0.1,-3.3 -0.7,-6.5 -1.6,-9.6 -1,-3.2 -2.4,-6.3 -4.1,-9.1 -1.4,-2.4 -3.2,-4.6 -5.3,-6.6 0.3,0.4 0.7,1 1,1.5 2.1,3.1 3.9,6.3 5.2,9.9 1.3,3.4 2,7 2,10.6 0,0 0,0 0,0.1 0,0.1 0.1,0.2 0.1,0.3 0.1,1.5 0,3.1 -0.2,4.7 -0.2,1.6 -0.3,3.2 -0.8,4.6 -1.3,4.3 -3.5,8.4 -6.2,11.6 l -0.3,0.4 c -7.7,9.2 -19,14.8 -31.2,15.2 -9.9,0.5 -19.9,-2.6 -27.9,-8.5 z"
   class="st31" />
				
					<linearGradient
   gradientTransform="matrix(1,0.00780631,0.00780631,-1,-79.3104,-265.4356)"
   y2="-401.01801"
   x2="108.1911"
   y1="-319.00571"
   x1="160.5499"
   gradientUnits="userSpaceOnUse"
   id="SVGID_27_">
					<stop
   id="stop1759"
   style="stop-color:#134A00"
   offset="0" />
					<stop
   id="stop1761"
   style="stop-color:#134A00;stop-opacity:0"
   offset="1" />
				</linearGradient>
				<path
   style="fill:url(#SVGID_27_)"
   id="path1764"
   d="M 49.8,104 C 66,103.4 80.2,93.6 84,78.4 c 2.1,-8.2 1.7,-15.3 -3.6,-23.9 4,6.3 5.4,14.2 3.4,21.7 -3.5,14 -16.3,22.7 -31.2,23.4 -7.4,0.4 -15.5,-1.9 -21.1,-5.4 l -3.8,4.4 c 6.8,3.9 14.5,5.8 22.1,5.4 z"
   class="st32" />
				
					<linearGradient
   gradientTransform="matrix(1,0.00780631,0.00780631,-1,-79.3104,-265.4356)"
   y2="-288.55209"
   x2="152.506"
   y1="-325.72321"
   x1="128.0522"
   gradientUnits="userSpaceOnUse"
   id="SVGID_28_">
					<stop
   id="stop1766"
   style="stop-color:#134A00"
   offset="0" />
					<stop
   id="stop1768"
   style="stop-color:#134A00;stop-opacity:0"
   offset="1" />
				</linearGradient>
				<path
   style="fill:url(#SVGID_28_)"
   id="path1771"
   d="M 56.4,41.7 56.3,18.4 c 11.4,-0.3 22,3.3 30.5,10 L 71.9,45.5 C 67.1,42.6 60.8,41.3 56.4,41.7 Z"
   class="st33" />
				
					<linearGradient
   gradientTransform="matrix(1,0.00780631,0.00780631,-1,-79.3104,-265.4356)"
   y2="-319.8338"
   x2="134.7489"
   y1="-297.53479"
   x1="95.428902"
   gradientUnits="userSpaceOnUse"
   id="SVGID_29_">
					<stop
   id="stop1773"
   style="stop-color:#FFFFFF;stop-opacity:0.5"
   offset="0" />
					<stop
   id="stop1775"
   style="stop-color:#FFFFFF;stop-opacity:0"
   offset="1" />
				</linearGradient>
				<path
   style="fill:url(#SVGID_29_)"
   id="path1778"
   d="M 86.8,28.4 C 77.9,21.5 66.9,18.1 55.6,18.5 c -23.4,1 -43.2,18.8 -41.9,41.4 1,12.9 8.2,24.8 19.6,31.3 4.3,2.6 9.3,4.3 14.4,4.9 1.3,0.1 2.6,0.1 4,0.1 C 35.3,95.6 21.3,80.9 20.3,64.7 19.2,44.8 36.6,29.3 56.8,28.5 c 8.5,-0.3 17,2 24.2,6.6 z"
   class="st34" />
				
					<linearGradient
   gradientTransform="matrix(0.9514,0.3078,0.3078,-0.9514,-187.4037,-909.306)"
   y2="-859.1156"
   x2="530.61212"
   y1="-878.23273"
   x1="583.15143"
   gradientUnits="userSpaceOnUse"
   id="SVGID_30_">
					<stop
   id="stop1780"
   style="stop-color:#134A00"
   offset="0" />
					<stop
   id="stop1782"
   style="stop-color:#134A00;stop-opacity:0"
   offset="1" />
				</linearGradient>
				<path
   style="fill:url(#SVGID_30_)"
   id="path1785"
   d="m 79.9,77.4 c -0.7,2.1 -2.8,5.8 -2.8,5.8 -3.1,4.4 -6.1,6.9 -10.1,9.1 -4,2.2 -8.3,3.5 -12.8,3.8 -4,0.3 -7.8,0 -11.5,-1 -0.8,-0.3 -1.6,-0.4 -2.5,-0.7 -2.4,-0.8 -4.7,-2 -7,-3.2 C 31,90 29,88.5 27,86.8 25.2,85.2 23.5,83.4 22.1,81.5 21.8,81.1 21.6,80.7 21.3,80.4 21,80 20.7,79.6 20.4,79.2 c 1.6,1.9 3.5,3.5 5.3,5 1.1,0.8 2.2,1.6 3.4,2.3 0.5,0.3 1.1,0.7 1.6,1 0.8,0.4 1.5,0.8 2.2,1 0.4,0.1 0.8,0.4 1.3,0.6 0.7,0.2 1.4,0.6 2.2,0.9 0.5,0.2 1.1,0.4 1.7,0.6 1.1,0.4 2.2,0.6 3.3,0.8 5,0.9 10.2,0.5 14.9,-0.8 0.2,-0.1 0.5,-0.1 0.6,-0.1 0.8,-0.2 1.6,-0.5 2.5,-0.8 5.9,-2.3 10.8,-7.3 13,-14 3.3,-10.2 -1.1,-21.1 -10.1,-26.3 -1.4,-0.7 -2.8,-1.5 -4.4,-2 h -0.1 c -1.2,-0.4 -2.3,-0.7 -3.9,-1.1 0.3,0 0.8,-0.2 1.1,-0.2 0.3,0 0.7,-0.1 1.1,-0.2 0.7,-0.1 1.3,-0.1 2,-0.1 2.4,-0.1 5,0.3 7.2,1 2.7,0.9 5.4,2.5 7.6,4.4 1.8,1.5 3.3,3.5 4.5,5.6 0.6,1.1 1.3,2.2 1.7,3.3 1,2.2 1.3,4.4 1.7,6.8 0.2,1.3 0.1,2.7 0.1,3.8 0.3,1.8 -0.4,4.2 -1,6.7 z"
   class="st35" />
				
					<linearGradient
   gradientTransform="matrix(0.9514,0.3078,0.3078,-0.9514,-187.4037,-909.306)"
   y2="-859.1156"
   x2="530.61212"
   y1="-878.23273"
   x1="583.15143"
   gradientUnits="userSpaceOnUse"
   id="SVGID_31_">
					<stop
   id="stop1787"
   style="stop-color:#134A00"
   offset="0" />
					<stop
   id="stop1789"
   style="stop-color:#134A00;stop-opacity:0"
   offset="1" />
				</linearGradient>
				<path
   style="fill:url(#SVGID_31_)"
   id="path1792"
   d="m 79.9,77.4 c -0.7,2.1 -2.8,5.8 -2.8,5.8 -3.1,4.4 -6.1,6.9 -10.1,9.1 -4,2.2 -8.3,3.5 -12.8,3.8 -4,0.3 -7.8,0 -11.5,-1 -0.8,-0.3 -1.6,-0.4 -2.5,-0.7 -2.4,-0.8 -4.7,-2 -7,-3.2 C 31,90 29,88.5 27,86.8 25.2,85.2 23.5,83.4 22.1,81.5 21.8,81.1 21.6,80.7 21.3,80.4 21,80 20.7,79.6 20.4,79.2 c 1.6,1.9 3.5,3.5 5.3,5 1.1,0.8 2.2,1.6 3.4,2.3 0.5,0.3 1.1,0.7 1.6,1 0.8,0.4 1.5,0.8 2.2,1 0.4,0.1 0.8,0.4 1.3,0.6 0.7,0.2 1.4,0.6 2.2,0.9 0.5,0.2 1.1,0.4 1.7,0.6 1.1,0.4 2.2,0.6 3.3,0.8 5,0.9 10.2,0.5 14.9,-0.8 0.2,-0.1 0.5,-0.1 0.6,-0.1 0.8,-0.2 1.6,-0.5 2.5,-0.8 5.9,-2.3 10.8,-7.3 13,-14 3.3,-10.2 -1.1,-21.1 -10.1,-26.3 -1.4,-0.7 -2.8,-1.5 -4.4,-2 h -0.1 c -1.2,-0.4 -2.3,-0.7 -3.9,-1.1 0.3,0 0.8,-0.2 1.1,-0.2 0.3,0 0.7,-0.1 1.1,-0.2 0.7,-0.1 1.3,-0.1 2,-0.1 2.4,-0.1 5,0.3 7.2,1 2.7,0.9 5.4,2.5 7.6,4.4 1.8,1.5 3.3,3.5 4.5,5.6 0.6,1.1 1.3,2.2 1.7,3.3 1,2.2 1.3,4.4 1.7,6.8 0.2,1.3 0.1,2.7 0.1,3.8 0.3,1.8 -0.4,4.2 -1,6.7 z"
   class="st36" />
				
					<linearGradient
   gradientTransform="matrix(1,0.00780631,0.00780631,-1,-79.3104,-265.4356)"
   y2="-319.8338"
   x2="134.7489"
   y1="-297.53479"
   x1="95.428902"
   gradientUnits="userSpaceOnUse"
   id="SVGID_32_">
					<stop
   id="stop1794"
   style="stop-color:#FFFFFF;stop-opacity:0.5"
   offset="0" />
					<stop
   id="stop1796"
   style="stop-color:#FFFFFF;stop-opacity:0"
   offset="1" />
				</linearGradient>
				<path
   style="fill:url(#SVGID_32_)"
   id="path1799"
   d="M 86.8,28.4 C 77.9,21.5 66.9,18.1 55.6,18.5 c -23.4,1 -43.2,18.8 -41.9,41.4 1,12.9 8.2,24.8 19.6,31.3 4.3,2.6 9.3,4.3 14.4,4.9 1.3,0.1 2.6,0.1 4,0.1 C 35.3,95.6 21.3,80.9 20.3,64.7 19.2,44.8 36.6,29.3 56.8,28.5 c 8.5,-0.3 17,2 24.2,6.6 z"
   class="st37" />
			</g>
		</g>
	</g>
	<g
   id="g1807"
   class="st21">
		<text
   id="text1805"
   class="st1 st38 st39"
   transform="translate(92.7933,143.4622)">Your Own Cloud Computer</text>
	</g>
</g>
<g
   transform="translate(6.3605928,1.6173535)"
   class="st19"
   id="Layer_3">
	<rect
   y="0"
   x="0"
   id="rect1810"
   height="160.10001"
   width="382.29999"
   class="st20" />
	<g
   class="st21"
   id="e143ae51-3470-4d3a-97bb-c1e324d13877_3_">
		<g
   id="e545882f-945c-4f9f-a4f9-78de2c5c49a7_3_">
			<path
   id="path1812"
   d="m 120,90.1 3.5,-7.8 c 4.8,2.5 9.8,3.8 15.1,4 3.5,0 5.3,-1.3 5.3,-3.3 0,-1 -0.5,-2 -1.5,-2.5 -2,-1 -4.3,-2 -6.6,-2.5 -3.8,-0.8 -7.1,-2.3 -10.3,-4.3 -3,-2 -4.8,-5.3 -4.8,-8.8 0,-3.3 1.5,-6.3 4,-8.3 3.3,-2.5 7.6,-3.8 11.6,-3.5 6,0.2 12.1,1.5 17.6,4 l -3.5,7.8 c -4.5,-2 -9.3,-3 -14.4,-3.5 -3.3,0 -5,1.3 -5,3 0,1.7 1.5,3 7.6,4.8 3.8,1 7.6,2.5 10.8,4.5 3,1.8 5,5.3 4.8,8.8 0,3.3 -1.8,6.3 -4.3,8.3 -3.5,2.5 -7.6,3.8 -11.8,3.5 -6.2,0.6 -12.5,-1.1 -18.1,-4.2 z"
   class="st1" />
			<path
   id="path1814"
   d="m 200.1,65.4 v 29 H 189.3 V 69.2 c 0,-4 -1.5,-6 -6,-6 -3.8,0.2 -7.3,1.3 -10.6,2.8 V 94.7 H 161.9 V 37.2 h 10.8 v 20.4 c 4.5,-2.5 9.6,-4 14.9,-4.3 8.3,0.1 12.5,4.1 12.5,12.1 z"
   class="st1" />
			<path
   id="path1816"
   d="m 246,78.8 h -28.2 c 1,5 5.5,8.3 10.6,7.8 4.3,-0.2 8.6,-1 12.3,-3 l 3.3,7.6 c -5.3,2.5 -11.1,3.8 -16.9,3.8 -5.5,0.2 -10.8,-1.8 -14.6,-5.8 -3.8,-4 -5.8,-9.6 -5.5,-15.1 -0.2,-5.5 1.8,-11.1 5.5,-15.1 3.8,-3.8 9.1,-6 14.6,-5.8 5.3,-0.2 10.6,2 14.1,6.3 3.3,4.5 5,10.3 4.8,15.9 z m -28.5,-7.6 h 18.6 c -0.8,-6.6 -3.5,-9.6 -8.8,-9.6 -5.3,0 -9,3.8 -9.8,9.6 z"
   class="st1" />
			<path
   id="path1818"
   d="M 253,83.1 V 37.2 h 10.8 v 44.3 c 0,2.5 1.3,3.8 3.5,3.8 0.8,0 1.8,0 2.8,-0.2 l 0.8,9.1 c -2,0.2 -3.8,0.5 -5.8,0.5 -10,0.2 -12.1,-7.1 -12.1,-11.6 z"
   class="st1" />
			<path
   id="path1820"
   d="M 277,83.1 V 37.2 h 10.8 v 44.3 c 0,2.5 1.3,3.8 3.5,3.8 0.8,0 1.8,0 2.8,-0.2 l 0.8,9.1 c -2,0.2 -3.8,0.5 -5.8,0.5 C 279,94.9 277,87.6 277,83.1 Z"
   class="st1" />
			<path
   id="path1822"
   d="m 298.6,90.1 3.5,-7.8 c 4.8,2.5 9.8,3.8 15.1,4 3.5,0 5.3,-1.3 5.3,-3.3 0,-1 -0.5,-2 -1.5,-2.5 -2,-1 -4.3,-2 -6.6,-2.5 -3.8,-0.8 -7.1,-2.3 -10.3,-4.3 -3,-2 -4.8,-5.3 -4.8,-8.8 0,-3.3 1.5,-6.3 4,-8.3 3.3,-2.5 7.6,-3.8 11.6,-3.5 6,0.2 12.1,1.5 17.6,4 l -3.5,7.8 c -4.5,-2 -9.3,-3 -14.4,-3.5 -3.3,0 -5,1.3 -5,3 0,1.7 1.5,3 7.6,4.8 3.8,1 7.6,2.5 10.8,4.5 3,1.8 5,5.3 4.8,8.8 0,3.3 -1.8,6.3 -4.3,8.3 -3.5,2.5 -7.6,3.8 -11.8,3.5 -6.2,0.6 -12.5,-1.1 -18.1,-4.2 z"
   class="st1" />
			<path
   id="path1824"
   d="m 350,31.2 v 2 h -5.8 v 15.4 h -2 V 33.2 h -5.8 v -2 z"
   class="st1" />
			<path
   id="path1826"
   d="m 368.7,48.6 h -2 l -0.5,-14.1 -4.5,9.8 c -0.2,0.5 -0.5,0.8 -1,0.8 -0.5,0 -0.8,-0.2 -1,-0.8 l -4.5,-9.8 -0.5,13.9 h -2 l 0.5,-16.1 c 0,-0.8 0.8,-1.5 1.5,-1.5 v 0 c 0.5,0 1.3,0.2 1.5,0.8 l 4.8,10.1 4.8,-10.1 c 0.2,-0.5 0.8,-0.8 1.5,-0.8 0.8,0 1.5,0.5 1.5,1.5 v 0 z"
   class="st1" />
			<g
   id="g1940">
				
					<linearGradient
   gradientTransform="matrix(1,0.00780631,0.00780631,-1,-79.3104,-265.4356)"
   y2="-346.737"
   x2="113.993"
   y1="-312.59531"
   x1="139.22839"
   gradientUnits="userSpaceOnUse"
   id="SVGID_33_">
					<stop
   id="stop1828"
   style="stop-color:#52BD15"
   offset="0" />
					<stop
   id="stop1830"
   style="stop-color:#A0E35D"
   offset="1" />
				</linearGradient>
				<path
   style="fill:url(#SVGID_33_)"
   id="path1833"
   d="M 71.9,45.5 86.8,28.4 C 77.9,21.5 66.9,18.1 55.6,18.5 c -23.4,1 -43.2,18.8 -41.9,41.4 1,12.9 8.2,24.8 19.6,31.3 5.8,3.5 12.4,5.2 19.1,5 15,-0.6 27.7,-11 28.6,-25.5 0.7,-13.4 -10.1,-27.2 -25.2,-25 -9.2,1.4 -16.9,8.3 -17.1,17.5 -0.1,5.6 2.6,10.8 7,14.1 l 1.2,-1.4 2.6,-3.1 c -2.1,-1.9 -3.1,-4.4 -3.1,-7.2 0.2,-6 5.2,-10.5 10.9,-10.4 7.1,0.4 12.4,6.4 12.1,13.3 0,0.6 0,1 -0.2,1.6 -1.2,7.5 -7.7,12.6 -15.1,12.6 -3.7,0.1 -7.5,-1 -10.5,-3.1 -5.2,-3.9 -8.3,-10.1 -8.2,-16.6 0,-1.9 0.3,-3.7 0.9,-5.6 0.6,-1.7 1.3,-3.4 2.2,-5 1,-1.6 2.2,-3 3.4,-4.2 1.3,-1.3 2.8,-2.3 4.5,-3.3 1.6,-1 3.4,-1.7 5.2,-2.3 1.8,-0.6 3.9,-1 5.8,-1.1 2.6,-0.2 5.1,0.2 7.6,0.8 2.3,0.9 4.8,1.9 6.9,3.2 z"
   class="st40" />
				
					<linearGradient
   gradientTransform="matrix(1,0.00780631,0.00780631,-1,-79.3104,-265.4356)"
   y2="-331.0918"
   x2="168.5163"
   y1="-374.7352"
   x1="129.3277"
   gradientUnits="userSpaceOnUse"
   id="SVGID_34_">
					<stop
   id="stop1835"
   style="stop-color:#52BD15"
   offset="0" />
					<stop
   id="stop1837"
   style="stop-color:#A0E35D"
   offset="1" />
				</linearGradient>
				<path
   style="fill:url(#SVGID_34_)"
   id="path1840"
   d="m 31.5,94.4 -12.8,14.8 c 8.8,7 20.1,10.6 31.4,10 13,-0.4 25.7,-6.1 33.8,-16.4 l 0.3,-0.4 c 3,-3.8 5.3,-8.2 6.6,-12.6 2.6,-12.6 -1.2,-25.7 -10.3,-35.1 4.1,6.5 5.4,14.2 3.4,21.7 -3.5,14 -16.5,22.9 -31.2,23.4 -7.5,0.2 -14.8,-1.7 -21.2,-5.4 z"
   class="st41" />
				
					<linearGradient
   gradientTransform="matrix(0.9997,0.02738307,0.02738307,-0.9997,-104.9038,-258.4152)"
   y2="-367.46179"
   x2="150.4509"
   y1="-326.97241"
   x1="195.96111"
   gradientUnits="userSpaceOnUse"
   id="SVGID_35_">
					<stop
   id="stop1842"
   style="stop-color:#134A00"
   offset="0" />
					<stop
   id="stop1844"
   style="stop-color:#134A00;stop-opacity:0"
   offset="1" />
				</linearGradient>
				<path
   style="fill:url(#SVGID_35_)"
   id="path1847"
   d="m 18.6,109.1 c 8.7,6.9 21.5,11.6 36.1,9.7 L 55.2,99.6 C 45.9,100.9 37.6,98 31.4,94.5 Z"
   class="st42" />
				
					<linearGradient
   gradientTransform="matrix(0.9999,0.01074736,0.01074736,-0.9999,-88.2166,-261.4149)"
   y2="-338.10059"
   x2="118.3424"
   y1="-324.6402"
   x1="155.7155"
   gradientUnits="userSpaceOnUse"
   id="SVGID_36_">
					<stop
   id="stop1849"
   style="stop-color:#134A00"
   offset="0" />
					<stop
   id="stop1851"
   style="stop-color:#134A00;stop-opacity:0"
   offset="1" />
				</linearGradient>
				<path
   style="fill:url(#SVGID_36_)"
   id="path1854"
   d="m 14.7,65.8 c 4.5,18.8 19.1,25.8 19.1,25.8 l 9.9,-11.7 c -8.1,-5.7 -8.4,-15 -8.4,-15 z"
   class="st43" />
				
					<linearGradient
   gradientTransform="matrix(1,0.00780631,0.00780631,-1,-79.3104,-265.4356)"
   y2="-293.76019"
   x2="121.5667"
   y1="-336.7644"
   x1="115.8475"
   gradientUnits="userSpaceOnUse"
   id="SVGID_37_">
					<stop
   id="stop1856"
   style="stop-color:#134A00"
   offset="0" />
					<stop
   id="stop1858"
   style="stop-color:#134A00;stop-opacity:0"
   offset="1" />
				</linearGradient>
				<path
   style="fill:url(#SVGID_37_)"
   id="path1861"
   d="m 39.4,51.1 c 4,-5.4 10.5,-8.7 17.1,-9.4 L 56.4,18.4 c 0,0 -21.9,-0.5 -35.8,18.5 z"
   class="st44" />
				
					<linearGradient
   gradientTransform="matrix(1,0.00780631,0.00780631,-1,-79.3104,-265.4356)"
   y2="-312.6749"
   x2="103.7013"
   y1="-351.23499"
   x1="122.9828"
   gradientUnits="userSpaceOnUse"
   id="SVGID_38_">
					<stop
   id="stop1863"
   style="stop-color:#134A00"
   offset="0" />
					<stop
   id="stop1865"
   style="stop-color:#134A00;stop-opacity:0"
   offset="1" />
				</linearGradient>
				<path
   style="fill:url(#SVGID_38_)"
   id="path1868"
   d="M 39.4,51.1 20.5,37 c -6,8.3 -8.2,18.7 -5.8,28.8 l 20.6,-1 c -0.5,-4.9 1.3,-10.1 4.1,-13.7 z"
   class="st45" />
				
					<linearGradient
   gradientTransform="matrix(1,0.00780631,0.00780631,-1,-79.3104,-265.4356)"
   y2="-325.12729"
   x2="137.8629"
   y1="-307.0329"
   x1="121.3309"
   gradientUnits="userSpaceOnUse"
   id="SVGID_39_">
					<stop
   id="stop1870"
   style="stop-color:#FFFFFF"
   offset="0" />
					<stop
   id="stop1872"
   style="stop-color:#FFFFFF;stop-opacity:0"
   offset="1" />
				</linearGradient>
				<path
   style="fill:url(#SVGID_39_)"
   id="path1875"
   d="M 75.8,54.3 C 71.1,48 63.6,44.9 55.8,45.9 46.6,47.3 38.9,54 38.7,63.3 c -0.1,5.6 2.6,10.8 7,14.1 l 0.7,-0.8 c -5.7,-6.5 -6,-17.4 0.9,-22.4 11.6,-8.4 25.5,-1.5 29.6,10.9 1.4,4.4 2.2,9 2.5,13.7 3.2,-7.9 1.9,-16.8 -3.2,-23.9 z"
   class="st46" />
				
					<linearGradient
   gradientTransform="matrix(1,-0.01037745,-0.01037745,-1,-61.8799,-269.4559)"
   y2="-380.76099"
   x2="130.4679"
   y1="-336.8699"
   x1="129.09801"
   gradientUnits="userSpaceOnUse"
   id="SVGID_40_">
					<stop
   id="stop1877"
   style="stop-color:#134A00"
   offset="0" />
					<stop
   id="stop1879"
   style="stop-color:#134A00;stop-opacity:0"
   offset="1" />
				</linearGradient>
				<path
   style="fill:url(#SVGID_40_)"
   id="path1882"
   d="m 54.8,118.7 c 10.6,-1.3 22,-7 28.5,-15.3 l 0.5,-0.7 c 2.5,-3.2 4.8,-6.9 6.1,-10.6 l -9.3,-8.2 c -5,8.5 -15.1,14.5 -25.3,15.4 z"
   class="st47" />
				
					<linearGradient
   gradientTransform="matrix(1,0.00780631,0.00780631,-1,-79.3104,-265.4356)"
   y2="-350.84909"
   x2="176.5201"
   y1="-316.05139"
   x1="148.7628"
   gradientUnits="userSpaceOnUse"
   id="SVGID_41_">
					<stop
   id="stop1884"
   style="stop-color:#134A00"
   offset="0" />
					<stop
   id="stop1886"
   style="stop-color:#134A00;stop-opacity:0"
   offset="1" />
				</linearGradient>
				<path
   style="fill:url(#SVGID_41_)"
   id="path1889"
   d="m 80.6,83.8 9.3,8.2 c 0.2,-0.5 0.6,-1.7 0.7,-2.3 2.8,-12.6 -1.1,-26 -10.3,-35.2 4.1,6.5 5.5,14.4 3.5,21.9 -0.8,2.6 -1.9,5.1 -3.2,7.4 z"
   class="st48" />
				
					<linearGradient
   gradientTransform="matrix(1,0.00780631,0.00780631,-1,-79.3104,-265.4356)"
   y2="-352.44531"
   x2="136.55721"
   y1="-418.75171"
   x1="187.5318"
   gradientUnits="userSpaceOnUse"
   id="SVGID_42_">
					<stop
   id="stop1891"
   style="stop-color:#FFFFFF"
   offset="0" />
					<stop
   id="stop1893"
   style="stop-color:#FFFFFF;stop-opacity:0"
   offset="1" />
				</linearGradient>
				<path
   style="fill:url(#SVGID_42_)"
   id="path1896"
   d="m 18.6,109.1 c 8.8,7 20.1,10.6 31.4,10 13,-0.4 25.9,-6.4 33.8,-16.4 l 0.3,-0.4 c 3,-3.8 5.3,-8.2 6.6,-12.6 0.5,-1.5 0.6,-3.2 0.7,-4.8 0.1,-1.6 0.2,-3.2 0.1,-4.9 -0.1,-3.3 -0.7,-6.5 -1.6,-9.6 -1,-3.2 -2.4,-6.3 -4.1,-9.1 -1.4,-2.4 -3.2,-4.6 -5.3,-6.6 0.3,0.4 0.7,1 1,1.5 2.1,3.1 3.9,6.3 5.2,9.9 1.3,3.4 2,7 2,10.6 0,0 0,0 0,0.1 0,0.1 0.1,0.2 0.1,0.3 0.1,1.5 0,3.1 -0.2,4.7 -0.2,1.6 -0.3,3.2 -0.8,4.6 -1.3,4.3 -3.5,8.4 -6.2,11.6 l -0.3,0.4 c -7.7,9.2 -19,14.8 -31.2,15.2 -9.9,0.5 -19.9,-2.6 -27.9,-8.5 z"
   class="st49" />
				
					<linearGradient
   gradientTransform="matrix(1,0.00780631,0.00780631,-1,-79.3104,-265.4356)"
   y2="-401.01801"
   x2="108.1911"
   y1="-319.00571"
   x1="160.5499"
   gradientUnits="userSpaceOnUse"
   id="SVGID_43_">
					<stop
   id="stop1898"
   style="stop-color:#134A00"
   offset="0" />
					<stop
   id="stop1900"
   style="stop-color:#134A00;stop-opacity:0"
   offset="1" />
				</linearGradient>
				<path
   style="fill:url(#SVGID_43_)"
   id="path1903"
   d="M 49.8,104 C 66,103.4 80.2,93.6 84,78.4 c 2.1,-8.2 1.7,-15.3 -3.6,-23.9 4,6.3 5.4,14.2 3.4,21.7 -3.5,14 -16.3,22.7 -31.2,23.4 -7.4,0.4 -15.5,-1.9 -21.1,-5.4 l -3.8,4.4 c 6.8,3.9 14.5,5.8 22.1,5.4 z"
   class="st50" />
				
					<linearGradient
   gradientTransform="matrix(1,0.00780631,0.00780631,-1,-79.3104,-265.4356)"
   y2="-288.55209"
   x2="152.506"
   y1="-325.72321"
   x1="128.0522"
   gradientUnits="userSpaceOnUse"
   id="SVGID_44_">
					<stop
   id="stop1905"
   style="stop-color:#134A00"
   offset="0" />
					<stop
   id="stop1907"
   style="stop-color:#134A00;stop-opacity:0"
   offset="1" />
				</linearGradient>
				<path
   style="fill:url(#SVGID_44_)"
   id="path1910"
   d="M 56.4,41.7 56.3,18.4 c 11.4,-0.3 22,3.3 30.5,10 L 71.9,45.5 C 67.1,42.6 60.8,41.3 56.4,41.7 Z"
   class="st51" />
				
					<linearGradient
   gradientTransform="matrix(1,0.00780631,0.00780631,-1,-79.3104,-265.4356)"
   y2="-319.8338"
   x2="134.7489"
   y1="-297.53479"
   x1="95.428902"
   gradientUnits="userSpaceOnUse"
   id="SVGID_45_">
					<stop
   id="stop1912"
   style="stop-color:#FFFFFF;stop-opacity:0.5"
   offset="0" />
					<stop
   id="stop1914"
   style="stop-color:#FFFFFF;stop-opacity:0"
   offset="1" />
				</linearGradient>
				<path
   style="fill:url(#SVGID_45_)"
   id="path1917"
   d="M 86.8,28.4 C 77.9,21.5 66.9,18.1 55.6,18.5 c -23.4,1 -43.2,18.8 -41.9,41.4 1,12.9 8.2,24.8 19.6,31.3 4.3,2.6 9.3,4.3 14.4,4.9 1.3,0.1 2.6,0.1 4,0.1 C 35.3,95.6 21.3,80.9 20.3,64.7 19.2,44.8 36.6,29.3 56.8,28.5 c 8.5,-0.3 17,2 24.2,6.6 z"
   class="st52" />
				
					<linearGradient
   gradientTransform="matrix(0.9514,0.3078,0.3078,-0.9514,-187.4037,-909.306)"
   y2="-859.1156"
   x2="530.61212"
   y1="-878.23273"
   x1="583.15143"
   gradientUnits="userSpaceOnUse"
   id="SVGID_46_">
					<stop
   id="stop1919"
   style="stop-color:#134A00"
   offset="0" />
					<stop
   id="stop1921"
   style="stop-color:#134A00;stop-opacity:0"
   offset="1" />
				</linearGradient>
				<path
   style="fill:url(#SVGID_46_)"
   id="path1924"
   d="m 79.9,77.4 c -0.7,2.1 -2.8,5.8 -2.8,5.8 -3.1,4.4 -6.1,6.9 -10.1,9.1 -4,2.2 -8.3,3.5 -12.8,3.8 -4,0.3 -7.8,0 -11.5,-1 -0.8,-0.3 -1.6,-0.4 -2.5,-0.7 -2.4,-0.8 -4.7,-2 -7,-3.2 C 31,90 29,88.5 27,86.8 25.2,85.2 23.5,83.4 22.1,81.5 21.8,81.1 21.6,80.7 21.3,80.4 21,80 20.7,79.6 20.4,79.2 c 1.6,1.9 3.5,3.5 5.3,5 1.1,0.8 2.2,1.6 3.4,2.3 0.5,0.3 1.1,0.7 1.6,1 0.8,0.4 1.5,0.8 2.2,1 0.4,0.1 0.8,0.4 1.3,0.6 0.7,0.2 1.4,0.6 2.2,0.9 0.5,0.2 1.1,0.4 1.7,0.6 1.1,0.4 2.2,0.6 3.3,0.8 5,0.9 10.2,0.5 14.9,-0.8 0.2,-0.1 0.5,-0.1 0.6,-0.1 0.8,-0.2 1.6,-0.5 2.5,-0.8 5.9,-2.3 10.8,-7.3 13,-14 3.3,-10.2 -1.1,-21.1 -10.1,-26.3 -1.4,-0.7 -2.8,-1.5 -4.4,-2 h -0.1 c -1.2,-0.4 -2.3,-0.7 -3.9,-1.1 0.3,0 0.8,-0.2 1.1,-0.2 0.3,0 0.7,-0.1 1.1,-0.2 0.7,-0.1 1.3,-0.1 2,-0.1 2.4,-0.1 5,0.3 7.2,1 2.7,0.9 5.4,2.5 7.6,4.4 1.8,1.5 3.3,3.5 4.5,5.6 0.6,1.1 1.3,2.2 1.7,3.3 1,2.2 1.3,4.4 1.7,6.8 0.2,1.3 0.1,2.7 0.1,3.8 0.3,1.8 -0.4,4.2 -1,6.7 z"
   class="st53" />
				
					<linearGradient
   gradientTransform="matrix(0.9514,0.3078,0.3078,-0.9514,-187.4037,-909.306)"
   y2="-859.1156"
   x2="530.61212"
   y1="-878.23273"
   x1="583.15143"
   gradientUnits="userSpaceOnUse"
   id="SVGID_47_">
					<stop
   id="stop1926"
   style="stop-color:#134A00"
   offset="0" />
					<stop
   id="stop1928"
   style="stop-color:#134A00;stop-opacity:0"
   offset="1" />
				</linearGradient>
				<path
   style="fill:url(#SVGID_47_)"
   id="path1931"
   d="m 79.9,77.4 c -0.7,2.1 -2.8,5.8 -2.8,5.8 -3.1,4.4 -6.1,6.9 -10.1,9.1 -4,2.2 -8.3,3.5 -12.8,3.8 -4,0.3 -7.8,0 -11.5,-1 -0.8,-0.3 -1.6,-0.4 -2.5,-0.7 -2.4,-0.8 -4.7,-2 -7,-3.2 C 31,90 29,88.5 27,86.8 25.2,85.2 23.5,83.4 22.1,81.5 21.8,81.1 21.6,80.7 21.3,80.4 21,80 20.7,79.6 20.4,79.2 c 1.6,1.9 3.5,3.5 5.3,5 1.1,0.8 2.2,1.6 3.4,2.3 0.5,0.3 1.1,0.7 1.6,1 0.8,0.4 1.5,0.8 2.2,1 0.4,0.1 0.8,0.4 1.3,0.6 0.7,0.2 1.4,0.6 2.2,0.9 0.5,0.2 1.1,0.4 1.7,0.6 1.1,0.4 2.2,0.6 3.3,0.8 5,0.9 10.2,0.5 14.9,-0.8 0.2,-0.1 0.5,-0.1 0.6,-0.1 0.8,-0.2 1.6,-0.5 2.5,-0.8 5.9,-2.3 10.8,-7.3 13,-14 3.3,-10.2 -1.1,-21.1 -10.1,-26.3 -1.4,-0.7 -2.8,-1.5 -4.4,-2 h -0.1 c -1.2,-0.4 -2.3,-0.7 -3.9,-1.1 0.3,0 0.8,-0.2 1.1,-0.2 0.3,0 0.7,-0.1 1.1,-0.2 0.7,-0.1 1.3,-0.1 2,-0.1 2.4,-0.1 5,0.3 7.2,1 2.7,0.9 5.4,2.5 7.6,4.4 1.8,1.5 3.3,3.5 4.5,5.6 0.6,1.1 1.3,2.2 1.7,3.3 1,2.2 1.3,4.4 1.7,6.8 0.2,1.3 0.1,2.7 0.1,3.8 0.3,1.8 -0.4,4.2 -1,6.7 z"
   class="st54" />
				
					<linearGradient
   gradientTransform="matrix(1,0.00780631,0.00780631,-1,-79.3104,-265.4356)"
   y2="-319.8338"
   x2="134.7489"
   y1="-297.53479"
   x1="95.428902"
   gradientUnits="userSpaceOnUse"
   id="SVGID_48_">
					<stop
   id="stop1933"
   style="stop-color:#FFFFFF;stop-opacity:0.5"
   offset="0" />
					<stop
   id="stop1935"
   style="stop-color:#FFFFFF;stop-opacity:0"
   offset="1" />
				</linearGradient>
				<path
   style="fill:url(#SVGID_48_)"
   id="path1938"
   d="M 86.8,28.4 C 77.9,21.5 66.9,18.1 55.6,18.5 c -23.4,1 -43.2,18.8 -41.9,41.4 1,12.9 8.2,24.8 19.6,31.3 4.3,2.6 9.3,4.3 14.4,4.9 1.3,0.1 2.6,0.1 4,0.1 C 35.3,95.6 21.3,80.9 20.3,64.7 19.2,44.8 36.6,29.3 56.8,28.5 c 8.5,-0.3 17,2 24.2,6.6 z"
   class="st55" />
			</g>
		</g>
	</g>
	<g
   id="g1946"
   class="st21">
		<text
   id="text1944"
   class="st1 st38 st39"
   transform="translate(55.7536,143.4622)">Your Personal Workspace in the Cloud</text>
	</g>
	<rect
   y="0"
   x="0"
   id="rect1948"
   height="160.10001"
   width="382.29999"
   class="st20" />
	<g
   class="st21"
   id="e143ae51-3470-4d3a-97bb-c1e324d13877_2_">
		<g
   id="e545882f-945c-4f9f-a4f9-78de2c5c49a7_2_">
			<path
   id="path1950"
   d="m 120,90.1 3.5,-7.8 c 4.8,2.5 9.8,3.8 15.1,4 3.5,0 5.3,-1.3 5.3,-3.3 0,-1 -0.5,-2 -1.5,-2.5 -2,-1 -4.3,-2 -6.6,-2.5 -3.8,-0.8 -7.1,-2.3 -10.3,-4.3 -3,-2 -4.8,-5.3 -4.8,-8.8 0,-3.3 1.5,-6.3 4,-8.3 3.3,-2.5 7.6,-3.8 11.6,-3.5 6,0.2 12.1,1.5 17.6,4 l -3.5,7.8 c -4.5,-2 -9.3,-3 -14.4,-3.5 -3.3,0 -5,1.3 -5,3 0,1.7 1.5,3 7.6,4.8 3.8,1 7.6,2.5 10.8,4.5 3,1.8 5,5.3 4.8,8.8 0,3.3 -1.8,6.3 -4.3,8.3 -3.5,2.5 -7.6,3.8 -11.8,3.5 -6.2,0.6 -12.5,-1.1 -18.1,-4.2 z"
   class="st1" />
			<path
   id="path1952"
   d="m 200.1,65.4 v 29 H 189.3 V 69.2 c 0,-4 -1.5,-6 -6,-6 -3.8,0.2 -7.3,1.3 -10.6,2.8 V 94.7 H 161.9 V 37.2 h 10.8 v 20.4 c 4.5,-2.5 9.6,-4 14.9,-4.3 8.3,0.1 12.5,4.1 12.5,12.1 z"
   class="st1" />
			<path
   id="path1954"
   d="m 246,78.8 h -28.2 c 1,5 5.5,8.3 10.6,7.8 4.3,-0.2 8.6,-1 12.3,-3 l 3.3,7.6 c -5.3,2.5 -11.1,3.8 -16.9,3.8 -5.5,0.2 -10.8,-1.8 -14.6,-5.8 -3.8,-4 -5.8,-9.6 -5.5,-15.1 -0.2,-5.5 1.8,-11.1 5.5,-15.1 3.8,-3.8 9.1,-6 14.6,-5.8 5.3,-0.2 10.6,2 14.1,6.3 3.3,4.5 5,10.3 4.8,15.9 z m -28.5,-7.6 h 18.6 c -0.8,-6.6 -3.5,-9.6 -8.8,-9.6 -5.3,0 -9,3.8 -9.8,9.6 z"
   class="st1" />
			<path
   id="path1956"
   d="M 253,83.1 V 37.2 h 10.8 v 44.3 c 0,2.5 1.3,3.8 3.5,3.8 0.8,0 1.8,0 2.8,-0.2 l 0.8,9.1 c -2,0.2 -3.8,0.5 -5.8,0.5 -10,0.2 -12.1,-7.1 -12.1,-11.6 z"
   class="st1" />
			<path
   id="path1958"
   d="M 277,83.1 V 37.2 h 10.8 v 44.3 c 0,2.5 1.3,3.8 3.5,3.8 0.8,0 1.8,0 2.8,-0.2 l 0.8,9.1 c -2,0.2 -3.8,0.5 -5.8,0.5 C 279,94.9 277,87.6 277,83.1 Z"
   class="st1" />
			<path
   id="path1960"
   d="m 298.6,90.1 3.5,-7.8 c 4.8,2.5 9.8,3.8 15.1,4 3.5,0 5.3,-1.3 5.3,-3.3 0,-1 -0.5,-2 -1.5,-2.5 -2,-1 -4.3,-2 -6.6,-2.5 -3.8,-0.8 -7.1,-2.3 -10.3,-4.3 -3,-2 -4.8,-5.3 -4.8,-8.8 0,-3.3 1.5,-6.3 4,-8.3 3.3,-2.5 7.6,-3.8 11.6,-3.5 6,0.2 12.1,1.5 17.6,4 l -3.5,7.8 c -4.5,-2 -9.3,-3 -14.4,-3.5 -3.3,0 -5,1.3 -5,3 0,1.7 1.5,3 7.6,4.8 3.8,1 7.6,2.5 10.8,4.5 3,1.8 5,5.3 4.8,8.8 0,3.3 -1.8,6.3 -4.3,8.3 -3.5,2.5 -7.6,3.8 -11.8,3.5 -6.2,0.6 -12.5,-1.1 -18.1,-4.2 z"
   class="st1" />
			<path
   id="path1962"
   d="m 350,31.2 v 2 h -5.8 v 15.4 h -2 V 33.2 h -5.8 v -2 z"
   class="st1" />
			<path
   id="path1964"
   d="m 368.7,48.6 h -2 l -0.5,-14.1 -4.5,9.8 c -0.2,0.5 -0.5,0.8 -1,0.8 -0.5,0 -0.8,-0.2 -1,-0.8 l -4.5,-9.8 -0.5,13.9 h -2 l 0.5,-16.1 c 0,-0.8 0.8,-1.5 1.5,-1.5 v 0 c 0.5,0 1.3,0.2 1.5,0.8 l 4.8,10.1 4.8,-10.1 c 0.2,-0.5 0.8,-0.8 1.5,-0.8 0.8,0 1.5,0.5 1.5,1.5 v 0 z"
   class="st1" />
			<g
   id="g2078">
				
					<linearGradient
   gradientTransform="matrix(1,0.00780631,0.00780631,-1,-79.3104,-265.4356)"
   y2="-346.737"
   x2="113.993"
   y1="-312.59531"
   x1="139.22839"
   gradientUnits="userSpaceOnUse"
   id="SVGID_49_">
					<stop
   id="stop1966"
   style="stop-color:#52BD15"
   offset="0" />
					<stop
   id="stop1968"
   style="stop-color:#A0E35D"
   offset="1" />
				</linearGradient>
				<path
   style="fill:url(#SVGID_49_)"
   id="path1971"
   d="M 71.9,45.5 86.8,28.4 C 77.9,21.5 66.9,18.1 55.6,18.5 c -23.4,1 -43.2,18.8 -41.9,41.4 1,12.9 8.2,24.8 19.6,31.3 5.8,3.5 12.4,5.2 19.1,5 15,-0.6 27.7,-11 28.6,-25.5 0.7,-13.4 -10.1,-27.2 -25.2,-25 -9.2,1.4 -16.9,8.3 -17.1,17.5 -0.1,5.6 2.6,10.8 7,14.1 l 1.2,-1.4 2.6,-3.1 c -2.1,-1.9 -3.1,-4.4 -3.1,-7.2 0.2,-6 5.2,-10.5 10.9,-10.4 7.1,0.4 12.4,6.4 12.1,13.3 0,0.6 0,1 -0.2,1.6 -1.2,7.5 -7.7,12.6 -15.1,12.6 -3.7,0.1 -7.5,-1 -10.5,-3.1 -5.2,-3.9 -8.3,-10.1 -8.2,-16.6 0,-1.9 0.3,-3.7 0.9,-5.6 0.6,-1.7 1.3,-3.4 2.2,-5 1,-1.6 2.2,-3 3.4,-4.2 1.3,-1.3 2.8,-2.3 4.5,-3.3 1.6,-1 3.4,-1.7 5.2,-2.3 1.8,-0.6 3.9,-1 5.8,-1.1 2.6,-0.2 5.1,0.2 7.6,0.8 2.3,0.9 4.8,1.9 6.9,3.2 z"
   class="st56" />
				
					<linearGradient
   gradientTransform="matrix(1,0.00780631,0.00780631,-1,-79.3104,-265.4356)"
   y2="-331.0918"
   x2="168.5163"
   y1="-374.7352"
   x1="129.3277"
   gradientUnits="userSpaceOnUse"
   id="SVGID_50_">
					<stop
   id="stop1973"
   style="stop-color:#52BD15"
   offset="0" />
					<stop
   id="stop1975"
   style="stop-color:#A0E35D"
   offset="1" />
				</linearGradient>
				<path
   style="fill:url(#SVGID_50_)"
   id="path1978"
   d="m 31.5,94.4 -12.8,14.8 c 8.8,7 20.1,10.6 31.4,10 13,-0.4 25.7,-6.1 33.8,-16.4 l 0.3,-0.4 c 3,-3.8 5.3,-8.2 6.6,-12.6 2.6,-12.6 -1.2,-25.7 -10.3,-35.1 4.1,6.5 5.4,14.2 3.4,21.7 -3.5,14 -16.5,22.9 -31.2,23.4 -7.5,0.2 -14.8,-1.7 -21.2,-5.4 z"
   class="st57" />
				
					<linearGradient
   gradientTransform="matrix(0.9997,0.02738307,0.02738307,-0.9997,-104.9038,-258.4152)"
   y2="-367.46179"
   x2="150.4509"
   y1="-326.97241"
   x1="195.96111"
   gradientUnits="userSpaceOnUse"
   id="SVGID_51_">
					<stop
   id="stop1980"
   style="stop-color:#134A00"
   offset="0" />
					<stop
   id="stop1982"
   style="stop-color:#134A00;stop-opacity:0"
   offset="1" />
				</linearGradient>
				<path
   style="fill:url(#SVGID_51_)"
   id="path1985"
   d="m 18.6,109.1 c 8.7,6.9 21.5,11.6 36.1,9.7 L 55.2,99.6 C 45.9,100.9 37.6,98 31.4,94.5 Z"
   class="st58" />
				
					<linearGradient
   gradientTransform="matrix(0.9999,0.01074736,0.01074736,-0.9999,-88.2166,-261.4149)"
   y2="-338.10059"
   x2="118.3424"
   y1="-324.6402"
   x1="155.7155"
   gradientUnits="userSpaceOnUse"
   id="SVGID_52_">
					<stop
   id="stop1987"
   style="stop-color:#134A00"
   offset="0" />
					<stop
   id="stop1989"
   style="stop-color:#134A00;stop-opacity:0"
   offset="1" />
				</linearGradient>
				<path
   style="fill:url(#SVGID_52_)"
   id="path1992"
   d="m 14.7,65.8 c 4.5,18.8 19.1,25.8 19.1,25.8 l 9.9,-11.7 c -8.1,-5.7 -8.4,-15 -8.4,-15 z"
   class="st59" />
				
					<linearGradient
   gradientTransform="matrix(1,0.00780631,0.00780631,-1,-79.3104,-265.4356)"
   y2="-293.76019"
   x2="121.5667"
   y1="-336.7644"
   x1="115.8475"
   gradientUnits="userSpaceOnUse"
   id="SVGID_53_">
					<stop
   id="stop1994"
   style="stop-color:#134A00"
   offset="0" />
					<stop
   id="stop1996"
   style="stop-color:#134A00;stop-opacity:0"
   offset="1" />
				</linearGradient>
				<path
   style="fill:url(#SVGID_53_)"
   id="path1999"
   d="m 39.4,51.1 c 4,-5.4 10.5,-8.7 17.1,-9.4 L 56.4,18.4 c 0,0 -21.9,-0.5 -35.8,18.5 z"
   class="st60" />
				
					<linearGradient
   gradientTransform="matrix(1,0.00780631,0.00780631,-1,-79.3104,-265.4356)"
   y2="-312.6749"
   x2="103.7013"
   y1="-351.23499"
   x1="122.9828"
   gradientUnits="userSpaceOnUse"
   id="SVGID_54_">
					<stop
   id="stop2001"
   style="stop-color:#134A00"
   offset="0" />
					<stop
   id="stop2003"
   style="stop-color:#134A00;stop-opacity:0"
   offset="1" />
				</linearGradient>
				<path
   style="fill:url(#SVGID_54_)"
   id="path2006"
   d="M 39.4,51.1 20.5,37 c -6,8.3 -8.2,18.7 -5.8,28.8 l 20.6,-1 c -0.5,-4.9 1.3,-10.1 4.1,-13.7 z"
   class="st61" />
				
					<linearGradient
   gradientTransform="matrix(1,0.00780631,0.00780631,-1,-79.3104,-265.4356)"
   y2="-325.12729"
   x2="137.8629"
   y1="-307.0329"
   x1="121.3309"
   gradientUnits="userSpaceOnUse"
   id="SVGID_55_">
					<stop
   id="stop2008"
   style="stop-color:#FFFFFF"
   offset="0" />
					<stop
   id="stop2010"
   style="stop-color:#FFFFFF;stop-opacity:0"
   offset="1" />
				</linearGradient>
				<path
   style="fill:url(#SVGID_55_)"
   id="path2013"
   d="M 75.8,54.3 C 71.1,48 63.6,44.9 55.8,45.9 46.6,47.3 38.9,54 38.7,63.3 c -0.1,5.6 2.6,10.8 7,14.1 l 0.7,-0.8 c -5.7,-6.5 -6,-17.4 0.9,-22.4 11.6,-8.4 25.5,-1.5 29.6,10.9 1.4,4.4 2.2,9 2.5,13.7 3.2,-7.9 1.9,-16.8 -3.2,-23.9 z"
   class="st62" />
				
					<linearGradient
   gradientTransform="matrix(1,-0.01037745,-0.01037745,-1,-61.8799,-269.4559)"
   y2="-380.76099"
   x2="130.4679"
   y1="-336.8699"
   x1="129.09801"
   gradientUnits="userSpaceOnUse"
   id="SVGID_56_">
					<stop
   id="stop2015"
   style="stop-color:#134A00"
   offset="0" />
					<stop
   id="stop2017"
   style="stop-color:#134A00;stop-opacity:0"
   offset="1" />
				</linearGradient>
				<path
   style="fill:url(#SVGID_56_)"
   id="path2020"
   d="m 54.8,118.7 c 10.6,-1.3 22,-7 28.5,-15.3 l 0.5,-0.7 c 2.5,-3.2 4.8,-6.9 6.1,-10.6 l -9.3,-8.2 c -5,8.5 -15.1,14.5 -25.3,15.4 z"
   class="st63" />
				
					<linearGradient
   gradientTransform="matrix(1,0.00780631,0.00780631,-1,-79.3104,-265.4356)"
   y2="-350.84909"
   x2="176.5201"
   y1="-316.05139"
   x1="148.7628"
   gradientUnits="userSpaceOnUse"
   id="SVGID_57_">
					<stop
   id="stop2022"
   style="stop-color:#134A00"
   offset="0" />
					<stop
   id="stop2024"
   style="stop-color:#134A00;stop-opacity:0"
   offset="1" />
				</linearGradient>
				<path
   style="fill:url(#SVGID_57_)"
   id="path2027"
   d="m 80.6,83.8 9.3,8.2 c 0.2,-0.5 0.6,-1.7 0.7,-2.3 2.8,-12.6 -1.1,-26 -10.3,-35.2 4.1,6.5 5.5,14.4 3.5,21.9 -0.8,2.6 -1.9,5.1 -3.2,7.4 z"
   class="st64" />
				
					<linearGradient
   gradientTransform="matrix(1,0.00780631,0.00780631,-1,-79.3104,-265.4356)"
   y2="-352.44531"
   x2="136.55721"
   y1="-418.75171"
   x1="187.5318"
   gradientUnits="userSpaceOnUse"
   id="SVGID_58_">
					<stop
   id="stop2029"
   style="stop-color:#FFFFFF"
   offset="0" />
					<stop
   id="stop2031"
   style="stop-color:#FFFFFF;stop-opacity:0"
   offset="1" />
				</linearGradient>
				<path
   style="fill:url(#SVGID_58_)"
   id="path2034"
   d="m 18.6,109.1 c 8.8,7 20.1,10.6 31.4,10 13,-0.4 25.9,-6.4 33.8,-16.4 l 0.3,-0.4 c 3,-3.8 5.3,-8.2 6.6,-12.6 0.5,-1.5 0.6,-3.2 0.7,-4.8 0.1,-1.6 0.2,-3.2 0.1,-4.9 -0.1,-3.3 -0.7,-6.5 -1.6,-9.6 -1,-3.2 -2.4,-6.3 -4.1,-9.1 -1.4,-2.4 -3.2,-4.6 -5.3,-6.6 0.3,0.4 0.7,1 1,1.5 2.1,3.1 3.9,6.3 5.2,9.9 1.3,3.4 2,7 2,10.6 0,0 0,0 0,0.1 0,0.1 0.1,0.2 0.1,0.3 0.1,1.5 0,3.1 -0.2,4.7 -0.2,1.6 -0.3,3.2 -0.8,4.6 -1.3,4.3 -3.5,8.4 -6.2,11.6 l -0.3,0.4 c -7.7,9.2 -19,14.8 -31.2,15.2 -9.9,0.5 -19.9,-2.6 -27.9,-8.5 z"
   class="st65" />
				
					<linearGradient
   gradientTransform="matrix(1,0.00780631,0.00780631,-1,-79.3104,-265.4356)"
   y2="-401.01801"
   x2="108.1911"
   y1="-319.00571"
   x1="160.5499"
   gradientUnits="userSpaceOnUse"
   id="SVGID_59_">
					<stop
   id="stop2036"
   style="stop-color:#134A00"
   offset="0" />
					<stop
   id="stop2038"
   style="stop-color:#134A00;stop-opacity:0"
   offset="1" />
				</linearGradient>
				<path
   style="fill:url(#SVGID_59_)"
   id="path2041"
   d="M 49.8,104 C 66,103.4 80.2,93.6 84,78.4 c 2.1,-8.2 1.7,-15.3 -3.6,-23.9 4,6.3 5.4,14.2 3.4,21.7 -3.5,14 -16.3,22.7 -31.2,23.4 -7.4,0.4 -15.5,-1.9 -21.1,-5.4 l -3.8,4.4 c 6.8,3.9 14.5,5.8 22.1,5.4 z"
   class="st66" />
				
					<linearGradient
   gradientTransform="matrix(1,0.00780631,0.00780631,-1,-79.3104,-265.4356)"
   y2="-288.55209"
   x2="152.506"
   y1="-325.72321"
   x1="128.0522"
   gradientUnits="userSpaceOnUse"
   id="SVGID_60_">
					<stop
   id="stop2043"
   style="stop-color:#134A00"
   offset="0" />
					<stop
   id="stop2045"
   style="stop-color:#134A00;stop-opacity:0"
   offset="1" />
				</linearGradient>
				<path
   style="fill:url(#SVGID_60_)"
   id="path2048"
   d="M 56.4,41.7 56.3,18.4 c 11.4,-0.3 22,3.3 30.5,10 L 71.9,45.5 C 67.1,42.6 60.8,41.3 56.4,41.7 Z"
   class="st67" />
				
					<linearGradient
   gradientTransform="matrix(1,0.00780631,0.00780631,-1,-79.3104,-265.4356)"
   y2="-319.8338"
   x2="134.7489"
   y1="-297.53479"
   x1="95.428902"
   gradientUnits="userSpaceOnUse"
   id="SVGID_61_">
					<stop
   id="stop2050"
   style="stop-color:#FFFFFF;stop-opacity:0.5"
   offset="0" />
					<stop
   id="stop2052"
   style="stop-color:#FFFFFF;stop-opacity:0"
   offset="1" />
				</linearGradient>
				<path
   style="fill:url(#SVGID_61_)"
   id="path2055"
   d="M 86.8,28.4 C 77.9,21.5 66.9,18.1 55.6,18.5 c -23.4,1 -43.2,18.8 -41.9,41.4 1,12.9 8.2,24.8 19.6,31.3 4.3,2.6 9.3,4.3 14.4,4.9 1.3,0.1 2.6,0.1 4,0.1 C 35.3,95.6 21.3,80.9 20.3,64.7 19.2,44.8 36.6,29.3 56.8,28.5 c 8.5,-0.3 17,2 24.2,6.6 z"
   class="st68" />
				
					<linearGradient
   gradientTransform="matrix(0.9514,0.3078,0.3078,-0.9514,-187.4037,-909.306)"
   y2="-859.1156"
   x2="530.61212"
   y1="-878.23273"
   x1="583.15143"
   gradientUnits="userSpaceOnUse"
   id="SVGID_62_">
					<stop
   id="stop2057"
   style="stop-color:#134A00"
   offset="0" />
					<stop
   id="stop2059"
   style="stop-color:#134A00;stop-opacity:0"
   offset="1" />
				</linearGradient>
				<path
   style="fill:url(#SVGID_62_)"
   id="path2062"
   d="m 79.9,77.4 c -0.7,2.1 -2.8,5.8 -2.8,5.8 -3.1,4.4 -6.1,6.9 -10.1,9.1 -4,2.2 -8.3,3.5 -12.8,3.8 -4,0.3 -7.8,0 -11.5,-1 -0.8,-0.3 -1.6,-0.4 -2.5,-0.7 -2.4,-0.8 -4.7,-2 -7,-3.2 C 31,90 29,88.5 27,86.8 25.2,85.2 23.5,83.4 22.1,81.5 21.8,81.1 21.6,80.7 21.3,80.4 21,80 20.7,79.6 20.4,79.2 c 1.6,1.9 3.5,3.5 5.3,5 1.1,0.8 2.2,1.6 3.4,2.3 0.5,0.3 1.1,0.7 1.6,1 0.8,0.4 1.5,0.8 2.2,1 0.4,0.1 0.8,0.4 1.3,0.6 0.7,0.2 1.4,0.6 2.2,0.9 0.5,0.2 1.1,0.4 1.7,0.6 1.1,0.4 2.2,0.6 3.3,0.8 5,0.9 10.2,0.5 14.9,-0.8 0.2,-0.1 0.5,-0.1 0.6,-0.1 0.8,-0.2 1.6,-0.5 2.5,-0.8 5.9,-2.3 10.8,-7.3 13,-14 3.3,-10.2 -1.1,-21.1 -10.1,-26.3 -1.4,-0.7 -2.8,-1.5 -4.4,-2 h -0.1 c -1.2,-0.4 -2.3,-0.7 -3.9,-1.1 0.3,0 0.8,-0.2 1.1,-0.2 0.3,0 0.7,-0.1 1.1,-0.2 0.7,-0.1 1.3,-0.1 2,-0.1 2.4,-0.1 5,0.3 7.2,1 2.7,0.9 5.4,2.5 7.6,4.4 1.8,1.5 3.3,3.5 4.5,5.6 0.6,1.1 1.3,2.2 1.7,3.3 1,2.2 1.3,4.4 1.7,6.8 0.2,1.3 0.1,2.7 0.1,3.8 0.3,1.8 -0.4,4.2 -1,6.7 z"
   class="st69" />
				
					<linearGradient
   gradientTransform="matrix(0.9514,0.3078,0.3078,-0.9514,-187.4037,-909.306)"
   y2="-859.1156"
   x2="530.61212"
   y1="-878.23273"
   x1="583.15143"
   gradientUnits="userSpaceOnUse"
   id="SVGID_63_">
					<stop
   id="stop2064"
   style="stop-color:#134A00"
   offset="0" />
					<stop
   id="stop2066"
   style="stop-color:#134A00;stop-opacity:0"
   offset="1" />
				</linearGradient>
				<path
   style="fill:url(#SVGID_63_)"
   id="path2069"
   d="m 79.9,77.4 c -0.7,2.1 -2.8,5.8 -2.8,5.8 -3.1,4.4 -6.1,6.9 -10.1,9.1 -4,2.2 -8.3,3.5 -12.8,3.8 -4,0.3 -7.8,0 -11.5,-1 -0.8,-0.3 -1.6,-0.4 -2.5,-0.7 -2.4,-0.8 -4.7,-2 -7,-3.2 C 31,90 29,88.5 27,86.8 25.2,85.2 23.5,83.4 22.1,81.5 21.8,81.1 21.6,80.7 21.3,80.4 21,80 20.7,79.6 20.4,79.2 c 1.6,1.9 3.5,3.5 5.3,5 1.1,0.8 2.2,1.6 3.4,2.3 0.5,0.3 1.1,0.7 1.6,1 0.8,0.4 1.5,0.8 2.2,1 0.4,0.1 0.8,0.4 1.3,0.6 0.7,0.2 1.4,0.6 2.2,0.9 0.5,0.2 1.1,0.4 1.7,0.6 1.1,0.4 2.2,0.6 3.3,0.8 5,0.9 10.2,0.5 14.9,-0.8 0.2,-0.1 0.5,-0.1 0.6,-0.1 0.8,-0.2 1.6,-0.5 2.5,-0.8 5.9,-2.3 10.8,-7.3 13,-14 3.3,-10.2 -1.1,-21.1 -10.1,-26.3 -1.4,-0.7 -2.8,-1.5 -4.4,-2 h -0.1 c -1.2,-0.4 -2.3,-0.7 -3.9,-1.1 0.3,0 0.8,-0.2 1.1,-0.2 0.3,0 0.7,-0.1 1.1,-0.2 0.7,-0.1 1.3,-0.1 2,-0.1 2.4,-0.1 5,0.3 7.2,1 2.7,0.9 5.4,2.5 7.6,4.4 1.8,1.5 3.3,3.5 4.5,5.6 0.6,1.1 1.3,2.2 1.7,3.3 1,2.2 1.3,4.4 1.7,6.8 0.2,1.3 0.1,2.7 0.1,3.8 0.3,1.8 -0.4,4.2 -1,6.7 z"
   class="st70" />
				
					<linearGradient
   gradientTransform="matrix(1,0.00780631,0.00780631,-1,-79.3104,-265.4356)"
   y2="-319.8338"
   x2="134.7489"
   y1="-297.53479"
   x1="95.428902"
   gradientUnits="userSpaceOnUse"
   id="SVGID_64_">
					<stop
   id="stop2071"
   style="stop-color:#FFFFFF;stop-opacity:0.5"
   offset="0" />
					<stop
   id="stop2073"
   style="stop-color:#FFFFFF;stop-opacity:0"
   offset="1" />
				</linearGradient>
				<path
   style="fill:url(#SVGID_64_)"
   id="path2076"
   d="M 86.8,28.4 C 77.9,21.5 66.9,18.1 55.6,18.5 c -23.4,1 -43.2,18.8 -41.9,41.4 1,12.9 8.2,24.8 19.6,31.3 4.3,2.6 9.3,4.3 14.4,4.9 1.3,0.1 2.6,0.1 4,0.1 C 35.3,95.6 21.3,80.9 20.3,64.7 19.2,44.8 36.6,29.3 56.8,28.5 c 8.5,-0.3 17,2 24.2,6.6 z"
   class="st71" />
			</g>
		</g>
	</g>
	<g
   id="g2084"
   class="st21">
		<text
   id="text2082"
   class="st1 st38 st39"
   transform="translate(114.4569,143.4622)">Run Linux Anywhere</text>
	</g>
</g>
</svg>
