<svg xmlns="http://www.w3.org/2000/svg" width="64.999992" height="65"><g style="display:inline"><path style="font-style:normal;font-variant:normal;font-weight:700;font-stretch:normal;font-size:67.76039124px;line-height:100%;font-family:'URW Palladio L';text-align:start;writing-mode:lr-tb;text-anchor:start;fill:#000;fill-opacity:1;stroke:none" d="M334.29608 348.7611c-7.04707 2.30385-8.96068.89047-12.6875 1.09375v2.4375l3.0625.21875c1.55848.13552 1.75 2.56464 1.75 6.5625v14.84375c0 3.65905-.33693 4.17698-2.4375 4.3125l-2.375.15625v2.5l8.75-.21875c1.35521 0 4.61631.0832 9.15625.21875v-2.5l-2.375-.15625c-2.10058-.13552-2.4375-.65344-2.4375-4.3125V359.1986c0-2.37161 2.76855-4.59375 5.75-4.59375 4.47218 0 6.375 2.36042 6.375 7.78125v18.5c3.86234-.13552 5.00958-.21875 6.09375-.21875.94865 0 .9486.0155 6.84375.21875v-2.5l-2.21875-.15625c-2.10057-.13552-2.4375-.65344-2.4375-4.3125v-12.625c0-5.21755-.61323-7.79021-2.375-9.6875-1.76177-1.82952-4.55474-2.84375-7.875-2.84375-1.67848 0-3.07556.28397-4.125.875-.0627.0353-.12739.0562-.1875.0937-2.34944 1.14904-4.33004 2.66823-5.84375 4.375v-4.9375l-.40625-.40625z" transform="translate(-295.2565919 -323.5110609)"/><path d="M333.29608 348.0111c-7.04707 2.30385-8.96068.89047-12.6875 1.09375v2.4375l3.0625.21875c1.55848.13552 1.75 2.56464 1.75 6.5625v14.84375c0 3.65905-.33693 4.17698-2.4375 4.3125l-2.375.15625v2.5l8.75-.21875c1.35521 0 4.61631.0832 9.15625.21875v-2.5l-2.375-.15625c-2.10058-.13552-2.4375-.65344-2.4375-4.3125V358.4486c0-2.37161 2.76855-4.59375 5.75-4.59375 4.47218 0 6.375 2.36042 6.375 7.78125v18.5c3.86234-.13552 5.00958-.21875 6.09375-.21875.94865 0 .9486.0155 6.84375.21875v-2.5l-2.21875-.15625c-2.10057-.13552-2.4375-.65344-2.4375-4.3125v-12.625c0-5.21755-.61323-7.79021-2.375-9.6875-1.76177-1.82952-4.55474-2.84375-7.875-2.84375-1.67848 0-3.07556.28397-4.125.875-.0627.0353-.12739.0562-.1875.0937-2.34944 1.14904-4.33004 2.66823-5.84375 4.375v-4.9375l-.40625-.40625z" style="font-style:normal;font-variant:normal;font-weight:700;font-stretch:normal;font-size:67.76039124px;line-height:100%;font-family:'URW Palladio L';text-align:start;writing-mode:lr-tb;text-anchor:start;fill:#4beb4a;fill-opacity:1;stroke:none" transform="translate(-295.2565919 -323.5110609)"/></g><g style="display:inline"><path d="M222.54608 331.8861c-.92778-.004-1.63557.17608-2.4375.375-6.37685 1.63384-11.19091 5.88703-12.21875 11.09375-.32019 1.19492-.40625 2.67048-.40625 4.875v2.90625c-1.76177 1.21969-3.10766 1.97833-5.34375 3.0625v1.625l5.34375-.34375v18.4375c0 3.72681-.33662 4.17698-2.84375 4.3125l-2.78125.15625v2.5c8.26676-.20328 8.27505-.21875 9.5625-.21875.94864 0 .956.0155 10.78125.21875v-2.5l-3.0625-.15625c-1.82953-.0678-2.98422-.53589-3.1875-1.28125-.13552-.60984-.1875-1.405-.1875-3.03125v-18.4375h8.40625l.71875-3.9375-.25-.53125c-4.40442.20328-6.09683.25-8.875.25v-7.3125c0-2.57489.18193-3.77537.65625-4.65625.49308-.92454 1.57459-1.44202 2.9375-1.53125.39044 1.05901.8072 1.95501 1.21875 2.4375 1.65201 1.9368 4.5632 2.15201 6.5.5 1.72357-1.47013 2.10038-3.92209 1-5.8125-.55488-1.16602-1.5142-2.1028-2.6875-2.59375-.91002-.37826-1.87776-.3779-2.84375-.40625z" style="font-style:normal;font-variant:normal;font-weight:700;font-stretch:normal;font-size:67.76039124px;line-height:100%;font-family:'URW Palladio L';text-align:start;writing-mode:lr-tb;text-anchor:start;fill:#000;fill-opacity:1;stroke:none" transform="translate(-200.366815 -323.5110646)"/><path style="font-style:normal;font-variant:normal;font-weight:700;font-stretch:normal;font-size:67.76039124px;line-height:100%;font-family:'URW Palladio L';text-align:start;writing-mode:lr-tb;text-anchor:start;fill:#e6e6e6;fill-opacity:1;stroke:none" d="M221.54608 331.1361c-.92778-.004-1.63557.17608-2.4375.375-6.37685 1.63384-11.19091 5.88703-12.21875 11.09375-.32019 1.19492-.40625 2.67048-.40625 4.875v2.90625c-1.76177 1.21969-3.10766 1.97833-5.34375 3.0625v1.625l5.34375-.34375v18.4375c0 3.72681-.33662 4.17698-2.84375 4.3125l-2.78125.15625v2.5c8.26676-.20328 8.27505-.21875 9.5625-.21875.94864 0 .956.0155 10.78125.21875v-2.5l-3.0625-.15625c-1.82953-.0678-2.98422-.53589-3.1875-1.28125-.13552-.60984-.1875-1.405-.1875-3.03125v-18.4375h8.40625l.71875-3.9375-.25-.53125c-4.40442.20328-6.09683.25-8.875.25v-7.3125c0-2.57489.18193-3.77537.65625-4.65625.49308-.92454 1.57459-1.44202 2.9375-1.53125.39044 1.05901.8072 1.95501 1.21875 2.4375 1.65201 1.9368 4.5632 2.15201 6.5.5 1.72357-1.47013 2.10038-3.92209 1-5.8125-.55488-1.16602-1.5142-2.1028-2.6875-2.59375-.91002-.37826-1.87776-.3779-2.84375-.40625z" transform="translate(-200.366815 -323.5110646)"/></g></svg>
