<svg xmlns="http://www.w3.org/2000/svg" viewBox="0 0 135.467 135.467"><g font-weight="700" font-size="67.76" font-family="URW Palladio L"><path style="line-height:100%;text-align:start" d="M79.605 50.926c-11.082 3.624-14.092 1.4-19.953 1.72v3.834l4.816.344c2.451.213 2.752 4.033 2.752 10.32V90.49c0 5.755-.53 6.57-3.833 6.782l-3.735.246v3.932l13.76-.344c2.132 0 7.261.13 14.4.344v-3.932l-3.734-.246c-3.304-.213-3.834-1.027-3.834-6.782V67.341c0-3.73 4.354-7.224 9.043-7.224 7.034 0 10.026 3.712 10.026 12.237v29.095c6.074-.213 7.879-.344 9.584-.344 1.492 0 1.492.024 10.763.344v-3.932l-3.49-.246c-3.303-.213-3.833-1.027-3.833-6.782V70.634c0-8.206-.964-12.252-3.735-15.235-2.77-2.878-7.163-4.473-12.385-4.473-2.64 0-4.837.447-6.487 1.376-.099.056-.2.089-.295.148-3.695 1.807-6.81 4.196-9.19 6.88v-7.765l-.64-.639z"/><path d="M78.033 49.747c-11.083 3.623-14.093 1.4-19.954 1.72V55.3l4.817.344c2.45.213 2.752 4.034 2.752 10.321V89.31c0 5.754-.53 6.569-3.834 6.782l-3.735.246v3.931l13.761-.344c2.132 0 7.26.131 14.4.344v-3.931l-3.735-.246c-3.304-.213-3.833-1.028-3.833-6.782V66.162c0-3.73 4.354-7.225 9.043-7.225 7.033 0 10.025 3.712 10.025 12.238v29.094c6.075-.213 7.879-.344 9.584-.344 1.492 0 1.492.025 10.763.344v-3.931l-3.49-.246c-3.303-.213-3.833-1.028-3.833-6.782V69.455c0-8.206-.964-12.252-3.735-15.236-2.77-2.877-7.163-4.472-12.385-4.472-2.64 0-4.837.446-6.487 1.376-.099.055-.2.088-.295.147-3.695 1.807-6.81 4.197-9.19 6.88v-7.764l-.64-.64z" style="line-height:100%;text-align:start" fill="#4beb4a"/></g><g font-weight="700" font-size="67.76" font-family="URW Palladio L"><path d="M53.09 24.387c-1.46-.006-2.573.277-3.834.59-10.029 2.57-17.6 9.258-19.216 17.447-.504 1.88-.64 4.2-.64 7.667v4.57c-2.77 1.919-4.886 3.112-8.403 4.817v2.555l8.404-.54v28.996c0 5.861-.53 6.57-4.472 6.782l-4.374.246v3.932c13-.32 13.014-.344 15.038-.344 1.492 0 1.504.024 16.956.344v-3.932l-4.816-.246c-2.878-.106-4.694-.842-5.013-2.015-.214-.959-.295-2.21-.295-4.767V61.493h13.22l1.13-6.193-.393-.835c-6.926.32-9.588.393-13.957.393v-11.5c0-4.05.286-5.938 1.032-7.323.775-1.454 2.476-2.268 4.62-2.408.614 1.665 1.27 3.074 1.916 3.833 2.598 3.046 7.177 3.385 10.223.786a7.23 7.23 0 0 0 1.572-9.14c-.872-1.835-2.38-3.308-4.226-4.08-1.431-.595-2.953-.594-4.472-.639z" style="line-height:100%;text-align:start"/><path style="line-height:100%;text-align:start" d="M51.517 23.208c-1.46-.007-2.572.277-3.834.59-10.028 2.569-17.6 9.258-19.216 17.446-.503 1.88-.639 4.2-.639 7.667v4.57c-2.77 1.92-4.887 3.112-8.404 4.817v2.556l8.404-.54V89.31c0 5.86-.53 6.569-4.472 6.782l-4.374.246v3.931c13-.32 13.014-.344 15.039-.344 1.492 0 1.503.025 16.955.344v-3.931l-4.816-.246c-2.877-.107-4.693-.843-5.013-2.015-.213-.96-.295-2.21-.295-4.767V60.313h13.22l1.13-6.192-.392-.836c-6.927.32-9.589.393-13.958.393v-11.5c0-4.05.286-5.937 1.032-7.323.776-1.454 2.476-2.267 4.62-2.408.614 1.666 1.27 3.075 1.917 3.834 2.598 3.046 7.176 3.384 10.222.786a7.23 7.23 0 0 0 1.573-9.141c-.873-1.834-2.382-3.307-4.227-4.08-1.431-.594-2.953-.594-4.472-.638z" fill="#e6e6e6"/></g></svg>
