<svg xmlns="http://www.w3.org/2000/svg" height="140.88193" width="395.16058" xml:space="preserve" viewBox="0 0 395.1606 140.88192" y="0" x="0" id="Layer_1" version="1.1"><style id="style1468" type="text/css">.st1{fill:#f6f6f6}.st19{display:none}.st20{fill:#04222e}.st20,.st21{display:inline}.st38{font-family:&apos;JanoSansPro-RegularItalic&apos;}.st39{font-size:16px}</style><g transform="translate(6.3605928 1.6173535)" id="e143ae51-3470-4d3a-97bb-c1e324d13877"><g id="e545882f-945c-4f9f-a4f9-78de2c5c49a7"><path class="st1" d="M120 90.1l3.5-7.8c4.8 2.5 9.8 3.8 15.1 4 3.5 0 5.3-1.3 5.3-3.3 0-1-.5-2-1.5-2.5-2-1-4.3-2-6.6-2.5-3.8-.8-7.1-2.3-10.3-4.3-3-2-4.8-5.3-4.8-8.8 0-3.3 1.5-6.3 4-8.3 3.3-2.5 7.6-3.8 11.6-3.5 6 .2 12.1 1.5 17.6 4l-3.5 7.8c-4.5-2-9.3-3-14.4-3.5-3.3 0-5 1.3-5 3s1.5 3 7.6 4.8c3.8 1 7.6 2.5 10.8 4.5 3 1.8 5 5.3 4.8 8.8 0 3.3-1.8 6.3-4.3 8.3-3.5 2.5-7.6 3.8-11.8 3.5-6.2.6-12.5-1.1-18.1-4.2z" id="path1472"/><path class="st1" d="M200.1 65.4v29h-10.8V69.2c0-4-1.5-6-6-6-3.8.2-7.3 1.3-10.6 2.8v28.7h-10.8V37.2h10.8v20.4c4.5-2.5 9.6-4 14.9-4.3 8.3.1 12.5 4.1 12.5 12.1z" id="path1474"/><path class="st1" d="M246 78.8h-28.2c1 5 5.5 8.3 10.6 7.8 4.3-.2 8.6-1 12.3-3l3.3 7.6c-5.3 2.5-11.1 3.8-16.9 3.8-5.5.2-10.8-1.8-14.6-5.8-3.8-4-5.8-9.6-5.5-15.1-.2-5.5 1.8-11.1 5.5-15.1 3.8-3.8 9.1-6 14.6-5.8 5.3-.2 10.6 2 14.1 6.3 3.3 4.5 5 10.3 4.8 15.9zm-28.5-7.6h18.6c-.8-6.6-3.5-9.6-8.8-9.6-5.3 0-9 3.8-9.8 9.6z" id="path1476"/><path class="st1" d="M253 83.1V37.2h10.8v44.3c0 2.5 1.3 3.8 3.5 3.8.8 0 1.8 0 2.8-.2l.8 9.1c-2 .2-3.8.5-5.8.5-10 .2-12.1-7.1-12.1-11.6z" id="path1478"/><path class="st1" d="M277 83.1V37.2h10.8v44.3c0 2.5 1.3 3.8 3.5 3.8.8 0 1.8 0 2.8-.2l.8 9.1c-2 .2-3.8.5-5.8.5-10.1.2-12.1-7.1-12.1-11.6z" id="path1480"/><path class="st1" d="M298.6 90.1l3.5-7.8c4.8 2.5 9.8 3.8 15.1 4 3.5 0 5.3-1.3 5.3-3.3 0-1-.5-2-1.5-2.5-2-1-4.3-2-6.6-2.5-3.8-.8-7.1-2.3-10.3-4.3-3-2-4.8-5.3-4.8-8.8 0-3.3 1.5-6.3 4-8.3 3.3-2.5 7.6-3.8 11.6-3.5 6 .2 12.1 1.5 17.6 4l-3.5 7.8c-4.5-2-9.3-3-14.4-3.5-3.3 0-5 1.3-5 3s1.5 3 7.6 4.8c3.8 1 7.6 2.5 10.8 4.5 3 1.8 5 5.3 4.8 8.8 0 3.3-1.8 6.3-4.3 8.3-3.5 2.5-7.6 3.8-11.8 3.5-6.2.6-12.5-1.1-18.1-4.2z" id="path1482"/><path class="st1" d="M350 31.2v2h-5.8v15.4h-2V33.2h-5.8v-2z" id="path1484"/><path class="st1" d="M368.7 48.6h-2l-.5-14.1-4.5 9.8c-.2.5-.5.8-1 .8s-.8-.2-1-.8l-4.5-9.8-.5 13.9h-2l.5-16.1c0-.8.8-1.5 1.5-1.5.5 0 1.3.2 1.5.8l4.8 10.1 4.8-10.1c.2-.5.8-.8 1.5-.8.8 0 1.5.5 1.5 1.5z" id="path1486"/><g id="g1600"><linearGradient id="SVGID_1_" gradientUnits="userSpaceOnUse" x1="139.22839" y1="-312.59531" x2="113.993" y2="-346.737" gradientTransform="matrix(1 .0078 .0078 -1 -79.3104 -265.4356)"><stop offset="0" style="stop-color:#52bd15" id="stop1488"/><stop offset="1" style="stop-color:#a0e35d" id="stop1490"/></linearGradient><path d="M71.9 45.5l14.9-17.1c-8.9-6.9-19.9-10.3-31.2-9.9-23.4 1-43.2 18.8-41.9 41.4 1 12.9 8.2 24.8 19.6 31.3 5.8 3.5 12.4 5.2 19.1 5 15-.6 27.7-11 28.6-25.5.7-13.4-10.1-27.2-25.2-25-9.2 1.4-16.9 8.3-17.1 17.5-.1 5.6 2.6 10.8 7 14.1l1.2-1.4 2.6-3.1c-2.1-1.9-3.1-4.4-3.1-7.2.2-6 5.2-10.5 10.9-10.4 7.1.4 12.4 6.4 12.1 13.3 0 .6 0 1-.2 1.6-1.2 7.5-7.7 12.6-15.1 12.6-3.7.1-7.5-1-10.5-3.1-5.2-3.9-8.3-10.1-8.2-16.6 0-1.9.3-3.7.9-5.6.6-1.7 1.3-3.4 2.2-5 1-1.6 2.2-3 3.4-4.2 1.3-1.3 2.8-2.3 4.5-3.3 1.6-1 3.4-1.7 5.2-2.3 1.8-.6 3.9-1 5.8-1.1 2.6-.2 5.1.2 7.6.8 2.3.9 4.8 1.9 6.9 3.2z" id="path1493" style="fill:url(#SVGID_1_);fill-rule:evenodd;clip-rule:evenodd"/><linearGradient id="SVGID_2_" gradientUnits="userSpaceOnUse" x1="129.3277" y1="-374.7352" x2="168.5163" y2="-331.0918" gradientTransform="matrix(1 .0078 .0078 -1 -79.3104 -265.4356)"><stop offset="0" style="stop-color:#52bd15" id="stop1495"/><stop offset="1" style="stop-color:#a0e35d" id="stop1497"/></linearGradient><path d="M31.5 94.4l-12.8 14.8c8.8 7 20.1 10.6 31.4 10 13-.4 25.7-6.1 33.8-16.4l.3-.4c3-3.8 5.3-8.2 6.6-12.6 2.6-12.6-1.2-25.7-10.3-35.1 4.1 6.5 5.4 14.2 3.4 21.7-3.5 14-16.5 22.9-31.2 23.4-7.5.2-14.8-1.7-21.2-5.4z" id="path1500" style="fill:url(#SVGID_2_);fill-rule:evenodd;clip-rule:evenodd"/><linearGradient id="SVGID_3_" gradientUnits="userSpaceOnUse" x1="195.96111" y1="-326.97241" x2="150.4509" y2="-367.46179" gradientTransform="matrix(.9997 .02738 .02738 -.9997 -104.9038 -258.4152)"><stop offset="0" style="stop-color:#134a00" id="stop1502"/><stop offset="1" style="stop-color:#134a00;stop-opacity:0" id="stop1504"/></linearGradient><path d="M18.6 109.1c8.7 6.9 21.5 11.6 36.1 9.7l.5-19.2c-9.3 1.3-17.6-1.6-23.8-5.1z" id="path1507" style="fill:url(#SVGID_3_);fill-rule:evenodd;clip-rule:evenodd"/><linearGradient id="SVGID_4_" gradientUnits="userSpaceOnUse" x1="155.7155" y1="-324.6402" x2="118.3424" y2="-338.10059" gradientTransform="matrix(.9999 .01075 .01075 -.9999 -88.2166 -261.4149)"><stop offset="0" style="stop-color:#134a00" id="stop1509"/><stop offset="1" style="stop-color:#134a00;stop-opacity:0" id="stop1511"/></linearGradient><path d="M14.7 65.8c4.5 18.8 19.1 25.8 19.1 25.8l9.9-11.7c-8.1-5.7-8.4-15-8.4-15z" id="path1514" style="fill:url(#SVGID_4_);fill-rule:evenodd;clip-rule:evenodd"/><linearGradient id="SVGID_5_" gradientUnits="userSpaceOnUse" x1="115.8475" y1="-336.7644" x2="121.5667" y2="-293.76019" gradientTransform="matrix(1 .0078 .0078 -1 -79.3104 -265.4356)"><stop offset="0" style="stop-color:#134a00" id="stop1516"/><stop offset="1" style="stop-color:#134a00;stop-opacity:0" id="stop1518"/></linearGradient><path d="M39.4 51.1c4-5.4 10.5-8.7 17.1-9.4l-.1-23.3s-21.9-.5-35.8 18.5z" id="path1521" style="fill:url(#SVGID_5_);fill-rule:evenodd;clip-rule:evenodd"/><linearGradient id="SVGID_6_" gradientUnits="userSpaceOnUse" x1="122.9828" y1="-351.23499" x2="103.7013" y2="-312.6749" gradientTransform="matrix(1 .0078 .0078 -1 -79.3104 -265.4356)"><stop offset="0" style="stop-color:#134a00" id="stop1523"/><stop offset="1" style="stop-color:#134a00;stop-opacity:0" id="stop1525"/></linearGradient><path d="M39.4 51.1L20.5 37c-6 8.3-8.2 18.7-5.8 28.8l20.6-1c-.5-4.9 1.3-10.1 4.1-13.7z" id="path1528" style="fill:url(#SVGID_6_);fill-rule:evenodd;clip-rule:evenodd"/><linearGradient id="SVGID_7_" gradientUnits="userSpaceOnUse" x1="121.3309" y1="-307.0329" x2="137.8629" y2="-325.12729" gradientTransform="matrix(1 .0078 .0078 -1 -79.3104 -265.4356)"><stop offset="0" style="stop-color:#fff" id="stop1530"/><stop offset="1" style="stop-color:#fff;stop-opacity:0" id="stop1532"/></linearGradient><path d="M75.8 54.3c-4.7-6.3-12.2-9.4-20-8.4-9.2 1.4-16.9 8.1-17.1 17.4-.1 5.6 2.6 10.8 7 14.1l.7-.8c-5.7-6.5-6-17.4.9-22.4 11.6-8.4 25.5-1.5 29.6 10.9 1.4 4.4 2.2 9 2.5 13.7 3.2-7.9 1.9-16.8-3.2-23.9z" id="path1535" style="fill:url(#SVGID_7_);fill-rule:evenodd;clip-rule:evenodd"/><linearGradient id="SVGID_8_" gradientUnits="userSpaceOnUse" x1="129.09801" y1="-336.8699" x2="130.4679" y2="-380.76099" gradientTransform="matrix(1 -.01038 -.01038 -1 -61.8799 -269.4559)"><stop offset="0" style="stop-color:#134a00" id="stop1537"/><stop offset="1" style="stop-color:#134a00;stop-opacity:0" id="stop1539"/></linearGradient><path d="M54.8 118.7c10.6-1.3 22-7 28.5-15.3l.5-.7c2.5-3.2 4.8-6.9 6.1-10.6l-9.3-8.2c-5 8.5-15.1 14.5-25.3 15.4z" id="path1542" style="fill:url(#SVGID_8_);fill-rule:evenodd;clip-rule:evenodd"/><linearGradient id="SVGID_9_" gradientUnits="userSpaceOnUse" x1="148.7628" y1="-316.05139" x2="176.5201" y2="-350.84909" gradientTransform="matrix(1 .0078 .0078 -1 -79.3104 -265.4356)"><stop offset="0" style="stop-color:#134a00" id="stop1544"/><stop offset="1" style="stop-color:#134a00;stop-opacity:0" id="stop1546"/></linearGradient><path d="M80.6 83.8l9.3 8.2c.2-.5.6-1.7.7-2.3 2.8-12.6-1.1-26-10.3-35.2 4.1 6.5 5.5 14.4 3.5 21.9-.8 2.6-1.9 5.1-3.2 7.4z" id="path1549" style="fill:url(#SVGID_9_);fill-rule:evenodd;clip-rule:evenodd"/><linearGradient id="SVGID_10_" gradientUnits="userSpaceOnUse" x1="187.5318" y1="-418.75171" x2="136.55721" y2="-352.44531" gradientTransform="matrix(1 .0078 .0078 -1 -79.3104 -265.4356)"><stop offset="0" style="stop-color:#fff" id="stop1551"/><stop offset="1" style="stop-color:#fff;stop-opacity:0" id="stop1553"/></linearGradient><path d="M18.6 109.1c8.8 7 20.1 10.6 31.4 10 13-.4 25.9-6.4 33.8-16.4l.3-.4c3-3.8 5.3-8.2 6.6-12.6.5-1.5.6-3.2.7-4.8.1-1.6.2-3.2.1-4.9-.1-3.3-.7-6.5-1.6-9.6-1-3.2-2.4-6.3-4.1-9.1-1.4-2.4-3.2-4.6-5.3-6.6.3.4.7 1 1 1.5 2.1 3.1 3.9 6.3 5.2 9.9 1.3 3.4 2 7 2 10.6v.1c0 .1.1.2.1.3.1 1.5 0 3.1-.2 4.7s-.3 3.2-.8 4.6c-1.3 4.3-3.5 8.4-6.2 11.6l-.3.4c-7.7 9.2-19 14.8-31.2 15.2-9.9.5-19.9-2.6-27.9-8.5z" id="path1556" style="fill:url(#SVGID_10_);fill-rule:evenodd;clip-rule:evenodd"/><linearGradient id="SVGID_11_" gradientUnits="userSpaceOnUse" x1="160.5499" y1="-319.00571" x2="108.1911" y2="-401.01801" gradientTransform="matrix(1 .0078 .0078 -1 -79.3104 -265.4356)"><stop offset="0" style="stop-color:#134a00" id="stop1558"/><stop offset="1" style="stop-color:#134a00;stop-opacity:0" id="stop1560"/></linearGradient><path d="M49.8 104C66 103.4 80.2 93.6 84 78.4c2.1-8.2 1.7-15.3-3.6-23.9 4 6.3 5.4 14.2 3.4 21.7-3.5 14-16.3 22.7-31.2 23.4-7.4.4-15.5-1.9-21.1-5.4l-3.8 4.4c6.8 3.9 14.5 5.8 22.1 5.4z" id="path1563" style="fill:url(#SVGID_11_);fill-rule:evenodd;clip-rule:evenodd"/><linearGradient id="SVGID_12_" gradientUnits="userSpaceOnUse" x1="128.0522" y1="-325.72321" x2="152.506" y2="-288.55209" gradientTransform="matrix(1 .0078 .0078 -1 -79.3104 -265.4356)"><stop offset="0" style="stop-color:#134a00" id="stop1565"/><stop offset="1" style="stop-color:#134a00;stop-opacity:0" id="stop1567"/></linearGradient><path d="M56.4 41.7l-.1-23.3c11.4-.3 22 3.3 30.5 10L71.9 45.5c-4.8-2.9-11.1-4.2-15.5-3.8z" id="path1570" style="fill:url(#SVGID_12_);fill-rule:evenodd;clip-rule:evenodd"/><linearGradient id="SVGID_13_" gradientUnits="userSpaceOnUse" x1="95.428902" y1="-297.53479" x2="134.7489" y2="-319.8338" gradientTransform="matrix(1 .0078 .0078 -1 -79.3104 -265.4356)"><stop offset="0" style="stop-color:#fff;stop-opacity:.5" id="stop1572"/><stop offset="1" style="stop-color:#fff;stop-opacity:0" id="stop1574"/></linearGradient><path d="M86.8 28.4c-8.9-6.9-19.9-10.3-31.2-9.9-23.4 1-43.2 18.8-41.9 41.4 1 12.9 8.2 24.8 19.6 31.3 4.3 2.6 9.3 4.3 14.4 4.9 1.3.1 2.6.1 4 .1-16.4-.6-30.4-15.3-31.4-31.5-1.1-19.9 16.3-35.4 36.5-36.2 8.5-.3 17 2 24.2 6.6z" id="path1577" style="fill:url(#SVGID_13_);fill-rule:evenodd;clip-rule:evenodd"/><linearGradient id="SVGID_14_" gradientUnits="userSpaceOnUse" x1="583.15143" y1="-878.23273" x2="530.61212" y2="-859.1156" gradientTransform="matrix(.9514 .3078 .3078 -.9514 -187.4037 -909.306)"><stop offset="0" style="stop-color:#134a00" id="stop1579"/><stop offset="1" style="stop-color:#134a00;stop-opacity:0" id="stop1581"/></linearGradient><path d="M79.9 77.4c-.7 2.1-2.8 5.8-2.8 5.8C74 87.6 71 90.1 67 92.3c-4 2.2-8.3 3.5-12.8 3.8-4 .3-7.8 0-11.5-1-.8-.3-1.6-.4-2.5-.7-2.4-.8-4.7-2-7-3.2C31 90 29 88.5 27 86.8c-1.8-1.6-3.5-3.4-4.9-5.3-.3-.4-.5-.8-.8-1.1l-.9-1.2c1.6 1.9 3.5 3.5 5.3 5 1.1.8 2.2 1.6 3.4 2.3.5.3 1.1.7 1.6 1 .8.4 1.5.8 2.2 1 .4.1.8.4 1.3.6.7.2 1.4.6 2.2.9.5.2 1.1.4 1.7.6 1.1.4 2.2.6 3.3.8 5 .9 10.2.5 14.9-.8.2-.1.5-.1.6-.1.8-.2 1.6-.5 2.5-.8 5.9-2.3 10.8-7.3 13-14 3.3-10.2-1.1-21.1-10.1-26.3-1.4-.7-2.8-1.5-4.4-2h-.1c-1.2-.4-2.3-.7-3.9-1.1.3 0 .8-.2 1.1-.2.3 0 .7-.1 1.1-.2.7-.1 1.3-.1 2-.1 2.4-.1 5 .3 7.2 1 2.7.9 5.4 2.5 7.6 4.4 1.8 1.5 3.3 3.5 4.5 5.6.6 1.1 1.3 2.2 1.7 3.3 1 2.2 1.3 4.4 1.7 6.8.2 1.3.1 2.7.1 3.8.3 1.8-.4 4.2-1 6.7z" id="path1584" style="fill:url(#SVGID_14_);fill-rule:evenodd;clip-rule:evenodd"/><linearGradient id="SVGID_15_" gradientUnits="userSpaceOnUse" x1="583.15143" y1="-878.23273" x2="530.61212" y2="-859.1156" gradientTransform="matrix(.9514 .3078 .3078 -.9514 -187.4037 -909.306)"><stop offset="0" style="stop-color:#134a00" id="stop1586"/><stop offset="1" style="stop-color:#134a00;stop-opacity:0" id="stop1588"/></linearGradient><path d="M79.9 77.4c-.7 2.1-2.8 5.8-2.8 5.8C74 87.6 71 90.1 67 92.3c-4 2.2-8.3 3.5-12.8 3.8-4 .3-7.8 0-11.5-1-.8-.3-1.6-.4-2.5-.7-2.4-.8-4.7-2-7-3.2C31 90 29 88.5 27 86.8c-1.8-1.6-3.5-3.4-4.9-5.3-.3-.4-.5-.8-.8-1.1l-.9-1.2c1.6 1.9 3.5 3.5 5.3 5 1.1.8 2.2 1.6 3.4 2.3.5.3 1.1.7 1.6 1 .8.4 1.5.8 2.2 1 .4.1.8.4 1.3.6.7.2 1.4.6 2.2.9.5.2 1.1.4 1.7.6 1.1.4 2.2.6 3.3.8 5 .9 10.2.5 14.9-.8.2-.1.5-.1.6-.1.8-.2 1.6-.5 2.5-.8 5.9-2.3 10.8-7.3 13-14 3.3-10.2-1.1-21.1-10.1-26.3-1.4-.7-2.8-1.5-4.4-2h-.1c-1.2-.4-2.3-.7-3.9-1.1.3 0 .8-.2 1.1-.2.3 0 .7-.1 1.1-.2.7-.1 1.3-.1 2-.1 2.4-.1 5 .3 7.2 1 2.7.9 5.4 2.5 7.6 4.4 1.8 1.5 3.3 3.5 4.5 5.6.6 1.1 1.3 2.2 1.7 3.3 1 2.2 1.3 4.4 1.7 6.8.2 1.3.1 2.7.1 3.8.3 1.8-.4 4.2-1 6.7z" id="path1591" style="fill:url(#SVGID_15_);fill-rule:evenodd;clip-rule:evenodd"/><linearGradient id="SVGID_16_" gradientUnits="userSpaceOnUse" x1="95.428902" y1="-297.53479" x2="134.7489" y2="-319.8338" gradientTransform="matrix(1 .0078 .0078 -1 -79.3104 -265.4356)"><stop offset="0" style="stop-color:#fff;stop-opacity:.5" id="stop1593"/><stop offset="1" style="stop-color:#fff;stop-opacity:0" id="stop1595"/></linearGradient><path d="M86.8 28.4c-8.9-6.9-19.9-10.3-31.2-9.9-23.4 1-43.2 18.8-41.9 41.4 1 12.9 8.2 24.8 19.6 31.3 4.3 2.6 9.3 4.3 14.4 4.9 1.3.1 2.6.1 4 .1-16.4-.6-30.4-15.3-31.4-31.5-1.1-19.9 16.3-35.4 36.5-36.2 8.5-.3 17 2 24.2 6.6z" id="path1598" style="fill:url(#SVGID_16_);fill-rule:evenodd;clip-rule:evenodd"/></g></g></g><g transform="translate(6.3605928 1.6173535)" class="st19" id="Layer_2_1_"><path id="rect1671" class="st20" d="M0 0h382.29999v160.10001H0z"/><g class="st21" id="e143ae51-3470-4d3a-97bb-c1e324d13877_1_"><g id="e545882f-945c-4f9f-a4f9-78de2c5c49a7_1_"><path id="path1673" d="M120 90.1l3.5-7.8c4.8 2.5 9.8 3.8 15.1 4 3.5 0 5.3-1.3 5.3-3.3 0-1-.5-2-1.5-2.5-2-1-4.3-2-6.6-2.5-3.8-.8-7.1-2.3-10.3-4.3-3-2-4.8-5.3-4.8-8.8 0-3.3 1.5-6.3 4-8.3 3.3-2.5 7.6-3.8 11.6-3.5 6 .2 12.1 1.5 17.6 4l-3.5 7.8c-4.5-2-9.3-3-14.4-3.5-3.3 0-5 1.3-5 3s1.5 3 7.6 4.8c3.8 1 7.6 2.5 10.8 4.5 3 1.8 5 5.3 4.8 8.8 0 3.3-1.8 6.3-4.3 8.3-3.5 2.5-7.6 3.8-11.8 3.5-6.2.6-12.5-1.1-18.1-4.2z" class="st1"/><path id="path1675" d="M200.1 65.4v29h-10.8V69.2c0-4-1.5-6-6-6-3.8.2-7.3 1.3-10.6 2.8v28.7h-10.8V37.2h10.8v20.4c4.5-2.5 9.6-4 14.9-4.3 8.3.1 12.5 4.1 12.5 12.1z" class="st1"/><path id="path1677" d="M246 78.8h-28.2c1 5 5.5 8.3 10.6 7.8 4.3-.2 8.6-1 12.3-3l3.3 7.6c-5.3 2.5-11.1 3.8-16.9 3.8-5.5.2-10.8-1.8-14.6-5.8-3.8-4-5.8-9.6-5.5-15.1-.2-5.5 1.8-11.1 5.5-15.1 3.8-3.8 9.1-6 14.6-5.8 5.3-.2 10.6 2 14.1 6.3 3.3 4.5 5 10.3 4.8 15.9zm-28.5-7.6h18.6c-.8-6.6-3.5-9.6-8.8-9.6-5.3 0-9 3.8-9.8 9.6z" class="st1"/><path id="path1679" d="M253 83.1V37.2h10.8v44.3c0 2.5 1.3 3.8 3.5 3.8.8 0 1.8 0 2.8-.2l.8 9.1c-2 .2-3.8.5-5.8.5-10 .2-12.1-7.1-12.1-11.6z" class="st1"/><path id="path1681" d="M277 83.1V37.2h10.8v44.3c0 2.5 1.3 3.8 3.5 3.8.8 0 1.8 0 2.8-.2l.8 9.1c-2 .2-3.8.5-5.8.5-10.1.2-12.1-7.1-12.1-11.6z" class="st1"/><path id="path1683" d="M298.6 90.1l3.5-7.8c4.8 2.5 9.8 3.8 15.1 4 3.5 0 5.3-1.3 5.3-3.3 0-1-.5-2-1.5-2.5-2-1-4.3-2-6.6-2.5-3.8-.8-7.1-2.3-10.3-4.3-3-2-4.8-5.3-4.8-8.8 0-3.3 1.5-6.3 4-8.3 3.3-2.5 7.6-3.8 11.6-3.5 6 .2 12.1 1.5 17.6 4l-3.5 7.8c-4.5-2-9.3-3-14.4-3.5-3.3 0-5 1.3-5 3s1.5 3 7.6 4.8c3.8 1 7.6 2.5 10.8 4.5 3 1.8 5 5.3 4.8 8.8 0 3.3-1.8 6.3-4.3 8.3-3.5 2.5-7.6 3.8-11.8 3.5-6.2.6-12.5-1.1-18.1-4.2z" class="st1"/><path id="path1685" d="M350 31.2v2h-5.8v15.4h-2V33.2h-5.8v-2z" class="st1"/><path id="path1687" d="M368.7 48.6h-2l-.5-14.1-4.5 9.8c-.2.5-.5.8-1 .8s-.8-.2-1-.8l-4.5-9.8-.5 13.9h-2l.5-16.1c0-.8.8-1.5 1.5-1.5.5 0 1.3.2 1.5.8l4.8 10.1 4.8-10.1c.2-.5.8-.8 1.5-.8.8 0 1.5.5 1.5 1.5z" class="st1"/><g id="g1801"><linearGradient gradientTransform="matrix(1 .0078 .0078 -1 -79.3104 -265.4356)" y2="-346.737" x2="113.993" y1="-312.59531" x1="139.22839" gradientUnits="userSpaceOnUse" id="SVGID_17_"><stop id="stop1689" style="stop-color:#52bd15" offset="0"/><stop id="stop1691" style="stop-color:#a0e35d" offset="1"/></linearGradient><path style="fill:url(#SVGID_17_);fill-rule:evenodd;clip-rule:evenodd" id="path1694" d="M71.9 45.5l14.9-17.1c-8.9-6.9-19.9-10.3-31.2-9.9-23.4 1-43.2 18.8-41.9 41.4 1 12.9 8.2 24.8 19.6 31.3 5.8 3.5 12.4 5.2 19.1 5 15-.6 27.7-11 28.6-25.5.7-13.4-10.1-27.2-25.2-25-9.2 1.4-16.9 8.3-17.1 17.5-.1 5.6 2.6 10.8 7 14.1l1.2-1.4 2.6-3.1c-2.1-1.9-3.1-4.4-3.1-7.2.2-6 5.2-10.5 10.9-10.4 7.1.4 12.4 6.4 12.1 13.3 0 .6 0 1-.2 1.6-1.2 7.5-7.7 12.6-15.1 12.6-3.7.1-7.5-1-10.5-3.1-5.2-3.9-8.3-10.1-8.2-16.6 0-1.9.3-3.7.9-5.6.6-1.7 1.3-3.4 2.2-5 1-1.6 2.2-3 3.4-4.2 1.3-1.3 2.8-2.3 4.5-3.3 1.6-1 3.4-1.7 5.2-2.3 1.8-.6 3.9-1 5.8-1.1 2.6-.2 5.1.2 7.6.8 2.3.9 4.8 1.9 6.9 3.2z"/><linearGradient gradientTransform="matrix(1 .0078 .0078 -1 -79.3104 -265.4356)" y2="-331.0918" x2="168.5163" y1="-374.7352" x1="129.3277" gradientUnits="userSpaceOnUse" id="SVGID_18_"><stop id="stop1696" style="stop-color:#52bd15" offset="0"/><stop id="stop1698" style="stop-color:#a0e35d" offset="1"/></linearGradient><path style="fill:url(#SVGID_18_);fill-rule:evenodd;clip-rule:evenodd" id="path1701" d="M31.5 94.4l-12.8 14.8c8.8 7 20.1 10.6 31.4 10 13-.4 25.7-6.1 33.8-16.4l.3-.4c3-3.8 5.3-8.2 6.6-12.6 2.6-12.6-1.2-25.7-10.3-35.1 4.1 6.5 5.4 14.2 3.4 21.7-3.5 14-16.5 22.9-31.2 23.4-7.5.2-14.8-1.7-21.2-5.4z"/><linearGradient gradientTransform="matrix(.9997 .02738 .02738 -.9997 -104.9038 -258.4152)" y2="-367.46179" x2="150.4509" y1="-326.97241" x1="195.96111" gradientUnits="userSpaceOnUse" id="SVGID_19_"><stop id="stop1703" style="stop-color:#134a00" offset="0"/><stop id="stop1705" style="stop-color:#134a00;stop-opacity:0" offset="1"/></linearGradient><path style="fill:url(#SVGID_19_);fill-rule:evenodd;clip-rule:evenodd" id="path1708" d="M18.6 109.1c8.7 6.9 21.5 11.6 36.1 9.7l.5-19.2c-9.3 1.3-17.6-1.6-23.8-5.1z"/><linearGradient gradientTransform="matrix(.9999 .01075 .01075 -.9999 -88.2166 -261.4149)" y2="-338.10059" x2="118.3424" y1="-324.6402" x1="155.7155" gradientUnits="userSpaceOnUse" id="SVGID_20_"><stop id="stop1710" style="stop-color:#134a00" offset="0"/><stop id="stop1712" style="stop-color:#134a00;stop-opacity:0" offset="1"/></linearGradient><path style="fill:url(#SVGID_20_);fill-rule:evenodd;clip-rule:evenodd" id="path1715" d="M14.7 65.8c4.5 18.8 19.1 25.8 19.1 25.8l9.9-11.7c-8.1-5.7-8.4-15-8.4-15z"/><linearGradient gradientTransform="matrix(1 .0078 .0078 -1 -79.3104 -265.4356)" y2="-293.76019" x2="121.5667" y1="-336.7644" x1="115.8475" gradientUnits="userSpaceOnUse" id="SVGID_21_"><stop id="stop1717" style="stop-color:#134a00" offset="0"/><stop id="stop1719" style="stop-color:#134a00;stop-opacity:0" offset="1"/></linearGradient><path style="fill:url(#SVGID_21_);fill-rule:evenodd;clip-rule:evenodd" id="path1722" d="M39.4 51.1c4-5.4 10.5-8.7 17.1-9.4l-.1-23.3s-21.9-.5-35.8 18.5z"/><linearGradient gradientTransform="matrix(1 .0078 .0078 -1 -79.3104 -265.4356)" y2="-312.6749" x2="103.7013" y1="-351.23499" x1="122.9828" gradientUnits="userSpaceOnUse" id="SVGID_22_"><stop id="stop1724" style="stop-color:#134a00" offset="0"/><stop id="stop1726" style="stop-color:#134a00;stop-opacity:0" offset="1"/></linearGradient><path style="fill:url(#SVGID_22_);fill-rule:evenodd;clip-rule:evenodd" id="path1729" d="M39.4 51.1L20.5 37c-6 8.3-8.2 18.7-5.8 28.8l20.6-1c-.5-4.9 1.3-10.1 4.1-13.7z"/><linearGradient gradientTransform="matrix(1 .0078 .0078 -1 -79.3104 -265.4356)" y2="-325.12729" x2="137.8629" y1="-307.0329" x1="121.3309" gradientUnits="userSpaceOnUse" id="SVGID_23_"><stop id="stop1731" style="stop-color:#fff" offset="0"/><stop id="stop1733" style="stop-color:#fff;stop-opacity:0" offset="1"/></linearGradient><path style="fill:url(#SVGID_23_);fill-rule:evenodd;clip-rule:evenodd" id="path1736" d="M75.8 54.3c-4.7-6.3-12.2-9.4-20-8.4-9.2 1.4-16.9 8.1-17.1 17.4-.1 5.6 2.6 10.8 7 14.1l.7-.8c-5.7-6.5-6-17.4.9-22.4 11.6-8.4 25.5-1.5 29.6 10.9 1.4 4.4 2.2 9 2.5 13.7 3.2-7.9 1.9-16.8-3.2-23.9z"/><linearGradient gradientTransform="matrix(1 -.01038 -.01038 -1 -61.8799 -269.4559)" y2="-380.76099" x2="130.4679" y1="-336.8699" x1="129.09801" gradientUnits="userSpaceOnUse" id="SVGID_24_"><stop id="stop1738" style="stop-color:#134a00" offset="0"/><stop id="stop1740" style="stop-color:#134a00;stop-opacity:0" offset="1"/></linearGradient><path style="fill:url(#SVGID_24_);fill-rule:evenodd;clip-rule:evenodd" id="path1743" d="M54.8 118.7c10.6-1.3 22-7 28.5-15.3l.5-.7c2.5-3.2 4.8-6.9 6.1-10.6l-9.3-8.2c-5 8.5-15.1 14.5-25.3 15.4z"/><linearGradient gradientTransform="matrix(1 .0078 .0078 -1 -79.3104 -265.4356)" y2="-350.84909" x2="176.5201" y1="-316.05139" x1="148.7628" gradientUnits="userSpaceOnUse" id="SVGID_25_"><stop id="stop1745" style="stop-color:#134a00" offset="0"/><stop id="stop1747" style="stop-color:#134a00;stop-opacity:0" offset="1"/></linearGradient><path style="fill:url(#SVGID_25_);fill-rule:evenodd;clip-rule:evenodd" id="path1750" d="M80.6 83.8l9.3 8.2c.2-.5.6-1.7.7-2.3 2.8-12.6-1.1-26-10.3-35.2 4.1 6.5 5.5 14.4 3.5 21.9-.8 2.6-1.9 5.1-3.2 7.4z"/><linearGradient gradientTransform="matrix(1 .0078 .0078 -1 -79.3104 -265.4356)" y2="-352.44531" x2="136.55721" y1="-418.75171" x1="187.5318" gradientUnits="userSpaceOnUse" id="SVGID_26_"><stop id="stop1752" style="stop-color:#fff" offset="0"/><stop id="stop1754" style="stop-color:#fff;stop-opacity:0" offset="1"/></linearGradient><path style="fill:url(#SVGID_26_);fill-rule:evenodd;clip-rule:evenodd" id="path1757" d="M18.6 109.1c8.8 7 20.1 10.6 31.4 10 13-.4 25.9-6.4 33.8-16.4l.3-.4c3-3.8 5.3-8.2 6.6-12.6.5-1.5.6-3.2.7-4.8.1-1.6.2-3.2.1-4.9-.1-3.3-.7-6.5-1.6-9.6-1-3.2-2.4-6.3-4.1-9.1-1.4-2.4-3.2-4.6-5.3-6.6.3.4.7 1 1 1.5 2.1 3.1 3.9 6.3 5.2 9.9 1.3 3.4 2 7 2 10.6v.1c0 .1.1.2.1.3.1 1.5 0 3.1-.2 4.7s-.3 3.2-.8 4.6c-1.3 4.3-3.5 8.4-6.2 11.6l-.3.4c-7.7 9.2-19 14.8-31.2 15.2-9.9.5-19.9-2.6-27.9-8.5z"/><linearGradient gradientTransform="matrix(1 .0078 .0078 -1 -79.3104 -265.4356)" y2="-401.01801" x2="108.1911" y1="-319.00571" x1="160.5499" gradientUnits="userSpaceOnUse" id="SVGID_27_"><stop id="stop1759" style="stop-color:#134a00" offset="0"/><stop id="stop1761" style="stop-color:#134a00;stop-opacity:0" offset="1"/></linearGradient><path style="fill:url(#SVGID_27_);fill-rule:evenodd;clip-rule:evenodd" id="path1764" d="M49.8 104C66 103.4 80.2 93.6 84 78.4c2.1-8.2 1.7-15.3-3.6-23.9 4 6.3 5.4 14.2 3.4 21.7-3.5 14-16.3 22.7-31.2 23.4-7.4.4-15.5-1.9-21.1-5.4l-3.8 4.4c6.8 3.9 14.5 5.8 22.1 5.4z"/><linearGradient gradientTransform="matrix(1 .0078 .0078 -1 -79.3104 -265.4356)" y2="-288.55209" x2="152.506" y1="-325.72321" x1="128.0522" gradientUnits="userSpaceOnUse" id="SVGID_28_"><stop id="stop1766" style="stop-color:#134a00" offset="0"/><stop id="stop1768" style="stop-color:#134a00;stop-opacity:0" offset="1"/></linearGradient><path style="fill:url(#SVGID_28_);fill-rule:evenodd;clip-rule:evenodd" id="path1771" d="M56.4 41.7l-.1-23.3c11.4-.3 22 3.3 30.5 10L71.9 45.5c-4.8-2.9-11.1-4.2-15.5-3.8z"/><linearGradient gradientTransform="matrix(1 .0078 .0078 -1 -79.3104 -265.4356)" y2="-319.8338" x2="134.7489" y1="-297.53479" x1="95.428902" gradientUnits="userSpaceOnUse" id="SVGID_29_"><stop id="stop1773" style="stop-color:#fff;stop-opacity:.5" offset="0"/><stop id="stop1775" style="stop-color:#fff;stop-opacity:0" offset="1"/></linearGradient><path style="fill:url(#SVGID_29_);fill-rule:evenodd;clip-rule:evenodd" id="path1778" d="M86.8 28.4c-8.9-6.9-19.9-10.3-31.2-9.9-23.4 1-43.2 18.8-41.9 41.4 1 12.9 8.2 24.8 19.6 31.3 4.3 2.6 9.3 4.3 14.4 4.9 1.3.1 2.6.1 4 .1-16.4-.6-30.4-15.3-31.4-31.5-1.1-19.9 16.3-35.4 36.5-36.2 8.5-.3 17 2 24.2 6.6z"/><linearGradient gradientTransform="matrix(.9514 .3078 .3078 -.9514 -187.4037 -909.306)" y2="-859.1156" x2="530.61212" y1="-878.23273" x1="583.15143" gradientUnits="userSpaceOnUse" id="SVGID_30_"><stop id="stop1780" style="stop-color:#134a00" offset="0"/><stop id="stop1782" style="stop-color:#134a00;stop-opacity:0" offset="1"/></linearGradient><path style="fill:url(#SVGID_30_);fill-rule:evenodd;clip-rule:evenodd" id="path1785" d="M79.9 77.4c-.7 2.1-2.8 5.8-2.8 5.8C74 87.6 71 90.1 67 92.3c-4 2.2-8.3 3.5-12.8 3.8-4 .3-7.8 0-11.5-1-.8-.3-1.6-.4-2.5-.7-2.4-.8-4.7-2-7-3.2C31 90 29 88.5 27 86.8c-1.8-1.6-3.5-3.4-4.9-5.3-.3-.4-.5-.8-.8-1.1l-.9-1.2c1.6 1.9 3.5 3.5 5.3 5 1.1.8 2.2 1.6 3.4 2.3.5.3 1.1.7 1.6 1 .8.4 1.5.8 2.2 1 .4.1.8.4 1.3.6.7.2 1.4.6 2.2.9.5.2 1.1.4 1.7.6 1.1.4 2.2.6 3.3.8 5 .9 10.2.5 14.9-.8.2-.1.5-.1.6-.1.8-.2 1.6-.5 2.5-.8 5.9-2.3 10.8-7.3 13-14 3.3-10.2-1.1-21.1-10.1-26.3-1.4-.7-2.8-1.5-4.4-2h-.1c-1.2-.4-2.3-.7-3.9-1.1.3 0 .8-.2 1.1-.2.3 0 .7-.1 1.1-.2.7-.1 1.3-.1 2-.1 2.4-.1 5 .3 7.2 1 2.7.9 5.4 2.5 7.6 4.4 1.8 1.5 3.3 3.5 4.5 5.6.6 1.1 1.3 2.2 1.7 3.3 1 2.2 1.3 4.4 1.7 6.8.2 1.3.1 2.7.1 3.8.3 1.8-.4 4.2-1 6.7z"/><linearGradient gradientTransform="matrix(.9514 .3078 .3078 -.9514 -187.4037 -909.306)" y2="-859.1156" x2="530.61212" y1="-878.23273" x1="583.15143" gradientUnits="userSpaceOnUse" id="SVGID_31_"><stop id="stop1787" style="stop-color:#134a00" offset="0"/><stop id="stop1789" style="stop-color:#134a00;stop-opacity:0" offset="1"/></linearGradient><path style="fill:url(#SVGID_31_);fill-rule:evenodd;clip-rule:evenodd" id="path1792" d="M79.9 77.4c-.7 2.1-2.8 5.8-2.8 5.8C74 87.6 71 90.1 67 92.3c-4 2.2-8.3 3.5-12.8 3.8-4 .3-7.8 0-11.5-1-.8-.3-1.6-.4-2.5-.7-2.4-.8-4.7-2-7-3.2C31 90 29 88.5 27 86.8c-1.8-1.6-3.5-3.4-4.9-5.3-.3-.4-.5-.8-.8-1.1l-.9-1.2c1.6 1.9 3.5 3.5 5.3 5 1.1.8 2.2 1.6 3.4 2.3.5.3 1.1.7 1.6 1 .8.4 1.5.8 2.2 1 .4.1.8.4 1.3.6.7.2 1.4.6 2.2.9.5.2 1.1.4 1.7.6 1.1.4 2.2.6 3.3.8 5 .9 10.2.5 14.9-.8.2-.1.5-.1.6-.1.8-.2 1.6-.5 2.5-.8 5.9-2.3 10.8-7.3 13-14 3.3-10.2-1.1-21.1-10.1-26.3-1.4-.7-2.8-1.5-4.4-2h-.1c-1.2-.4-2.3-.7-3.9-1.1.3 0 .8-.2 1.1-.2.3 0 .7-.1 1.1-.2.7-.1 1.3-.1 2-.1 2.4-.1 5 .3 7.2 1 2.7.9 5.4 2.5 7.6 4.4 1.8 1.5 3.3 3.5 4.5 5.6.6 1.1 1.3 2.2 1.7 3.3 1 2.2 1.3 4.4 1.7 6.8.2 1.3.1 2.7.1 3.8.3 1.8-.4 4.2-1 6.7z"/><linearGradient gradientTransform="matrix(1 .0078 .0078 -1 -79.3104 -265.4356)" y2="-319.8338" x2="134.7489" y1="-297.53479" x1="95.428902" gradientUnits="userSpaceOnUse" id="SVGID_32_"><stop id="stop1794" style="stop-color:#fff;stop-opacity:.5" offset="0"/><stop id="stop1796" style="stop-color:#fff;stop-opacity:0" offset="1"/></linearGradient><path style="fill:url(#SVGID_32_);fill-rule:evenodd;clip-rule:evenodd" id="path1799" d="M86.8 28.4c-8.9-6.9-19.9-10.3-31.2-9.9-23.4 1-43.2 18.8-41.9 41.4 1 12.9 8.2 24.8 19.6 31.3 4.3 2.6 9.3 4.3 14.4 4.9 1.3.1 2.6.1 4 .1-16.4-.6-30.4-15.3-31.4-31.5-1.1-19.9 16.3-35.4 36.5-36.2 8.5-.3 17 2 24.2 6.6z"/></g></g></g><g id="g1807" class="st21"><text id="text1805" class="st1 st38 st39" transform="translate(92.7933 143.4622)">Your Own Cloud Computer</text></g></g><g transform="translate(6.3605928 1.6173535)" class="st19" id="Layer_3"><path id="rect1810" class="st20" d="M0 0h382.29999v160.10001H0z"/><g class="st21" id="e143ae51-3470-4d3a-97bb-c1e324d13877_3_"><g id="e545882f-945c-4f9f-a4f9-78de2c5c49a7_3_"><path id="path1812" d="M120 90.1l3.5-7.8c4.8 2.5 9.8 3.8 15.1 4 3.5 0 5.3-1.3 5.3-3.3 0-1-.5-2-1.5-2.5-2-1-4.3-2-6.6-2.5-3.8-.8-7.1-2.3-10.3-4.3-3-2-4.8-5.3-4.8-8.8 0-3.3 1.5-6.3 4-8.3 3.3-2.5 7.6-3.8 11.6-3.5 6 .2 12.1 1.5 17.6 4l-3.5 7.8c-4.5-2-9.3-3-14.4-3.5-3.3 0-5 1.3-5 3s1.5 3 7.6 4.8c3.8 1 7.6 2.5 10.8 4.5 3 1.8 5 5.3 4.8 8.8 0 3.3-1.8 6.3-4.3 8.3-3.5 2.5-7.6 3.8-11.8 3.5-6.2.6-12.5-1.1-18.1-4.2z" class="st1"/><path id="path1814" d="M200.1 65.4v29h-10.8V69.2c0-4-1.5-6-6-6-3.8.2-7.3 1.3-10.6 2.8v28.7h-10.8V37.2h10.8v20.4c4.5-2.5 9.6-4 14.9-4.3 8.3.1 12.5 4.1 12.5 12.1z" class="st1"/><path id="path1816" d="M246 78.8h-28.2c1 5 5.5 8.3 10.6 7.8 4.3-.2 8.6-1 12.3-3l3.3 7.6c-5.3 2.5-11.1 3.8-16.9 3.8-5.5.2-10.8-1.8-14.6-5.8-3.8-4-5.8-9.6-5.5-15.1-.2-5.5 1.8-11.1 5.5-15.1 3.8-3.8 9.1-6 14.6-5.8 5.3-.2 10.6 2 14.1 6.3 3.3 4.5 5 10.3 4.8 15.9zm-28.5-7.6h18.6c-.8-6.6-3.5-9.6-8.8-9.6-5.3 0-9 3.8-9.8 9.6z" class="st1"/><path id="path1818" d="M253 83.1V37.2h10.8v44.3c0 2.5 1.3 3.8 3.5 3.8.8 0 1.8 0 2.8-.2l.8 9.1c-2 .2-3.8.5-5.8.5-10 .2-12.1-7.1-12.1-11.6z" class="st1"/><path id="path1820" d="M277 83.1V37.2h10.8v44.3c0 2.5 1.3 3.8 3.5 3.8.8 0 1.8 0 2.8-.2l.8 9.1c-2 .2-3.8.5-5.8.5-10.1.2-12.1-7.1-12.1-11.6z" class="st1"/><path id="path1822" d="M298.6 90.1l3.5-7.8c4.8 2.5 9.8 3.8 15.1 4 3.5 0 5.3-1.3 5.3-3.3 0-1-.5-2-1.5-2.5-2-1-4.3-2-6.6-2.5-3.8-.8-7.1-2.3-10.3-4.3-3-2-4.8-5.3-4.8-8.8 0-3.3 1.5-6.3 4-8.3 3.3-2.5 7.6-3.8 11.6-3.5 6 .2 12.1 1.5 17.6 4l-3.5 7.8c-4.5-2-9.3-3-14.4-3.5-3.3 0-5 1.3-5 3s1.5 3 7.6 4.8c3.8 1 7.6 2.5 10.8 4.5 3 1.8 5 5.3 4.8 8.8 0 3.3-1.8 6.3-4.3 8.3-3.5 2.5-7.6 3.8-11.8 3.5-6.2.6-12.5-1.1-18.1-4.2z" class="st1"/><path id="path1824" d="M350 31.2v2h-5.8v15.4h-2V33.2h-5.8v-2z" class="st1"/><path id="path1826" d="M368.7 48.6h-2l-.5-14.1-4.5 9.8c-.2.5-.5.8-1 .8s-.8-.2-1-.8l-4.5-9.8-.5 13.9h-2l.5-16.1c0-.8.8-1.5 1.5-1.5.5 0 1.3.2 1.5.8l4.8 10.1 4.8-10.1c.2-.5.8-.8 1.5-.8.8 0 1.5.5 1.5 1.5z" class="st1"/><g id="g1940"><linearGradient gradientTransform="matrix(1 .0078 .0078 -1 -79.3104 -265.4356)" y2="-346.737" x2="113.993" y1="-312.59531" x1="139.22839" gradientUnits="userSpaceOnUse" id="SVGID_33_"><stop id="stop1828" style="stop-color:#52bd15" offset="0"/><stop id="stop1830" style="stop-color:#a0e35d" offset="1"/></linearGradient><path style="fill:url(#SVGID_33_);fill-rule:evenodd;clip-rule:evenodd" id="path1833" d="M71.9 45.5l14.9-17.1c-8.9-6.9-19.9-10.3-31.2-9.9-23.4 1-43.2 18.8-41.9 41.4 1 12.9 8.2 24.8 19.6 31.3 5.8 3.5 12.4 5.2 19.1 5 15-.6 27.7-11 28.6-25.5.7-13.4-10.1-27.2-25.2-25-9.2 1.4-16.9 8.3-17.1 17.5-.1 5.6 2.6 10.8 7 14.1l1.2-1.4 2.6-3.1c-2.1-1.9-3.1-4.4-3.1-7.2.2-6 5.2-10.5 10.9-10.4 7.1.4 12.4 6.4 12.1 13.3 0 .6 0 1-.2 1.6-1.2 7.5-7.7 12.6-15.1 12.6-3.7.1-7.5-1-10.5-3.1-5.2-3.9-8.3-10.1-8.2-16.6 0-1.9.3-3.7.9-5.6.6-1.7 1.3-3.4 2.2-5 1-1.6 2.2-3 3.4-4.2 1.3-1.3 2.8-2.3 4.5-3.3 1.6-1 3.4-1.7 5.2-2.3 1.8-.6 3.9-1 5.8-1.1 2.6-.2 5.1.2 7.6.8 2.3.9 4.8 1.9 6.9 3.2z"/><linearGradient gradientTransform="matrix(1 .0078 .0078 -1 -79.3104 -265.4356)" y2="-331.0918" x2="168.5163" y1="-374.7352" x1="129.3277" gradientUnits="userSpaceOnUse" id="SVGID_34_"><stop id="stop1835" style="stop-color:#52bd15" offset="0"/><stop id="stop1837" style="stop-color:#a0e35d" offset="1"/></linearGradient><path style="fill:url(#SVGID_34_);fill-rule:evenodd;clip-rule:evenodd" id="path1840" d="M31.5 94.4l-12.8 14.8c8.8 7 20.1 10.6 31.4 10 13-.4 25.7-6.1 33.8-16.4l.3-.4c3-3.8 5.3-8.2 6.6-12.6 2.6-12.6-1.2-25.7-10.3-35.1 4.1 6.5 5.4 14.2 3.4 21.7-3.5 14-16.5 22.9-31.2 23.4-7.5.2-14.8-1.7-21.2-5.4z"/><linearGradient gradientTransform="matrix(.9997 .02738 .02738 -.9997 -104.9038 -258.4152)" y2="-367.46179" x2="150.4509" y1="-326.97241" x1="195.96111" gradientUnits="userSpaceOnUse" id="SVGID_35_"><stop id="stop1842" style="stop-color:#134a00" offset="0"/><stop id="stop1844" style="stop-color:#134a00;stop-opacity:0" offset="1"/></linearGradient><path style="fill:url(#SVGID_35_);fill-rule:evenodd;clip-rule:evenodd" id="path1847" d="M18.6 109.1c8.7 6.9 21.5 11.6 36.1 9.7l.5-19.2c-9.3 1.3-17.6-1.6-23.8-5.1z"/><linearGradient gradientTransform="matrix(.9999 .01075 .01075 -.9999 -88.2166 -261.4149)" y2="-338.10059" x2="118.3424" y1="-324.6402" x1="155.7155" gradientUnits="userSpaceOnUse" id="SVGID_36_"><stop id="stop1849" style="stop-color:#134a00" offset="0"/><stop id="stop1851" style="stop-color:#134a00;stop-opacity:0" offset="1"/></linearGradient><path style="fill:url(#SVGID_36_);fill-rule:evenodd;clip-rule:evenodd" id="path1854" d="M14.7 65.8c4.5 18.8 19.1 25.8 19.1 25.8l9.9-11.7c-8.1-5.7-8.4-15-8.4-15z"/><linearGradient gradientTransform="matrix(1 .0078 .0078 -1 -79.3104 -265.4356)" y2="-293.76019" x2="121.5667" y1="-336.7644" x1="115.8475" gradientUnits="userSpaceOnUse" id="SVGID_37_"><stop id="stop1856" style="stop-color:#134a00" offset="0"/><stop id="stop1858" style="stop-color:#134a00;stop-opacity:0" offset="1"/></linearGradient><path style="fill:url(#SVGID_37_);fill-rule:evenodd;clip-rule:evenodd" id="path1861" d="M39.4 51.1c4-5.4 10.5-8.7 17.1-9.4l-.1-23.3s-21.9-.5-35.8 18.5z"/><linearGradient gradientTransform="matrix(1 .0078 .0078 -1 -79.3104 -265.4356)" y2="-312.6749" x2="103.7013" y1="-351.23499" x1="122.9828" gradientUnits="userSpaceOnUse" id="SVGID_38_"><stop id="stop1863" style="stop-color:#134a00" offset="0"/><stop id="stop1865" style="stop-color:#134a00;stop-opacity:0" offset="1"/></linearGradient><path style="fill:url(#SVGID_38_);fill-rule:evenodd;clip-rule:evenodd" id="path1868" d="M39.4 51.1L20.5 37c-6 8.3-8.2 18.7-5.8 28.8l20.6-1c-.5-4.9 1.3-10.1 4.1-13.7z"/><linearGradient gradientTransform="matrix(1 .0078 .0078 -1 -79.3104 -265.4356)" y2="-325.12729" x2="137.8629" y1="-307.0329" x1="121.3309" gradientUnits="userSpaceOnUse" id="SVGID_39_"><stop id="stop1870" style="stop-color:#fff" offset="0"/><stop id="stop1872" style="stop-color:#fff;stop-opacity:0" offset="1"/></linearGradient><path style="fill:url(#SVGID_39_);fill-rule:evenodd;clip-rule:evenodd" id="path1875" d="M75.8 54.3c-4.7-6.3-12.2-9.4-20-8.4-9.2 1.4-16.9 8.1-17.1 17.4-.1 5.6 2.6 10.8 7 14.1l.7-.8c-5.7-6.5-6-17.4.9-22.4 11.6-8.4 25.5-1.5 29.6 10.9 1.4 4.4 2.2 9 2.5 13.7 3.2-7.9 1.9-16.8-3.2-23.9z"/><linearGradient gradientTransform="matrix(1 -.01038 -.01038 -1 -61.8799 -269.4559)" y2="-380.76099" x2="130.4679" y1="-336.8699" x1="129.09801" gradientUnits="userSpaceOnUse" id="SVGID_40_"><stop id="stop1877" style="stop-color:#134a00" offset="0"/><stop id="stop1879" style="stop-color:#134a00;stop-opacity:0" offset="1"/></linearGradient><path style="fill:url(#SVGID_40_);fill-rule:evenodd;clip-rule:evenodd" id="path1882" d="M54.8 118.7c10.6-1.3 22-7 28.5-15.3l.5-.7c2.5-3.2 4.8-6.9 6.1-10.6l-9.3-8.2c-5 8.5-15.1 14.5-25.3 15.4z"/><linearGradient gradientTransform="matrix(1 .0078 .0078 -1 -79.3104 -265.4356)" y2="-350.84909" x2="176.5201" y1="-316.05139" x1="148.7628" gradientUnits="userSpaceOnUse" id="SVGID_41_"><stop id="stop1884" style="stop-color:#134a00" offset="0"/><stop id="stop1886" style="stop-color:#134a00;stop-opacity:0" offset="1"/></linearGradient><path style="fill:url(#SVGID_41_);fill-rule:evenodd;clip-rule:evenodd" id="path1889" d="M80.6 83.8l9.3 8.2c.2-.5.6-1.7.7-2.3 2.8-12.6-1.1-26-10.3-35.2 4.1 6.5 5.5 14.4 3.5 21.9-.8 2.6-1.9 5.1-3.2 7.4z"/><linearGradient gradientTransform="matrix(1 .0078 .0078 -1 -79.3104 -265.4356)" y2="-352.44531" x2="136.55721" y1="-418.75171" x1="187.5318" gradientUnits="userSpaceOnUse" id="SVGID_42_"><stop id="stop1891" style="stop-color:#fff" offset="0"/><stop id="stop1893" style="stop-color:#fff;stop-opacity:0" offset="1"/></linearGradient><path style="fill:url(#SVGID_42_);fill-rule:evenodd;clip-rule:evenodd" id="path1896" d="M18.6 109.1c8.8 7 20.1 10.6 31.4 10 13-.4 25.9-6.4 33.8-16.4l.3-.4c3-3.8 5.3-8.2 6.6-12.6.5-1.5.6-3.2.7-4.8.1-1.6.2-3.2.1-4.9-.1-3.3-.7-6.5-1.6-9.6-1-3.2-2.4-6.3-4.1-9.1-1.4-2.4-3.2-4.6-5.3-6.6.3.4.7 1 1 1.5 2.1 3.1 3.9 6.3 5.2 9.9 1.3 3.4 2 7 2 10.6v.1c0 .1.1.2.1.3.1 1.5 0 3.1-.2 4.7s-.3 3.2-.8 4.6c-1.3 4.3-3.5 8.4-6.2 11.6l-.3.4c-7.7 9.2-19 14.8-31.2 15.2-9.9.5-19.9-2.6-27.9-8.5z"/><linearGradient gradientTransform="matrix(1 .0078 .0078 -1 -79.3104 -265.4356)" y2="-401.01801" x2="108.1911" y1="-319.00571" x1="160.5499" gradientUnits="userSpaceOnUse" id="SVGID_43_"><stop id="stop1898" style="stop-color:#134a00" offset="0"/><stop id="stop1900" style="stop-color:#134a00;stop-opacity:0" offset="1"/></linearGradient><path style="fill:url(#SVGID_43_);fill-rule:evenodd;clip-rule:evenodd" id="path1903" d="M49.8 104C66 103.4 80.2 93.6 84 78.4c2.1-8.2 1.7-15.3-3.6-23.9 4 6.3 5.4 14.2 3.4 21.7-3.5 14-16.3 22.7-31.2 23.4-7.4.4-15.5-1.9-21.1-5.4l-3.8 4.4c6.8 3.9 14.5 5.8 22.1 5.4z"/><linearGradient gradientTransform="matrix(1 .0078 .0078 -1 -79.3104 -265.4356)" y2="-288.55209" x2="152.506" y1="-325.72321" x1="128.0522" gradientUnits="userSpaceOnUse" id="SVGID_44_"><stop id="stop1905" style="stop-color:#134a00" offset="0"/><stop id="stop1907" style="stop-color:#134a00;stop-opacity:0" offset="1"/></linearGradient><path style="fill:url(#SVGID_44_);fill-rule:evenodd;clip-rule:evenodd" id="path1910" d="M56.4 41.7l-.1-23.3c11.4-.3 22 3.3 30.5 10L71.9 45.5c-4.8-2.9-11.1-4.2-15.5-3.8z"/><linearGradient gradientTransform="matrix(1 .0078 .0078 -1 -79.3104 -265.4356)" y2="-319.8338" x2="134.7489" y1="-297.53479" x1="95.428902" gradientUnits="userSpaceOnUse" id="SVGID_45_"><stop id="stop1912" style="stop-color:#fff;stop-opacity:.5" offset="0"/><stop id="stop1914" style="stop-color:#fff;stop-opacity:0" offset="1"/></linearGradient><path style="fill:url(#SVGID_45_);fill-rule:evenodd;clip-rule:evenodd" id="path1917" d="M86.8 28.4c-8.9-6.9-19.9-10.3-31.2-9.9-23.4 1-43.2 18.8-41.9 41.4 1 12.9 8.2 24.8 19.6 31.3 4.3 2.6 9.3 4.3 14.4 4.9 1.3.1 2.6.1 4 .1-16.4-.6-30.4-15.3-31.4-31.5-1.1-19.9 16.3-35.4 36.5-36.2 8.5-.3 17 2 24.2 6.6z"/><linearGradient gradientTransform="matrix(.9514 .3078 .3078 -.9514 -187.4037 -909.306)" y2="-859.1156" x2="530.61212" y1="-878.23273" x1="583.15143" gradientUnits="userSpaceOnUse" id="SVGID_46_"><stop id="stop1919" style="stop-color:#134a00" offset="0"/><stop id="stop1921" style="stop-color:#134a00;stop-opacity:0" offset="1"/></linearGradient><path style="fill:url(#SVGID_46_);fill-rule:evenodd;clip-rule:evenodd" id="path1924" d="M79.9 77.4c-.7 2.1-2.8 5.8-2.8 5.8C74 87.6 71 90.1 67 92.3c-4 2.2-8.3 3.5-12.8 3.8-4 .3-7.8 0-11.5-1-.8-.3-1.6-.4-2.5-.7-2.4-.8-4.7-2-7-3.2C31 90 29 88.5 27 86.8c-1.8-1.6-3.5-3.4-4.9-5.3-.3-.4-.5-.8-.8-1.1l-.9-1.2c1.6 1.9 3.5 3.5 5.3 5 1.1.8 2.2 1.6 3.4 2.3.5.3 1.1.7 1.6 1 .8.4 1.5.8 2.2 1 .4.1.8.4 1.3.6.7.2 1.4.6 2.2.9.5.2 1.1.4 1.7.6 1.1.4 2.2.6 3.3.8 5 .9 10.2.5 14.9-.8.2-.1.5-.1.6-.1.8-.2 1.6-.5 2.5-.8 5.9-2.3 10.8-7.3 13-14 3.3-10.2-1.1-21.1-10.1-26.3-1.4-.7-2.8-1.5-4.4-2h-.1c-1.2-.4-2.3-.7-3.9-1.1.3 0 .8-.2 1.1-.2.3 0 .7-.1 1.1-.2.7-.1 1.3-.1 2-.1 2.4-.1 5 .3 7.2 1 2.7.9 5.4 2.5 7.6 4.4 1.8 1.5 3.3 3.5 4.5 5.6.6 1.1 1.3 2.2 1.7 3.3 1 2.2 1.3 4.4 1.7 6.8.2 1.3.1 2.7.1 3.8.3 1.8-.4 4.2-1 6.7z"/><linearGradient gradientTransform="matrix(.9514 .3078 .3078 -.9514 -187.4037 -909.306)" y2="-859.1156" x2="530.61212" y1="-878.23273" x1="583.15143" gradientUnits="userSpaceOnUse" id="SVGID_47_"><stop id="stop1926" style="stop-color:#134a00" offset="0"/><stop id="stop1928" style="stop-color:#134a00;stop-opacity:0" offset="1"/></linearGradient><path style="fill:url(#SVGID_47_);fill-rule:evenodd;clip-rule:evenodd" id="path1931" d="M79.9 77.4c-.7 2.1-2.8 5.8-2.8 5.8C74 87.6 71 90.1 67 92.3c-4 2.2-8.3 3.5-12.8 3.8-4 .3-7.8 0-11.5-1-.8-.3-1.6-.4-2.5-.7-2.4-.8-4.7-2-7-3.2C31 90 29 88.5 27 86.8c-1.8-1.6-3.5-3.4-4.9-5.3-.3-.4-.5-.8-.8-1.1l-.9-1.2c1.6 1.9 3.5 3.5 5.3 5 1.1.8 2.2 1.6 3.4 2.3.5.3 1.1.7 1.6 1 .8.4 1.5.8 2.2 1 .4.1.8.4 1.3.6.7.2 1.4.6 2.2.9.5.2 1.1.4 1.7.6 1.1.4 2.2.6 3.3.8 5 .9 10.2.5 14.9-.8.2-.1.5-.1.6-.1.8-.2 1.6-.5 2.5-.8 5.9-2.3 10.8-7.3 13-14 3.3-10.2-1.1-21.1-10.1-26.3-1.4-.7-2.8-1.5-4.4-2h-.1c-1.2-.4-2.3-.7-3.9-1.1.3 0 .8-.2 1.1-.2.3 0 .7-.1 1.1-.2.7-.1 1.3-.1 2-.1 2.4-.1 5 .3 7.2 1 2.7.9 5.4 2.5 7.6 4.4 1.8 1.5 3.3 3.5 4.5 5.6.6 1.1 1.3 2.2 1.7 3.3 1 2.2 1.3 4.4 1.7 6.8.2 1.3.1 2.7.1 3.8.3 1.8-.4 4.2-1 6.7z"/><linearGradient gradientTransform="matrix(1 .0078 .0078 -1 -79.3104 -265.4356)" y2="-319.8338" x2="134.7489" y1="-297.53479" x1="95.428902" gradientUnits="userSpaceOnUse" id="SVGID_48_"><stop id="stop1933" style="stop-color:#fff;stop-opacity:.5" offset="0"/><stop id="stop1935" style="stop-color:#fff;stop-opacity:0" offset="1"/></linearGradient><path style="fill:url(#SVGID_48_);fill-rule:evenodd;clip-rule:evenodd" id="path1938" d="M86.8 28.4c-8.9-6.9-19.9-10.3-31.2-9.9-23.4 1-43.2 18.8-41.9 41.4 1 12.9 8.2 24.8 19.6 31.3 4.3 2.6 9.3 4.3 14.4 4.9 1.3.1 2.6.1 4 .1-16.4-.6-30.4-15.3-31.4-31.5-1.1-19.9 16.3-35.4 36.5-36.2 8.5-.3 17 2 24.2 6.6z"/></g></g></g><g id="g1946" class="st21"><text id="text1944" class="st1 st38 st39" transform="translate(55.7536 143.4622)">Your Personal Workspace in the Cloud</text></g><path id="rect1948" class="st20" d="M0 0h382.29999v160.10001H0z"/><g class="st21" id="e143ae51-3470-4d3a-97bb-c1e324d13877_2_"><g id="e545882f-945c-4f9f-a4f9-78de2c5c49a7_2_"><path id="path1950" d="M120 90.1l3.5-7.8c4.8 2.5 9.8 3.8 15.1 4 3.5 0 5.3-1.3 5.3-3.3 0-1-.5-2-1.5-2.5-2-1-4.3-2-6.6-2.5-3.8-.8-7.1-2.3-10.3-4.3-3-2-4.8-5.3-4.8-8.8 0-3.3 1.5-6.3 4-8.3 3.3-2.5 7.6-3.8 11.6-3.5 6 .2 12.1 1.5 17.6 4l-3.5 7.8c-4.5-2-9.3-3-14.4-3.5-3.3 0-5 1.3-5 3s1.5 3 7.6 4.8c3.8 1 7.6 2.5 10.8 4.5 3 1.8 5 5.3 4.8 8.8 0 3.3-1.8 6.3-4.3 8.3-3.5 2.5-7.6 3.8-11.8 3.5-6.2.6-12.5-1.1-18.1-4.2z" class="st1"/><path id="path1952" d="M200.1 65.4v29h-10.8V69.2c0-4-1.5-6-6-6-3.8.2-7.3 1.3-10.6 2.8v28.7h-10.8V37.2h10.8v20.4c4.5-2.5 9.6-4 14.9-4.3 8.3.1 12.5 4.1 12.5 12.1z" class="st1"/><path id="path1954" d="M246 78.8h-28.2c1 5 5.5 8.3 10.6 7.8 4.3-.2 8.6-1 12.3-3l3.3 7.6c-5.3 2.5-11.1 3.8-16.9 3.8-5.5.2-10.8-1.8-14.6-5.8-3.8-4-5.8-9.6-5.5-15.1-.2-5.5 1.8-11.1 5.5-15.1 3.8-3.8 9.1-6 14.6-5.8 5.3-.2 10.6 2 14.1 6.3 3.3 4.5 5 10.3 4.8 15.9zm-28.5-7.6h18.6c-.8-6.6-3.5-9.6-8.8-9.6-5.3 0-9 3.8-9.8 9.6z" class="st1"/><path id="path1956" d="M253 83.1V37.2h10.8v44.3c0 2.5 1.3 3.8 3.5 3.8.8 0 1.8 0 2.8-.2l.8 9.1c-2 .2-3.8.5-5.8.5-10 .2-12.1-7.1-12.1-11.6z" class="st1"/><path id="path1958" d="M277 83.1V37.2h10.8v44.3c0 2.5 1.3 3.8 3.5 3.8.8 0 1.8 0 2.8-.2l.8 9.1c-2 .2-3.8.5-5.8.5-10.1.2-12.1-7.1-12.1-11.6z" class="st1"/><path id="path1960" d="M298.6 90.1l3.5-7.8c4.8 2.5 9.8 3.8 15.1 4 3.5 0 5.3-1.3 5.3-3.3 0-1-.5-2-1.5-2.5-2-1-4.3-2-6.6-2.5-3.8-.8-7.1-2.3-10.3-4.3-3-2-4.8-5.3-4.8-8.8 0-3.3 1.5-6.3 4-8.3 3.3-2.5 7.6-3.8 11.6-3.5 6 .2 12.1 1.5 17.6 4l-3.5 7.8c-4.5-2-9.3-3-14.4-3.5-3.3 0-5 1.3-5 3s1.5 3 7.6 4.8c3.8 1 7.6 2.5 10.8 4.5 3 1.8 5 5.3 4.8 8.8 0 3.3-1.8 6.3-4.3 8.3-3.5 2.5-7.6 3.8-11.8 3.5-6.2.6-12.5-1.1-18.1-4.2z" class="st1"/><path id="path1962" d="M350 31.2v2h-5.8v15.4h-2V33.2h-5.8v-2z" class="st1"/><path id="path1964" d="M368.7 48.6h-2l-.5-14.1-4.5 9.8c-.2.5-.5.8-1 .8s-.8-.2-1-.8l-4.5-9.8-.5 13.9h-2l.5-16.1c0-.8.8-1.5 1.5-1.5.5 0 1.3.2 1.5.8l4.8 10.1 4.8-10.1c.2-.5.8-.8 1.5-.8.8 0 1.5.5 1.5 1.5z" class="st1"/><g id="g2078"><linearGradient gradientTransform="matrix(1 .0078 .0078 -1 -79.3104 -265.4356)" y2="-346.737" x2="113.993" y1="-312.59531" x1="139.22839" gradientUnits="userSpaceOnUse" id="SVGID_49_"><stop id="stop1966" style="stop-color:#52bd15" offset="0"/><stop id="stop1968" style="stop-color:#a0e35d" offset="1"/></linearGradient><path style="fill:url(#SVGID_49_);fill-rule:evenodd;clip-rule:evenodd" id="path1971" d="M71.9 45.5l14.9-17.1c-8.9-6.9-19.9-10.3-31.2-9.9-23.4 1-43.2 18.8-41.9 41.4 1 12.9 8.2 24.8 19.6 31.3 5.8 3.5 12.4 5.2 19.1 5 15-.6 27.7-11 28.6-25.5.7-13.4-10.1-27.2-25.2-25-9.2 1.4-16.9 8.3-17.1 17.5-.1 5.6 2.6 10.8 7 14.1l1.2-1.4 2.6-3.1c-2.1-1.9-3.1-4.4-3.1-7.2.2-6 5.2-10.5 10.9-10.4 7.1.4 12.4 6.4 12.1 13.3 0 .6 0 1-.2 1.6-1.2 7.5-7.7 12.6-15.1 12.6-3.7.1-7.5-1-10.5-3.1-5.2-3.9-8.3-10.1-8.2-16.6 0-1.9.3-3.7.9-5.6.6-1.7 1.3-3.4 2.2-5 1-1.6 2.2-3 3.4-4.2 1.3-1.3 2.8-2.3 4.5-3.3 1.6-1 3.4-1.7 5.2-2.3 1.8-.6 3.9-1 5.8-1.1 2.6-.2 5.1.2 7.6.8 2.3.9 4.8 1.9 6.9 3.2z"/><linearGradient gradientTransform="matrix(1 .0078 .0078 -1 -79.3104 -265.4356)" y2="-331.0918" x2="168.5163" y1="-374.7352" x1="129.3277" gradientUnits="userSpaceOnUse" id="SVGID_50_"><stop id="stop1973" style="stop-color:#52bd15" offset="0"/><stop id="stop1975" style="stop-color:#a0e35d" offset="1"/></linearGradient><path style="fill:url(#SVGID_50_);fill-rule:evenodd;clip-rule:evenodd" id="path1978" d="M31.5 94.4l-12.8 14.8c8.8 7 20.1 10.6 31.4 10 13-.4 25.7-6.1 33.8-16.4l.3-.4c3-3.8 5.3-8.2 6.6-12.6 2.6-12.6-1.2-25.7-10.3-35.1 4.1 6.5 5.4 14.2 3.4 21.7-3.5 14-16.5 22.9-31.2 23.4-7.5.2-14.8-1.7-21.2-5.4z"/><linearGradient gradientTransform="matrix(.9997 .02738 .02738 -.9997 -104.9038 -258.4152)" y2="-367.46179" x2="150.4509" y1="-326.97241" x1="195.96111" gradientUnits="userSpaceOnUse" id="SVGID_51_"><stop id="stop1980" style="stop-color:#134a00" offset="0"/><stop id="stop1982" style="stop-color:#134a00;stop-opacity:0" offset="1"/></linearGradient><path style="fill:url(#SVGID_51_);fill-rule:evenodd;clip-rule:evenodd" id="path1985" d="M18.6 109.1c8.7 6.9 21.5 11.6 36.1 9.7l.5-19.2c-9.3 1.3-17.6-1.6-23.8-5.1z"/><linearGradient gradientTransform="matrix(.9999 .01075 .01075 -.9999 -88.2166 -261.4149)" y2="-338.10059" x2="118.3424" y1="-324.6402" x1="155.7155" gradientUnits="userSpaceOnUse" id="SVGID_52_"><stop id="stop1987" style="stop-color:#134a00" offset="0"/><stop id="stop1989" style="stop-color:#134a00;stop-opacity:0" offset="1"/></linearGradient><path style="fill:url(#SVGID_52_);fill-rule:evenodd;clip-rule:evenodd" id="path1992" d="M14.7 65.8c4.5 18.8 19.1 25.8 19.1 25.8l9.9-11.7c-8.1-5.7-8.4-15-8.4-15z"/><linearGradient gradientTransform="matrix(1 .0078 .0078 -1 -79.3104 -265.4356)" y2="-293.76019" x2="121.5667" y1="-336.7644" x1="115.8475" gradientUnits="userSpaceOnUse" id="SVGID_53_"><stop id="stop1994" style="stop-color:#134a00" offset="0"/><stop id="stop1996" style="stop-color:#134a00;stop-opacity:0" offset="1"/></linearGradient><path style="fill:url(#SVGID_53_);fill-rule:evenodd;clip-rule:evenodd" id="path1999" d="M39.4 51.1c4-5.4 10.5-8.7 17.1-9.4l-.1-23.3s-21.9-.5-35.8 18.5z"/><linearGradient gradientTransform="matrix(1 .0078 .0078 -1 -79.3104 -265.4356)" y2="-312.6749" x2="103.7013" y1="-351.23499" x1="122.9828" gradientUnits="userSpaceOnUse" id="SVGID_54_"><stop id="stop2001" style="stop-color:#134a00" offset="0"/><stop id="stop2003" style="stop-color:#134a00;stop-opacity:0" offset="1"/></linearGradient><path style="fill:url(#SVGID_54_);fill-rule:evenodd;clip-rule:evenodd" id="path2006" d="M39.4 51.1L20.5 37c-6 8.3-8.2 18.7-5.8 28.8l20.6-1c-.5-4.9 1.3-10.1 4.1-13.7z"/><linearGradient gradientTransform="matrix(1 .0078 .0078 -1 -79.3104 -265.4356)" y2="-325.12729" x2="137.8629" y1="-307.0329" x1="121.3309" gradientUnits="userSpaceOnUse" id="SVGID_55_"><stop id="stop2008" style="stop-color:#fff" offset="0"/><stop id="stop2010" style="stop-color:#fff;stop-opacity:0" offset="1"/></linearGradient><path style="fill:url(#SVGID_55_);fill-rule:evenodd;clip-rule:evenodd" id="path2013" d="M75.8 54.3c-4.7-6.3-12.2-9.4-20-8.4-9.2 1.4-16.9 8.1-17.1 17.4-.1 5.6 2.6 10.8 7 14.1l.7-.8c-5.7-6.5-6-17.4.9-22.4 11.6-8.4 25.5-1.5 29.6 10.9 1.4 4.4 2.2 9 2.5 13.7 3.2-7.9 1.9-16.8-3.2-23.9z"/><linearGradient gradientTransform="matrix(1 -.01038 -.01038 -1 -61.8799 -269.4559)" y2="-380.76099" x2="130.4679" y1="-336.8699" x1="129.09801" gradientUnits="userSpaceOnUse" id="SVGID_56_"><stop id="stop2015" style="stop-color:#134a00" offset="0"/><stop id="stop2017" style="stop-color:#134a00;stop-opacity:0" offset="1"/></linearGradient><path style="fill:url(#SVGID_56_);fill-rule:evenodd;clip-rule:evenodd" id="path2020" d="M54.8 118.7c10.6-1.3 22-7 28.5-15.3l.5-.7c2.5-3.2 4.8-6.9 6.1-10.6l-9.3-8.2c-5 8.5-15.1 14.5-25.3 15.4z"/><linearGradient gradientTransform="matrix(1 .0078 .0078 -1 -79.3104 -265.4356)" y2="-350.84909" x2="176.5201" y1="-316.05139" x1="148.7628" gradientUnits="userSpaceOnUse" id="SVGID_57_"><stop id="stop2022" style="stop-color:#134a00" offset="0"/><stop id="stop2024" style="stop-color:#134a00;stop-opacity:0" offset="1"/></linearGradient><path style="fill:url(#SVGID_57_);fill-rule:evenodd;clip-rule:evenodd" id="path2027" d="M80.6 83.8l9.3 8.2c.2-.5.6-1.7.7-2.3 2.8-12.6-1.1-26-10.3-35.2 4.1 6.5 5.5 14.4 3.5 21.9-.8 2.6-1.9 5.1-3.2 7.4z"/><linearGradient gradientTransform="matrix(1 .0078 .0078 -1 -79.3104 -265.4356)" y2="-352.44531" x2="136.55721" y1="-418.75171" x1="187.5318" gradientUnits="userSpaceOnUse" id="SVGID_58_"><stop id="stop2029" style="stop-color:#fff" offset="0"/><stop id="stop2031" style="stop-color:#fff;stop-opacity:0" offset="1"/></linearGradient><path style="fill:url(#SVGID_58_);fill-rule:evenodd;clip-rule:evenodd" id="path2034" d="M18.6 109.1c8.8 7 20.1 10.6 31.4 10 13-.4 25.9-6.4 33.8-16.4l.3-.4c3-3.8 5.3-8.2 6.6-12.6.5-1.5.6-3.2.7-4.8.1-1.6.2-3.2.1-4.9-.1-3.3-.7-6.5-1.6-9.6-1-3.2-2.4-6.3-4.1-9.1-1.4-2.4-3.2-4.6-5.3-6.6.3.4.7 1 1 1.5 2.1 3.1 3.9 6.3 5.2 9.9 1.3 3.4 2 7 2 10.6v.1c0 .1.1.2.1.3.1 1.5 0 3.1-.2 4.7s-.3 3.2-.8 4.6c-1.3 4.3-3.5 8.4-6.2 11.6l-.3.4c-7.7 9.2-19 14.8-31.2 15.2-9.9.5-19.9-2.6-27.9-8.5z"/><linearGradient gradientTransform="matrix(1 .0078 .0078 -1 -79.3104 -265.4356)" y2="-401.01801" x2="108.1911" y1="-319.00571" x1="160.5499" gradientUnits="userSpaceOnUse" id="SVGID_59_"><stop id="stop2036" style="stop-color:#134a00" offset="0"/><stop id="stop2038" style="stop-color:#134a00;stop-opacity:0" offset="1"/></linearGradient><path style="fill:url(#SVGID_59_);fill-rule:evenodd;clip-rule:evenodd" id="path2041" d="M49.8 104C66 103.4 80.2 93.6 84 78.4c2.1-8.2 1.7-15.3-3.6-23.9 4 6.3 5.4 14.2 3.4 21.7-3.5 14-16.3 22.7-31.2 23.4-7.4.4-15.5-1.9-21.1-5.4l-3.8 4.4c6.8 3.9 14.5 5.8 22.1 5.4z"/><linearGradient gradientTransform="matrix(1 .0078 .0078 -1 -79.3104 -265.4356)" y2="-288.55209" x2="152.506" y1="-325.72321" x1="128.0522" gradientUnits="userSpaceOnUse" id="SVGID_60_"><stop id="stop2043" style="stop-color:#134a00" offset="0"/><stop id="stop2045" style="stop-color:#134a00;stop-opacity:0" offset="1"/></linearGradient><path style="fill:url(#SVGID_60_);fill-rule:evenodd;clip-rule:evenodd" id="path2048" d="M56.4 41.7l-.1-23.3c11.4-.3 22 3.3 30.5 10L71.9 45.5c-4.8-2.9-11.1-4.2-15.5-3.8z"/><linearGradient gradientTransform="matrix(1 .0078 .0078 -1 -79.3104 -265.4356)" y2="-319.8338" x2="134.7489" y1="-297.53479" x1="95.428902" gradientUnits="userSpaceOnUse" id="SVGID_61_"><stop id="stop2050" style="stop-color:#fff;stop-opacity:.5" offset="0"/><stop id="stop2052" style="stop-color:#fff;stop-opacity:0" offset="1"/></linearGradient><path style="fill:url(#SVGID_61_);fill-rule:evenodd;clip-rule:evenodd" id="path2055" d="M86.8 28.4c-8.9-6.9-19.9-10.3-31.2-9.9-23.4 1-43.2 18.8-41.9 41.4 1 12.9 8.2 24.8 19.6 31.3 4.3 2.6 9.3 4.3 14.4 4.9 1.3.1 2.6.1 4 .1-16.4-.6-30.4-15.3-31.4-31.5-1.1-19.9 16.3-35.4 36.5-36.2 8.5-.3 17 2 24.2 6.6z"/><linearGradient gradientTransform="matrix(.9514 .3078 .3078 -.9514 -187.4037 -909.306)" y2="-859.1156" x2="530.61212" y1="-878.23273" x1="583.15143" gradientUnits="userSpaceOnUse" id="SVGID_62_"><stop id="stop2057" style="stop-color:#134a00" offset="0"/><stop id="stop2059" style="stop-color:#134a00;stop-opacity:0" offset="1"/></linearGradient><path style="fill:url(#SVGID_62_);fill-rule:evenodd;clip-rule:evenodd" id="path2062" d="M79.9 77.4c-.7 2.1-2.8 5.8-2.8 5.8C74 87.6 71 90.1 67 92.3c-4 2.2-8.3 3.5-12.8 3.8-4 .3-7.8 0-11.5-1-.8-.3-1.6-.4-2.5-.7-2.4-.8-4.7-2-7-3.2C31 90 29 88.5 27 86.8c-1.8-1.6-3.5-3.4-4.9-5.3-.3-.4-.5-.8-.8-1.1l-.9-1.2c1.6 1.9 3.5 3.5 5.3 5 1.1.8 2.2 1.6 3.4 2.3.5.3 1.1.7 1.6 1 .8.4 1.5.8 2.2 1 .4.1.8.4 1.3.6.7.2 1.4.6 2.2.9.5.2 1.1.4 1.7.6 1.1.4 2.2.6 3.3.8 5 .9 10.2.5 14.9-.8.2-.1.5-.1.6-.1.8-.2 1.6-.5 2.5-.8 5.9-2.3 10.8-7.3 13-14 3.3-10.2-1.1-21.1-10.1-26.3-1.4-.7-2.8-1.5-4.4-2h-.1c-1.2-.4-2.3-.7-3.9-1.1.3 0 .8-.2 1.1-.2.3 0 .7-.1 1.1-.2.7-.1 1.3-.1 2-.1 2.4-.1 5 .3 7.2 1 2.7.9 5.4 2.5 7.6 4.4 1.8 1.5 3.3 3.5 4.5 5.6.6 1.1 1.3 2.2 1.7 3.3 1 2.2 1.3 4.4 1.7 6.8.2 1.3.1 2.7.1 3.8.3 1.8-.4 4.2-1 6.7z"/><linearGradient gradientTransform="matrix(.9514 .3078 .3078 -.9514 -187.4037 -909.306)" y2="-859.1156" x2="530.61212" y1="-878.23273" x1="583.15143" gradientUnits="userSpaceOnUse" id="SVGID_63_"><stop id="stop2064" style="stop-color:#134a00" offset="0"/><stop id="stop2066" style="stop-color:#134a00;stop-opacity:0" offset="1"/></linearGradient><path style="fill:url(#SVGID_63_);fill-rule:evenodd;clip-rule:evenodd" id="path2069" d="M79.9 77.4c-.7 2.1-2.8 5.8-2.8 5.8C74 87.6 71 90.1 67 92.3c-4 2.2-8.3 3.5-12.8 3.8-4 .3-7.8 0-11.5-1-.8-.3-1.6-.4-2.5-.7-2.4-.8-4.7-2-7-3.2C31 90 29 88.5 27 86.8c-1.8-1.6-3.5-3.4-4.9-5.3-.3-.4-.5-.8-.8-1.1l-.9-1.2c1.6 1.9 3.5 3.5 5.3 5 1.1.8 2.2 1.6 3.4 2.3.5.3 1.1.7 1.6 1 .8.4 1.5.8 2.2 1 .4.1.8.4 1.3.6.7.2 1.4.6 2.2.9.5.2 1.1.4 1.7.6 1.1.4 2.2.6 3.3.8 5 .9 10.2.5 14.9-.8.2-.1.5-.1.6-.1.8-.2 1.6-.5 2.5-.8 5.9-2.3 10.8-7.3 13-14 3.3-10.2-1.1-21.1-10.1-26.3-1.4-.7-2.8-1.5-4.4-2h-.1c-1.2-.4-2.3-.7-3.9-1.1.3 0 .8-.2 1.1-.2.3 0 .7-.1 1.1-.2.7-.1 1.3-.1 2-.1 2.4-.1 5 .3 7.2 1 2.7.9 5.4 2.5 7.6 4.4 1.8 1.5 3.3 3.5 4.5 5.6.6 1.1 1.3 2.2 1.7 3.3 1 2.2 1.3 4.4 1.7 6.8.2 1.3.1 2.7.1 3.8.3 1.8-.4 4.2-1 6.7z"/><linearGradient gradientTransform="matrix(1 .0078 .0078 -1 -79.3104 -265.4356)" y2="-319.8338" x2="134.7489" y1="-297.53479" x1="95.428902" gradientUnits="userSpaceOnUse" id="SVGID_64_"><stop id="stop2071" style="stop-color:#fff;stop-opacity:.5" offset="0"/><stop id="stop2073" style="stop-color:#fff;stop-opacity:0" offset="1"/></linearGradient><path style="fill:url(#SVGID_64_);fill-rule:evenodd;clip-rule:evenodd" id="path2076" d="M86.8 28.4c-8.9-6.9-19.9-10.3-31.2-9.9-23.4 1-43.2 18.8-41.9 41.4 1 12.9 8.2 24.8 19.6 31.3 4.3 2.6 9.3 4.3 14.4 4.9 1.3.1 2.6.1 4 .1-16.4-.6-30.4-15.3-31.4-31.5-1.1-19.9 16.3-35.4 36.5-36.2 8.5-.3 17 2 24.2 6.6z"/></g></g></g><g id="g2084" class="st21"><text id="text2082" class="st1 st38 st39" transform="translate(114.4569 143.4622)">Run Linux Anywhere</text></g></g></svg>
